<svg width="18" height="18" viewBox="0 0 18 18" fill="none" xmlns="http://www.w3.org/2000/svg">
<path d="M9 8C10.0609 8 11.0783 7.57857 11.8284 6.82843C12.5786 6.07828 13 5.06087 13 4C13 2.93913 12.5786 1.92172 11.8284 1.17157C11.0783 0.421427 10.0609 0 9 0C7.93913 0 6.92172 0.421427 6.17157 1.17157C5.42143 1.92172 5 2.93913 5 4C5 5.06087 5.42143 6.07828 6.17157 6.82843C6.92172 7.57857 7.93913 8 9 8ZM5.62 9.922L5.994 9.373C6.90323 9.78612 7.89032 9.99991 8.889 10H9.112C9.96835 9.99986 10.8174 9.84259 11.617 9.536L11.88 9.922C12.002 10.102 12.125 10.452 12.207 10.895C12.287 11.322 12.309 11.727 12.294 11.95C12.2881 12.0516 12.3017 12.1535 12.334 12.25H11.956C11.8114 12.2502 11.6699 12.2916 11.5481 12.3693C11.4262 12.4471 11.3291 12.558 11.268 12.689L10.577 14.169C10.523 14.2848 10.4991 14.4124 10.5075 14.5399C10.5159 14.6674 10.5563 14.7907 10.625 14.8985C10.6937 15.0062 10.7884 15.0949 10.9005 15.1564C11.0125 15.2178 11.1382 15.25 11.266 15.25H12.4V13.75H13.65V15.25H14.734C14.8618 15.25 14.9875 15.2178 15.0995 15.1564C15.2116 15.0949 15.3063 15.0062 15.375 14.8985C15.4437 14.7907 15.4841 14.6674 15.4925 14.5399C15.5009 14.4124 15.477 14.2848 15.423 14.169L14.733 12.689C14.6718 12.5577 14.5743 12.4466 14.4521 12.3688C14.3298 12.291 14.1879 12.2498 14.043 12.25H13.75C13.7718 12.1853 13.7853 12.1181 13.79 12.05C13.816 11.672 13.778 11.138 13.682 10.62C13.589 10.118 13.42 9.519 13.12 9.078L13.071 9.006C13.1216 9.00207 13.1723 9.00007 13.223 9C13.8503 9 14.4715 9.12356 15.0511 9.36363C15.6307 9.60369 16.1573 9.95557 16.6008 10.3992C17.0444 10.8427 17.3963 11.3693 17.6364 11.9489C17.8764 12.5285 18 13.1497 18 13.777V18H0V13.777C0 11.257 1.95 9.193 4.424 9.013L4.38 9.078C3.789 9.947 3.699 11.024 3.772 11.888C3.797 12.185 3.842 12.478 3.904 12.754C3.6572 12.9733 3.48965 13.2679 3.42733 13.5922C3.36502 13.9164 3.41142 14.2521 3.55935 14.5473C3.70727 14.8425 3.94845 15.0806 4.24549 15.2248C4.54252 15.3689 4.87882 15.411 5.20224 15.3446C5.52565 15.2781 5.8181 15.1068 6.03425 14.8573C6.2504 14.6077 6.37817 14.2938 6.39774 13.9642C6.41731 13.6346 6.32759 13.3078 6.1425 13.0344C5.95741 12.7609 5.68728 12.5562 5.374 12.452C5.32196 12.2248 5.28587 11.9942 5.266 11.762C5.206 11.056 5.306 10.383 5.62 9.922Z" fill="#5C5C5C"/>
</svg>
