<svg width="24" height="24" viewBox="0 0 24 24" fill="none" xmlns="http://www.w3.org/2000/svg">
<mask id="path-1-inside-1_40001126_7399" fill="white">
<path d="M16.8125 4.05882H15.75V3.52941C15.75 3.23732 15.5119 3 15.2188 3C14.9256 3 14.6875 3.23732 14.6875 3.52941V4.05882H8.3125V3.52941C8.3125 3.23732 8.07435 3 7.78125 3C7.48815 3 7.25 3.23732 7.25 3.52941V4.05882H6.1875C4.42705 4.05882 3 5.48093 3 7.23529V17.8235C3 19.5779 4.42705 21 6.1875 21H16.8125C18.573 21 20 19.5779 20 17.8235V7.23529C20 5.48093 18.573 4.05882 16.8125 4.05882ZM18.9375 17.8235C18.9357 18.9919 17.9849 19.9394 16.8125 19.9412H6.1875C5.01509 19.9394 4.06433 18.9919 4.0625 17.8235V9.35294H18.9375V17.8235ZM18.9375 8.29412H4.0625V7.23529C4.06433 6.06694 5.01509 5.11947 6.1875 5.11765H7.25V5.64706C7.25 5.93915 7.48815 6.17647 7.78125 6.17647C8.07435 6.17647 8.3125 5.93915 8.3125 5.64706V5.11765H14.6875V5.64706C14.6875 5.93915 14.9256 6.17647 15.2188 6.17647C15.5119 6.17647 15.75 5.93915 15.75 5.64706V5.11765H16.8125C17.9849 5.11947 18.9357 6.06694 18.9375 7.23529V8.29412ZM8.46821 15.5507C8.37051 15.4497 8.317 15.3141 8.31941 15.1738C8.32181 15.0335 8.37993 14.8999 8.48103 14.8022C8.57991 14.7065 8.71232 14.653 8.85016 14.653C8.988 14.653 9.12041 14.7065 9.21929 14.8022L10.9248 16.5018L14.8029 11.6696C14.9861 11.4414 15.3213 11.4049 15.5503 11.5874C15.7793 11.77 15.8159 12.1041 15.6328 12.3323L11.3828 17.6264C11.2875 17.7432 11.1483 17.8162 10.9981 17.8235H10.9687C10.8277 17.8235 10.6921 17.7688 10.5932 17.6684L8.46821 15.5507Z"/>
</mask>
<path d="M16.8125 4.05882H15.75V3.52941C15.75 3.23732 15.5119 3 15.2188 3C14.9256 3 14.6875 3.23732 14.6875 3.52941V4.05882H8.3125V3.52941C8.3125 3.23732 8.07435 3 7.78125 3C7.48815 3 7.25 3.23732 7.25 3.52941V4.05882H6.1875C4.42705 4.05882 3 5.48093 3 7.23529V17.8235C3 19.5779 4.42705 21 6.1875 21H16.8125C18.573 21 20 19.5779 20 17.8235V7.23529C20 5.48093 18.573 4.05882 16.8125 4.05882ZM18.9375 17.8235C18.9357 18.9919 17.9849 19.9394 16.8125 19.9412H6.1875C5.01509 19.9394 4.06433 18.9919 4.0625 17.8235V9.35294H18.9375V17.8235ZM18.9375 8.29412H4.0625V7.23529C4.06433 6.06694 5.01509 5.11947 6.1875 5.11765H7.25V5.64706C7.25 5.93915 7.48815 6.17647 7.78125 6.17647C8.07435 6.17647 8.3125 5.93915 8.3125 5.64706V5.11765H14.6875V5.64706C14.6875 5.93915 14.9256 6.17647 15.2188 6.17647C15.5119 6.17647 15.75 5.93915 15.75 5.64706V5.11765H16.8125C17.9849 5.11947 18.9357 6.06694 18.9375 7.23529V8.29412ZM8.46821 15.5507C8.37051 15.4497 8.317 15.3141 8.31941 15.1738C8.32181 15.0335 8.37993 14.8999 8.48103 14.8022C8.57991 14.7065 8.71232 14.653 8.85016 14.653C8.988 14.653 9.12041 14.7065 9.21929 14.8022L10.9248 16.5018L14.8029 11.6696C14.9861 11.4414 15.3213 11.4049 15.5503 11.5874C15.7793 11.77 15.8159 12.1041 15.6328 12.3323L11.3828 17.6264C11.2875 17.7432 11.1483 17.8162 10.9981 17.8235H10.9687C10.8277 17.8235 10.6921 17.7688 10.5932 17.6684L8.46821 15.5507Z" fill="#0F0E40"/>
<path d="M15.75 4.05882H10.63V9.17882H15.75V4.05882ZM14.6875 4.05882V9.17882H19.8075V4.05882H14.6875ZM8.3125 4.05882H3.1925V9.17882H8.3125V4.05882ZM7.25 4.05882V9.17882H12.37V4.05882H7.25ZM18.9375 17.8235L24.0575 17.8316V17.8235H18.9375ZM16.8125 19.9412V25.0612L16.8205 25.0612L16.8125 19.9412ZM6.1875 19.9412L6.17953 25.0612H6.1875V19.9412ZM4.0625 17.8235H-1.05751L-1.05749 17.8316L4.0625 17.8235ZM4.0625 9.35294V4.23294H-1.0575V9.35294H4.0625ZM18.9375 9.35294H24.0575V4.23294H18.9375V9.35294ZM18.9375 8.29412V13.4141H24.0575V8.29412H18.9375ZM4.0625 8.29412H-1.0575V13.4141H4.0625V8.29412ZM4.0625 7.23529L-1.0575 7.22727V7.23529H4.0625ZM6.1875 5.11765V-0.00235915L6.17953 -0.00234675L6.1875 5.11765ZM7.25 5.11765H12.37V-0.00235295H7.25V5.11765ZM8.3125 5.11765V-0.00235295H3.1925V5.11765H8.3125ZM14.6875 5.11765H19.8075V-0.00235295H14.6875V5.11765ZM15.75 5.11765V-0.00235295H10.63V5.11765H15.75ZM16.8125 5.11765L16.8205 -0.00235295H16.8125V5.11765ZM18.9375 7.23529H24.0575L24.0575 7.22727L18.9375 7.23529ZM8.46821 15.5507L4.78728 19.1095L4.82037 19.1438L4.8541 19.1774L8.46821 15.5507ZM8.48103 14.8022L12.0383 18.4846L12.042 18.4811L8.48103 14.8022ZM9.21929 14.8022L12.8334 11.1756L12.807 11.1493L12.7803 11.1234L9.21929 14.8022ZM10.9248 16.5018L7.31068 20.1285L11.3492 24.1531L14.9179 19.7065L10.9248 16.5018ZM14.8029 11.6696L10.8103 8.46438L10.8098 8.46493L14.8029 11.6696ZM15.6328 12.3323L11.6401 9.12705V9.12705L15.6328 12.3323ZM11.3828 17.6264L15.351 20.8617L15.3632 20.8467L15.3754 20.8316L11.3828 17.6264ZM10.9981 17.8235V22.9435H11.1224L11.2467 22.9375L10.9981 17.8235ZM10.5932 17.6684L14.2404 14.075L14.224 14.0583L14.2073 14.0417L10.5932 17.6684ZM16.8125 4.05882V-1.06118H15.75V4.05882V9.17882H16.8125V4.05882ZM15.75 4.05882H20.87V3.52941H15.75H10.63V4.05882H15.75ZM15.75 3.52941H20.87C20.87 0.392918 18.3228 -2.12 15.2188 -2.12V3V8.12C12.7009 8.12 10.63 6.08173 10.63 3.52941H15.75ZM15.2188 3V-2.12C12.1147 -2.12 9.5675 0.392906 9.5675 3.52941H14.6875H19.8075C19.8075 6.08174 17.7366 8.12 15.2188 8.12V3ZM14.6875 3.52941H9.5675V4.05882H14.6875H19.8075V3.52941H14.6875ZM14.6875 4.05882V-1.06118H8.3125V4.05882V9.17882H14.6875V4.05882ZM8.3125 4.05882H13.4325V3.52941H8.3125H3.1925V4.05882H8.3125ZM8.3125 3.52941H13.4325C13.4325 0.392912 10.8853 -2.12 7.78125 -2.12V3V8.12C5.2634 8.12 3.1925 6.08173 3.1925 3.52941H8.3125ZM7.78125 3V-2.12C4.6772 -2.12 2.13 0.3929 2.13 3.52941H7.25H12.37C12.37 6.08174 10.2991 8.12 7.78125 8.12V3ZM7.25 3.52941H2.13V4.05882H7.25H12.37V3.52941H7.25ZM7.25 4.05882V-1.06118H6.1875V4.05882V9.17882H7.25V4.05882ZM6.1875 4.05882V-1.06118C1.6161 -1.06118 -2.12 2.63652 -2.12 7.23529H3H8.12C8.12 8.32535 7.238 9.17882 6.1875 9.17882V4.05882ZM3 7.23529H-2.12V17.8235H3H8.12V7.23529H3ZM3 17.8235H-2.12C-2.12 22.4223 1.6161 26.12 6.1875 26.12V21V15.88C7.238 15.88 8.12 16.7335 8.12 17.8235H3ZM6.1875 21V26.12H16.8125V21V15.88H6.1875V21ZM16.8125 21V26.12C21.3839 26.12 25.12 22.4223 25.12 17.8235H20H14.88C14.88 16.7335 15.762 15.88 16.8125 15.88V21ZM20 17.8235H25.12V7.23529H20H14.88V17.8235H20ZM20 7.23529H25.12C25.12 2.63652 21.3839 -1.06118 16.8125 -1.06118V4.05882V9.17882C15.762 9.17882 14.88 8.32535 14.88 7.23529H20ZM18.9375 17.8235L13.8175 17.8155C13.8201 16.1458 15.1722 14.8237 16.8045 14.8212L16.8125 19.9412L16.8205 25.0612C20.7977 25.055 24.0512 21.838 24.0575 17.8316L18.9375 17.8235ZM16.8125 19.9412V14.8212H6.1875V19.9412V25.0612H16.8125V19.9412ZM6.1875 19.9412L6.19547 14.8212C7.82784 14.8237 9.17988 16.1458 9.18249 17.8155L4.0625 17.8235L-1.05749 17.8316C-1.05121 21.838 2.20234 25.055 6.17953 25.0612L6.1875 19.9412ZM4.0625 17.8235H9.1825V9.35294H4.0625H-1.0575V17.8235H4.0625ZM4.0625 9.35294V14.4729H18.9375V9.35294V4.23294H4.0625V9.35294ZM18.9375 9.35294H13.8175V17.8235H18.9375H24.0575V9.35294H18.9375ZM18.9375 8.29412V3.17412H4.0625V8.29412V13.4141H18.9375V8.29412ZM4.0625 8.29412H9.1825V7.23529H4.0625H-1.0575V8.29412H4.0625ZM4.0625 7.23529L9.18249 7.24332C9.17988 8.91305 7.82784 10.2351 6.19547 10.2376L6.1875 5.11765L6.17953 -0.00234675C2.20234 0.00384617 -1.05121 3.22082 -1.05749 7.22727L4.0625 7.23529ZM6.1875 5.11765V10.2376H7.25V5.11765V-0.00235295H6.1875V5.11765ZM7.25 5.11765H2.13V5.64706H7.25H12.37V5.11765H7.25ZM7.25 5.64706H2.13C2.13 8.78357 4.6772 11.2965 7.78125 11.2965V6.17647V1.05647C10.2991 1.05647 12.37 3.09473 12.37 5.64706H7.25ZM7.78125 6.17647V11.2965C10.8853 11.2965 13.4325 8.78356 13.4325 5.64706H8.3125H3.1925C3.1925 3.09474 5.2634 1.05647 7.78125 1.05647V6.17647ZM8.3125 5.64706H13.4325V5.11765H8.3125H3.1925V5.64706H8.3125ZM8.3125 5.11765V10.2376H14.6875V5.11765V-0.00235295H8.3125V5.11765ZM14.6875 5.11765H9.5675V5.64706H14.6875H19.8075V5.11765H14.6875ZM14.6875 5.64706H9.5675C9.5675 8.78356 12.1147 11.2965 15.2188 11.2965V6.17647V1.05647C17.7366 1.05647 19.8075 3.09473 19.8075 5.64706H14.6875ZM15.2188 6.17647V11.2965C18.3228 11.2965 20.87 8.78355 20.87 5.64706H15.75H10.63C10.63 3.09474 12.7009 1.05647 15.2188 1.05647V6.17647ZM15.75 5.64706H20.87V5.11765H15.75H10.63V5.64706H15.75ZM15.75 5.11765V10.2376H16.8125V5.11765V-0.00235295H15.75V5.11765ZM16.8125 5.11765L16.8045 10.2376C15.1722 10.2351 13.8201 8.91305 13.8175 7.24332L18.9375 7.23529L24.0575 7.22727C24.0512 3.22082 20.7977 0.00384617 16.8205 -0.00234675L16.8125 5.11765ZM18.9375 7.23529H13.8175V8.29412H18.9375H24.0575V7.23529H18.9375ZM8.46821 15.5507L12.1491 11.9919C12.9938 12.8656 13.4596 14.0411 13.4387 15.2615L8.31941 15.1738L3.20016 15.0861C3.17444 16.5872 3.7472 18.0337 4.78728 19.1095L8.46821 15.5507ZM8.31941 15.1738L13.4387 15.2615C13.4177 16.4819 12.9121 17.6406 12.0383 18.4846L8.48103 14.8022L4.92373 11.1198C3.84778 12.1592 3.22587 13.5851 3.20016 15.0861L8.31941 15.1738ZM8.48103 14.8022L12.042 18.4811C11.1842 19.3114 10.0389 19.773 8.85016 19.773V14.653V9.53299C7.38574 9.53299 5.97565 10.1016 4.92004 11.1234L8.48103 14.8022ZM8.85016 14.653V19.773C7.66143 19.773 6.51616 19.3114 5.6583 18.4811L9.21929 14.8022L12.7803 11.1234C11.7247 10.1016 10.3146 9.53299 8.85016 9.53299V14.653ZM9.21929 14.8022L5.60518 18.4289L7.31068 20.1285L10.9248 16.5018L14.5389 12.8752L12.8334 11.1756L9.21929 14.8022ZM10.9248 16.5018L14.9179 19.7065L18.796 14.8742L14.8029 11.6696L10.8098 8.46493L6.93171 13.2972L10.9248 16.5018ZM14.8029 11.6696L18.7955 14.8748C17.2038 16.8576 14.3242 17.1579 12.3586 15.5909L15.5503 11.5874L18.742 7.58397C16.3185 5.65188 12.7684 6.02519 10.8103 8.46438L14.8029 11.6696ZM15.5503 11.5874L12.3586 15.5909C10.3657 14.0021 10.0534 11.1037 11.6401 9.12705L15.6328 12.3323L19.6254 15.5374C21.5785 13.1045 21.1929 9.5379 18.742 7.58397L15.5503 11.5874ZM15.6328 12.3323L11.6401 9.12705L7.39013 14.4212L11.3828 17.6264L15.3754 20.8316L19.6254 15.5374L15.6328 12.3323ZM11.3828 17.6264L7.41454 14.391C8.19646 13.432 9.38709 12.7758 10.7495 12.7096L10.9981 17.8235L11.2467 22.9375C12.9095 22.8567 14.3785 22.0544 15.351 20.8617L11.3828 17.6264ZM10.9981 17.8235V12.7035H10.9687V17.8235V22.9435H10.9981V17.8235ZM10.9687 17.8235V12.7035C12.149 12.7035 13.3427 13.1638 14.2404 14.075L10.5932 17.6684L6.94599 21.2617C8.04157 22.3737 9.50634 22.9435 10.9687 22.9435V17.8235ZM10.5932 17.6684L14.2073 14.0417L12.0823 11.9241L8.46821 15.5507L4.8541 19.1774L6.9791 21.295L10.5932 17.6684Z" fill="#0F0E40" mask="url(#path-1-inside-1_40001126_7399)"/>
</svg>
