<svg width="24" height="24" viewBox="0 0 24 24" fill="none" xmlns="http://www.w3.org/2000/svg">
<mask id="path-1-inside-1_40001126_7442" fill="white">
<path d="M5.84211 3H18.1579C18.9117 3 19.6346 3.29944 20.1676 3.83243C20.7006 4.36543 21 5.08833 21 5.84211V14.3684C21 15.1222 20.7006 15.8451 20.1676 16.3781C19.6346 16.9111 18.9117 17.2105 18.1579 17.2105H13.8095L10.3042 20.7253C10.1337 20.8958 9.89684 21 9.63158 21C9.38032 21 9.13935 20.9002 8.96169 20.7225C8.78402 20.5449 8.68421 20.3039 8.68421 20.0526V17.2105H5.84211C5.08833 17.2105 4.36543 16.9111 3.83243 16.3781C3.29944 15.8451 3 15.1222 3 14.3684V5.84211C3 5.08833 3.29944 4.36543 3.83243 3.83243C4.36543 3.29944 5.08833 3 5.84211 3ZM18.1579 3.94737H5.84211C5.33959 3.94737 4.85766 4.14699 4.50232 4.50232C4.14699 4.85766 3.94737 5.33959 3.94737 5.84211V14.3684C3.94737 14.8709 4.14699 15.3529 4.50232 15.7082C4.85766 16.0635 5.33959 16.2632 5.84211 16.2632H9.63158V20.0526L13.4211 16.2632H18.1579C18.6604 16.2632 19.1423 16.0635 19.4977 15.7082C19.853 15.3529 20.0526 14.8709 20.0526 14.3684V5.84211C20.0526 5.33959 19.853 4.85766 19.4977 4.50232C19.1423 4.14699 18.6604 3.94737 18.1579 3.94737ZM5.84211 6.78947H18.1579V7.73684H5.84211V6.78947ZM5.84211 9.63158H17.2105V10.5789H5.84211V9.63158ZM5.84211 12.4737H13.4211V13.4211H5.84211V12.4737Z"/>
</mask>
<path d="M5.84211 3V2V3ZM21 5.84211H22H21ZM21 14.3684H22H21ZM18.1579 17.2105V18.2105V17.2105ZM13.8095 17.2105V16.2105H13.3945L13.1014 16.5044L13.8095 17.2105ZM10.3042 20.7253L11.0113 21.4324L11.0123 21.4314L10.3042 20.7253ZM8.68421 20.0526H9.68421H8.68421ZM8.68421 17.2105H9.68421V16.2105H8.68421V17.2105ZM5.84211 17.2105V18.2105V17.2105ZM3 14.3684H2H3ZM3 5.84211H2H3ZM18.1579 3.94737V2.94737V3.94737ZM5.84211 3.94737V2.94737V3.94737ZM3.94737 5.84211H2.94737H3.94737ZM3.94737 14.3684H2.94737H3.94737ZM9.63158 16.2632H10.6316V15.2632H9.63158V16.2632ZM9.63158 20.0526H8.63158V22.4668L10.3387 20.7597L9.63158 20.0526ZM13.4211 16.2632V15.2632H13.0068L12.7139 15.5561L13.4211 16.2632ZM5.84211 6.78947V5.78947H4.84211V6.78947H5.84211ZM18.1579 6.78947H19.1579V5.78947H18.1579V6.78947ZM18.1579 7.73684V8.73684H19.1579V7.73684H18.1579ZM5.84211 7.73684H4.84211V8.73684H5.84211V7.73684ZM5.84211 9.63158V8.63158H4.84211V9.63158H5.84211ZM17.2105 9.63158H18.2105V8.63158H17.2105V9.63158ZM17.2105 10.5789V11.5789H18.2105V10.5789H17.2105ZM5.84211 10.5789H4.84211V11.5789H5.84211V10.5789ZM5.84211 12.4737V11.4737H4.84211V12.4737H5.84211ZM13.4211 12.4737H14.4211V11.4737H13.4211V12.4737ZM13.4211 13.4211V14.4211H14.4211V13.4211H13.4211ZM5.84211 13.4211H4.84211V14.4211H5.84211V13.4211ZM5.84211 3V4H18.1579V3V2H5.84211V3ZM18.1579 3V4C18.6465 4 19.115 4.19408 19.4605 4.53954L20.1676 3.83243L20.8747 3.12533C20.1541 2.40479 19.1769 2 18.1579 2V3ZM20.1676 3.83243L19.4605 4.53954C19.8059 4.885 20 5.35355 20 5.84211H21H22C22 4.82312 21.5952 3.84586 20.8747 3.12533L20.1676 3.83243ZM21 5.84211H20V14.3684H21H22V5.84211H21ZM21 14.3684H20C20 14.857 19.8059 15.3255 19.4605 15.671L20.1676 16.3781L20.8747 17.0852C21.5952 16.3647 22 15.3874 22 14.3684H21ZM20.1676 16.3781L19.4605 15.671C19.115 16.0164 18.6465 16.2105 18.1579 16.2105V17.2105V18.2105C19.1769 18.2105 20.1541 17.8057 20.8747 17.0852L20.1676 16.3781ZM18.1579 17.2105V16.2105H13.8095V17.2105V18.2105H18.1579V17.2105ZM13.8095 17.2105L13.1014 16.5044L9.59615 20.0191L10.3042 20.7253L11.0123 21.4314L14.5175 17.9167L13.8095 17.2105ZM10.3042 20.7253L9.5971 20.0182C9.60361 20.0117 9.61115 20.0067 9.61881 20.0035C9.62699 20.0001 9.63218 20 9.63158 20V21V22C10.1651 22 10.6554 21.7883 11.0113 21.4324L10.3042 20.7253ZM9.63158 21V20C9.64554 20 9.65892 20.0055 9.6688 20.0154L8.96169 20.7225L8.25458 21.4296C8.61978 21.7948 9.11511 22 9.63158 22V21ZM8.96169 20.7225L9.6688 20.0154C9.67867 20.0253 9.68421 20.0387 9.68421 20.0526H8.68421H7.68421C7.68421 20.5691 7.88938 21.0644 8.25458 21.4296L8.96169 20.7225ZM8.68421 20.0526H9.68421V17.2105H8.68421H7.68421V20.0526H8.68421ZM8.68421 17.2105V16.2105H5.84211V17.2105V18.2105H8.68421V17.2105ZM5.84211 17.2105V16.2105C5.35355 16.2105 4.885 16.0164 4.53954 15.671L3.83243 16.3781L3.12533 17.0852C3.84586 17.8057 4.82312 18.2105 5.84211 18.2105V17.2105ZM3.83243 16.3781L4.53954 15.671C4.19408 15.3255 4 14.857 4 14.3684H3H2C2 15.3874 2.40479 16.3647 3.12533 17.0852L3.83243 16.3781ZM3 14.3684H4V5.84211H3H2V14.3684H3ZM3 5.84211H4C4 5.35355 4.19408 4.885 4.53954 4.53954L3.83243 3.83243L3.12533 3.12533C2.40479 3.84586 2 4.82312 2 5.84211H3ZM3.83243 3.83243L4.53954 4.53954C4.885 4.19408 5.35355 4 5.84211 4V3V2C4.82312 2 3.84586 2.40479 3.12533 3.12533L3.83243 3.83243ZM18.1579 3.94737V2.94737H5.84211V3.94737V4.94737H18.1579V3.94737ZM5.84211 3.94737V2.94737C5.07437 2.94737 4.33809 3.25235 3.79522 3.79522L4.50232 4.50232L5.20943 5.20943C5.37723 5.04164 5.60481 4.94737 5.84211 4.94737V3.94737ZM4.50232 4.50232L3.79522 3.79522C3.25235 4.33809 2.94737 5.07437 2.94737 5.84211H3.94737H4.94737C4.94737 5.60481 5.04164 5.37723 5.20943 5.20943L4.50232 4.50232ZM3.94737 5.84211H2.94737V14.3684H3.94737H4.94737V5.84211H3.94737ZM3.94737 14.3684H2.94737C2.94737 15.1362 3.25235 15.8724 3.79522 16.4153L4.50232 15.7082L5.20943 15.0011C5.04163 14.8333 4.94737 14.6057 4.94737 14.3684H3.94737ZM4.50232 15.7082L3.79522 16.4153C4.33809 16.9582 5.07437 17.2632 5.84211 17.2632V16.2632V15.2632C5.60481 15.2632 5.37723 15.1689 5.20943 15.0011L4.50232 15.7082ZM5.84211 16.2632V17.2632H9.63158V16.2632V15.2632H5.84211V16.2632ZM9.63158 16.2632H8.63158V20.0526H9.63158H10.6316V16.2632H9.63158ZM9.63158 20.0526L10.3387 20.7597L14.1282 16.9703L13.4211 16.2632L12.7139 15.5561L8.92447 19.3455L9.63158 20.0526ZM13.4211 16.2632V17.2632H18.1579V16.2632V15.2632H13.4211V16.2632ZM18.1579 16.2632V17.2632C18.9256 17.2632 19.6619 16.9582 20.2048 16.4153L19.4977 15.7082L18.7906 15.0011C18.6228 15.1689 18.3952 15.2632 18.1579 15.2632V16.2632ZM19.4977 15.7082L20.2048 16.4153C20.7477 15.8724 21.0526 15.1362 21.0526 14.3684H20.0526H19.0526C19.0526 14.6057 18.9584 14.8333 18.7906 15.0011L19.4977 15.7082ZM20.0526 14.3684H21.0526V5.84211H20.0526H19.0526V14.3684H20.0526ZM20.0526 5.84211H21.0526C21.0526 5.07437 20.7477 4.33809 20.2048 3.79522L19.4977 4.50232L18.7906 5.20943C18.9584 5.37723 19.0526 5.6048 19.0526 5.84211H20.0526ZM19.4977 4.50232L20.2048 3.79522C19.6619 3.25235 18.9256 2.94737 18.1579 2.94737V3.94737V4.94737C18.3952 4.94737 18.6228 5.04164 18.7906 5.20943L19.4977 4.50232ZM5.84211 6.78947V7.78947H18.1579V6.78947V5.78947H5.84211V6.78947ZM18.1579 6.78947H17.1579V7.73684H18.1579H19.1579V6.78947H18.1579ZM18.1579 7.73684V6.73684H5.84211V7.73684V8.73684H18.1579V7.73684ZM5.84211 7.73684H6.84211V6.78947H5.84211H4.84211V7.73684H5.84211ZM5.84211 9.63158V10.6316H17.2105V9.63158V8.63158H5.84211V9.63158ZM17.2105 9.63158H16.2105V10.5789H17.2105H18.2105V9.63158H17.2105ZM17.2105 10.5789V9.57895H5.84211V10.5789V11.5789H17.2105V10.5789ZM5.84211 10.5789H6.84211V9.63158H5.84211H4.84211V10.5789H5.84211ZM5.84211 12.4737V13.4737H13.4211V12.4737V11.4737H5.84211V12.4737ZM13.4211 12.4737H12.4211V13.4211H13.4211H14.4211V12.4737H13.4211ZM13.4211 13.4211V12.4211H5.84211V13.4211V14.4211H13.4211V13.4211ZM5.84211 13.4211H6.84211V12.4737H5.84211H4.84211V13.4211H5.84211Z" fill="#0F0E40" mask="url(#path-1-inside-1_40001126_7442)"/>
</svg>
