<svg width="20" height="20" viewBox="0 0 20 20" fill="none" xmlns="http://www.w3.org/2000/svg">
<mask id="path-1-inside-1_40000162_33352" fill="white">
<path d="M14.0104 3.38235H13.125V2.94118C13.125 2.69777 12.9265 2.5 12.6823 2.5C12.438 2.5 12.2396 2.69777 12.2396 2.94118V3.38235H6.92708V2.94118C6.92708 2.69777 6.72863 2.5 6.48438 2.5C6.24012 2.5 6.04167 2.69777 6.04167 2.94118V3.38235H5.15625C3.68921 3.38235 2.5 4.56744 2.5 6.02941V14.8529C2.5 16.3149 3.68921 17.5 5.15625 17.5H14.0104C15.4775 17.5 16.6667 16.3149 16.6667 14.8529V6.02941C16.6667 4.56744 15.4775 3.38235 14.0104 3.38235ZM15.7812 14.8529C15.7797 15.8266 14.9874 16.6161 14.0104 16.6176H5.15625C4.17924 16.6161 3.38694 15.8266 3.38542 14.8529V7.79412H15.7812V14.8529ZM15.7812 6.91176H3.38542V6.02941C3.38694 5.05578 4.17924 4.26623 5.15625 4.26471H6.04167V4.70588C6.04167 4.94929 6.24012 5.14706 6.48438 5.14706C6.72863 5.14706 6.92708 4.94929 6.92708 4.70588V4.26471H12.2396V4.70588C12.2396 4.94929 12.438 5.14706 12.6823 5.14706C12.9265 5.14706 13.125 4.94929 13.125 4.70588V4.26471H14.0104C14.9874 4.26623 15.7797 5.05578 15.7812 6.02941V6.91176ZM7.05684 12.9589C6.97543 12.8747 6.93083 12.7618 6.93284 12.6449C6.93484 12.5279 6.98328 12.4166 7.06753 12.3352C7.14992 12.2554 7.26027 12.2108 7.37513 12.2108C7.49 12.2108 7.60035 12.2554 7.68274 12.3352L9.10399 13.7515L12.3358 9.72464C12.4884 9.53448 12.7678 9.50406 12.9586 9.65619C13.1494 9.80832 13.18 10.0867 13.0273 10.2769L9.48563 14.6886C9.40625 14.786 9.29023 14.8469 9.16505 14.8529H9.14062C9.02308 14.8529 8.91011 14.8073 8.82768 14.7236L7.05684 12.9589Z"/>
</mask>
<path d="M14.0104 3.38235H13.125V2.94118C13.125 2.69777 12.9265 2.5 12.6823 2.5C12.438 2.5 12.2396 2.69777 12.2396 2.94118V3.38235H6.92708V2.94118C6.92708 2.69777 6.72863 2.5 6.48438 2.5C6.24012 2.5 6.04167 2.69777 6.04167 2.94118V3.38235H5.15625C3.68921 3.38235 2.5 4.56744 2.5 6.02941V14.8529C2.5 16.3149 3.68921 17.5 5.15625 17.5H14.0104C15.4775 17.5 16.6667 16.3149 16.6667 14.8529V6.02941C16.6667 4.56744 15.4775 3.38235 14.0104 3.38235ZM15.7812 14.8529C15.7797 15.8266 14.9874 16.6161 14.0104 16.6176H5.15625C4.17924 16.6161 3.38694 15.8266 3.38542 14.8529V7.79412H15.7812V14.8529ZM15.7812 6.91176H3.38542V6.02941C3.38694 5.05578 4.17924 4.26623 5.15625 4.26471H6.04167V4.70588C6.04167 4.94929 6.24012 5.14706 6.48438 5.14706C6.72863 5.14706 6.92708 4.94929 6.92708 4.70588V4.26471H12.2396V4.70588C12.2396 4.94929 12.438 5.14706 12.6823 5.14706C12.9265 5.14706 13.125 4.94929 13.125 4.70588V4.26471H14.0104C14.9874 4.26623 15.7797 5.05578 15.7812 6.02941V6.91176ZM7.05684 12.9589C6.97543 12.8747 6.93083 12.7618 6.93284 12.6449C6.93484 12.5279 6.98328 12.4166 7.06753 12.3352C7.14992 12.2554 7.26027 12.2108 7.37513 12.2108C7.49 12.2108 7.60035 12.2554 7.68274 12.3352L9.10399 13.7515L12.3358 9.72464C12.4884 9.53448 12.7678 9.50406 12.9586 9.65619C13.1494 9.80832 13.18 10.0867 13.0273 10.2769L9.48563 14.6886C9.40625 14.786 9.29023 14.8469 9.16505 14.8529H9.14062C9.02308 14.8529 8.91011 14.8073 8.82768 14.7236L7.05684 12.9589Z" fill="white"/>
<path d="M13.125 3.38235H8.005V8.50235H13.125V3.38235ZM12.2396 3.38235V8.50235H17.3596V3.38235H12.2396ZM6.92708 3.38235H1.80708V8.50235H6.92708V3.38235ZM6.04167 3.38235V8.50235H11.1617V3.38235H6.04167ZM15.7812 14.8529L20.9012 14.861V14.8529H15.7812ZM14.0104 16.6176V21.7377L14.0184 21.7376L14.0104 16.6176ZM5.15625 16.6176L5.14828 21.7376H5.15625V16.6176ZM3.38542 14.8529H-1.73459L-1.73458 14.861L3.38542 14.8529ZM3.38542 7.79412V2.67412H-1.73458V7.79412H3.38542ZM15.7812 7.79412H20.9012V2.67412H15.7812V7.79412ZM15.7812 6.91176V12.0318H20.9012V6.91176H15.7812ZM3.38542 6.91176H-1.73458V12.0318H3.38542V6.91176ZM3.38542 6.02941L-1.73458 6.02138V6.02941H3.38542ZM5.15625 4.26471V-0.8553L5.14828 -0.855288L5.15625 4.26471ZM6.04167 4.26471H11.1617V-0.855294H6.04167V4.26471ZM6.92708 4.26471V-0.855294H1.80708V4.26471H6.92708ZM12.2396 4.26471H17.3596V-0.855294H12.2396V4.26471ZM13.125 4.26471V-0.855294H8.005V4.26471H13.125ZM14.0104 4.26471L14.0184 -0.855294H14.0104V4.26471ZM15.7812 6.02941H20.9013L20.9012 6.02138L15.7812 6.02941ZM7.05684 12.9589L3.37591 16.5177L3.40901 16.552L3.44274 16.5856L7.05684 12.9589ZM7.06753 12.3352L10.6248 16.0176L10.6285 16.014L7.06753 12.3352ZM7.68274 12.3352L11.2968 8.70854L11.2705 8.68226L11.2437 8.65637L7.68274 12.3352ZM9.10399 13.7515L5.48988 17.3782L9.52844 21.4028L13.0971 16.9562L9.10399 13.7515ZM12.3358 9.72464L8.34313 6.51945L8.34268 6.52L12.3358 9.72464ZM13.0273 10.2769L9.03467 7.07168V7.07168L13.0273 10.2769ZM9.48563 14.6886L13.4539 17.924L13.4661 17.909L13.4783 17.8938L9.48563 14.6886ZM9.16505 14.8529V19.9729H9.28942L9.41365 19.9669L9.16505 14.8529ZM8.82768 14.7236L12.4749 11.1303L12.4584 11.1136L12.4418 11.097L8.82768 14.7236ZM14.0104 3.38235V-1.73765H13.125V3.38235V8.50235H14.0104V3.38235ZM13.125 3.38235H18.245V2.94118H13.125H8.005V3.38235H13.125ZM13.125 2.94118H18.245C18.245 -0.146636 15.7375 -2.62 12.6823 -2.62V2.5V7.62C10.1156 7.62 8.005 5.54217 8.005 2.94118H13.125ZM12.6823 2.5V-2.62C9.62709 -2.62 7.11958 -0.146648 7.11958 2.94118H12.2396H17.3596C17.3596 5.54219 15.249 7.62 12.6823 7.62V2.5ZM12.2396 2.94118H7.11958V3.38235H12.2396H17.3596V2.94118H12.2396ZM12.2396 3.38235V-1.73765H6.92708V3.38235V8.50235H12.2396V3.38235ZM6.92708 3.38235H12.0471V2.94118H6.92708H1.80708V3.38235H6.92708ZM6.92708 2.94118H12.0471C12.0471 -0.146642 9.53958 -2.62 6.48438 -2.62V2.5V7.62C3.91767 7.62 1.80708 5.54218 1.80708 2.94118H6.92708ZM6.48438 2.5V-2.62C3.42918 -2.62 0.921667 -0.146654 0.921667 2.94118H6.04167H11.1617C11.1617 5.54219 9.05107 7.62 6.48438 7.62V2.5ZM6.04167 2.94118H0.921667V3.38235H6.04167H11.1617V2.94118H6.04167ZM6.04167 3.38235V-1.73765H5.15625V3.38235V8.50235H6.04167V3.38235ZM5.15625 3.38235V-1.73765C0.878256 -1.73765 -2.62 1.72303 -2.62 6.02941H2.5H7.62C7.62 7.41186 6.50016 8.50235 5.15625 8.50235V3.38235ZM2.5 6.02941H-2.62V14.8529H2.5H7.62V6.02941H2.5ZM2.5 14.8529H-2.62C-2.62 19.1593 0.878254 22.62 5.15625 22.62V17.5V12.38C6.50016 12.38 7.62 13.4705 7.62 14.8529H2.5ZM5.15625 17.5V22.62H14.0104V17.5V12.38H5.15625V17.5ZM14.0104 17.5V22.62C18.2884 22.62 21.7867 19.1593 21.7867 14.8529H16.6667H11.5467C11.5467 13.4705 12.6665 12.38 14.0104 12.38V17.5ZM16.6667 14.8529H21.7867V6.02941H16.6667H11.5467V14.8529H16.6667ZM16.6667 6.02941H21.7867C21.7867 1.72303 18.2884 -1.73765 14.0104 -1.73765V3.38235V8.50235C12.6665 8.50235 11.5467 7.41186 11.5467 6.02941H16.6667ZM15.7812 14.8529L10.6613 14.8449C10.6642 12.9805 12.1747 11.5005 14.0024 11.4977L14.0104 16.6176L14.0184 21.7376C17.8002 21.7318 20.8953 18.6727 20.9012 14.861L15.7812 14.8529ZM14.0104 16.6176V11.4976H5.15625V16.6176V21.7376H14.0104V16.6176ZM5.15625 16.6176L5.16422 11.4977C6.99199 11.5005 8.50249 12.9805 8.50541 14.8449L3.38542 14.8529L-1.73458 14.861C-1.7286 18.6727 1.36649 21.7318 5.14828 21.7376L5.15625 16.6176ZM3.38542 14.8529H8.50542V7.79412H3.38542H-1.73458V14.8529H3.38542ZM3.38542 7.79412V12.9141H15.7812V7.79412V2.67412H3.38542V7.79412ZM15.7812 7.79412H10.6613V14.8529H15.7812H20.9012V7.79412H15.7812ZM15.7812 6.91176V1.79176H3.38542V6.91176V12.0318H15.7812V6.91176ZM3.38542 6.91176H8.50542V6.02941H3.38542H-1.73458V6.91176H3.38542ZM3.38542 6.02941L8.50541 6.03744C8.50249 7.9019 6.99199 9.38185 5.16422 9.3847L5.15625 4.26471L5.14828 -0.855288C1.36649 -0.849399 -1.7286 2.20966 -1.73458 6.02138L3.38542 6.02941ZM5.15625 4.26471V9.38471H6.04167V4.26471V-0.855294H5.15625V4.26471ZM6.04167 4.26471H0.921667V4.70588H6.04167H11.1617V4.26471H6.04167ZM6.04167 4.70588H0.921667C0.921667 7.79371 3.42918 10.2671 6.48438 10.2671V5.14706V0.0270588C9.05107 0.0270588 11.1617 2.10487 11.1617 4.70588H6.04167ZM6.48438 5.14706V10.2671C9.53959 10.2671 12.0471 7.7937 12.0471 4.70588H6.92708H1.80708C1.80708 2.10488 3.91767 0.0270588 6.48438 0.0270588V5.14706ZM6.92708 4.70588H12.0471V4.26471H6.92708H1.80708V4.70588H6.92708ZM6.92708 4.26471V9.38471H12.2396V4.26471V-0.855294H6.92708V4.26471ZM12.2396 4.26471H7.11958V4.70588H12.2396H17.3596V4.26471H12.2396ZM12.2396 4.70588H7.11958C7.11958 7.7937 9.62709 10.2671 12.6823 10.2671V5.14706V0.0270588C15.249 0.0270588 17.3596 2.10487 17.3596 4.70588H12.2396ZM12.6823 5.14706V10.2671C15.7375 10.2671 18.245 7.79369 18.245 4.70588H13.125H8.005C8.005 2.10489 10.1156 0.0270588 12.6823 0.0270588V5.14706ZM13.125 4.70588H18.245V4.26471H13.125H8.005V4.70588H13.125ZM13.125 4.26471V9.38471H14.0104V4.26471V-0.855294H13.125V4.26471ZM14.0104 4.26471L14.0024 9.3847C12.1747 9.38185 10.6642 7.90189 10.6613 6.03744L15.7812 6.02941L20.9012 6.02138C20.8953 2.20967 17.8002 -0.849399 14.0184 -0.855288L14.0104 4.26471ZM15.7812 6.02941H10.6613V6.91176H15.7812H20.9012V6.02941H15.7812ZM7.05684 12.9589L10.7378 9.40012C11.5987 10.2906 12.0734 11.4887 12.0521 12.7326L6.93284 12.6449L1.81359 12.5572C1.78827 14.0348 2.35211 15.4588 3.37591 16.5177L7.05684 12.9589ZM6.93284 12.6449L12.0521 12.7326C12.0308 13.9763 11.5154 15.1572 10.6248 16.0176L7.06753 12.3352L3.51023 8.6528C2.45113 9.67593 1.8389 11.0795 1.81359 12.5572L6.93284 12.6449ZM7.06753 12.3352L10.6285 16.014C9.75418 16.8603 8.58685 17.3308 7.37513 17.3308V12.2108V7.09082C5.93368 7.09082 4.54567 7.65053 3.50654 8.65637L7.06753 12.3352ZM7.37513 12.2108V17.3308C6.16343 17.3308 4.99609 16.8604 4.12175 16.014L7.68274 12.3352L11.2437 8.65637C10.2046 7.65052 8.81657 7.09082 7.37513 7.09082V12.2108ZM7.68274 12.3352L4.06863 15.9618L5.48988 17.3782L9.10399 13.7515L12.7181 10.1249L11.2968 8.70854L7.68274 12.3352ZM9.10399 13.7515L13.0971 16.9562L16.3288 12.9293L12.3358 9.72464L8.34268 6.52L5.11091 10.5469L9.10399 13.7515ZM12.3358 9.72464L16.3284 12.9298C14.7061 14.9507 11.7706 15.257 9.76693 13.6596L12.9586 9.65619L16.1503 5.65274C13.7649 3.75107 10.2707 4.11829 8.34313 6.51945L12.3358 9.72464ZM12.9586 9.65619L9.76693 13.6596C7.73585 12.0404 7.41737 9.08631 9.03467 7.07168L13.0273 10.2769L17.0199 13.4821C18.9425 11.0871 18.563 7.57623 16.1503 5.65274L12.9586 9.65619ZM13.0273 10.2769L9.03467 7.07168L5.493 11.4834L9.48563 14.6886L13.4783 17.8938L17.0199 13.4821L13.0273 10.2769ZM9.48563 14.6886L5.51741 11.4533C6.31521 10.4748 7.52904 9.80643 8.91645 9.73898L9.16505 14.8529L9.41365 19.9669C11.0514 19.8873 12.4973 19.0972 13.4539 17.924L9.48563 14.6886ZM9.16505 14.8529V9.73294H9.14062V14.8529V19.9729H9.16505V14.8529ZM9.14062 14.8529V9.73294C10.3444 9.73294 11.5607 10.2024 12.4749 11.1303L8.82768 14.7236L5.18045 18.317C6.25954 19.4123 7.70173 19.9729 9.14062 19.9729V14.8529ZM8.82768 14.7236L12.4418 11.097L10.671 9.33227L7.05684 12.9589L3.44274 16.5856L5.21357 18.3503L8.82768 14.7236Z" fill="#009AA0" mask="url(#path-1-inside-1_40000162_33352)"/>
</svg>
