<svg width="24" height="24" viewBox="0 0 24 24" fill="none" xmlns="http://www.w3.org/2000/svg">
<path d="M5.25 10.2C5.25 6.8061 5.25 5.1087 6.3048 4.0548C7.3596 3.0009 9.0561 3 12.45 3H13.8C17.1939 3 18.8913 3 19.9452 4.0548C20.9991 5.1096 21 6.8061 21 10.2V13.8C21 17.1939 21 18.8913 19.9452 19.9452C18.8904 20.9991 17.1939 21 13.8 21H12.45C9.0561 21 7.3587 21 6.3048 19.9452C5.2509 18.8904 5.25 17.1939 5.25 13.8V10.2Z" stroke="#0F0E40" stroke-width="1.2"/>
<path d="M5.25 6.6001H3M5.25 12.0001H3M5.25 17.4001H3M14.9475 8.8438C14.9475 9.32119 14.7579 9.77902 14.4203 10.1166C14.0827 10.4542 13.6249 10.6438 13.1475 10.6438C12.6701 10.6438 12.2123 10.4542 11.8747 10.1166C11.5371 9.77902 11.3475 9.32119 11.3475 8.8438C11.3475 8.36641 11.5371 7.90857 11.8747 7.57101C12.2123 7.23344 12.6701 7.0438 13.1475 7.0438C13.6249 7.0438 14.0827 7.23344 14.4203 7.57101C14.7579 7.90857 14.9475 8.36641 14.9475 8.8438ZM9.588 15.3445C10.5402 13.8775 12.0531 13.3285 13.1475 13.3294C14.2419 13.3303 15.7098 13.8784 16.6629 15.3454C16.6948 15.3899 16.7138 15.4424 16.7178 15.497C16.7218 15.5517 16.7106 15.6063 16.6854 15.655C16.4631 16.0501 15.771 16.834 15.2724 16.8871C14.6982 16.9474 13.1961 16.9564 13.1484 16.9564C13.1007 16.9564 11.5527 16.9474 10.9794 16.8871C10.479 16.8331 9.7878 16.0501 9.5646 15.6541C9.5097 15.556 9.5259 15.4399 9.588 15.3445Z" stroke="#0F0E40" stroke-width="1.2" stroke-linecap="round" stroke-linejoin="round"/>
</svg>
