<svg width="24" height="24" viewBox="0 0 24 24" fill="none" xmlns="http://www.w3.org/2000/svg">
<path d="M18.2246 12.8784H14.6638C14.1918 12.8779 13.7389 13.0646 13.4044 13.3976C13.0698 13.7306 12.881 14.1826 12.8793 14.6546V18.2155C12.8791 18.4499 12.925 18.682 13.0146 18.8987C13.1042 19.1153 13.2357 19.3121 13.4014 19.4779C13.5672 19.6436 13.764 19.7751 13.9806 19.8647C14.1973 19.9542 14.4294 20.0002 14.6638 20H18.2246C18.6965 19.9981 19.1483 19.8091 19.4811 19.4746C19.8139 19.1401 20.0005 18.6873 20 18.2155V14.6546C20.0002 14.4214 19.9545 14.1905 19.8654 13.975C19.7762 13.7595 19.6455 13.5637 19.4806 13.3987C19.3156 13.2338 19.1198 13.1031 18.9043 13.0139C18.6888 12.9248 18.4579 12.8791 18.2246 12.8793M8.33616 12.8784H4.77535C4.30357 12.881 3.85203 13.0703 3.51937 13.4049C3.18672 13.7394 2.99999 14.1921 3 14.6638V18.2246C2.99976 18.4579 3.04551 18.6888 3.13465 18.9043C3.22378 19.1198 3.35455 19.3156 3.51945 19.4806C3.68435 19.6455 3.88016 19.7762 4.09567 19.8654C4.31117 19.9545 4.54214 20.0002 4.77535 20H8.33616C8.80801 20.0005 9.26081 19.8139 9.59532 19.4811C9.92983 19.1483 10.1188 18.6965 10.1207 18.2246V14.6638C10.1209 14.4294 10.075 14.1973 9.98536 13.9806C9.89576 13.764 9.76432 13.5672 9.59856 13.4014C9.4328 13.2357 9.23598 13.1042 9.01936 13.0146C8.80274 12.925 8.57058 12.8791 8.33616 12.8793M8.33616 3H4.77535C4.54214 2.99976 4.31117 3.04551 4.09567 3.13465C3.88016 3.22378 3.68435 3.35455 3.51945 3.51945C3.35455 3.68435 3.22378 3.88016 3.13465 4.09567C3.04551 4.31117 2.99976 4.54214 3 4.77535V8.33616C2.99951 8.80801 3.18611 9.26081 3.51889 9.59532C3.85168 9.92983 4.30351 10.1188 4.77535 10.1207H8.33616C8.57058 10.1209 8.80274 10.075 9.01936 9.98536C9.23598 9.89576 9.4328 9.76432 9.59856 9.59856C9.76432 9.4328 9.89576 9.23598 9.98536 9.01936C10.075 8.80274 10.1209 8.57058 10.1207 8.33616V4.77535C10.1188 4.30351 9.92983 3.85168 9.59532 3.51889C9.26081 3.18611 8.80801 2.99951 8.33616 3ZM18.2246 3H14.6638C14.192 2.99951 13.7392 3.18611 13.4047 3.51889C13.0702 3.85168 12.8812 4.30351 12.8793 4.77535V8.33616C12.8795 8.80938 13.0676 9.26314 13.4022 9.59775C13.7369 9.93237 14.1906 10.1205 14.6638 10.1207H18.2246C18.6965 10.1188 19.1483 9.92983 19.4811 9.59532C19.8139 9.26081 20.0005 8.80801 20 8.33616V4.77535C20.0002 4.54214 19.9545 4.31117 19.8654 4.09567C19.7762 3.88016 19.6455 3.68435 19.4806 3.51945C19.3156 3.35455 19.1198 3.22378 18.9043 3.13465C18.6888 3.04551 18.4579 2.99976 18.2246 3Z" stroke="#0F0E40" stroke-linecap="round" stroke-linejoin="round"/>
</svg>
