<svg width="24" height="24" viewBox="0 0 24 24" fill="none" xmlns="http://www.w3.org/2000/svg">
<path d="M5 21V20.1C5 18.4179 5 17.5764 5.35175 16.95C5.58213 16.5396 5.91348 16.1988 6.3125 15.9618C6.9215 15.6 7.73875 15.6 9.375 15.6L12 19.2L14.625 15.6C16.2613 15.6 17.0785 15.6 17.6875 15.9618C18.0865 16.1988 18.4179 16.5396 18.6482 16.95C19 17.5764 19 18.4179 19 20.1V21M15.4449 8.4L16.3356 4.6776C16.5395 3.8253 15.9226 3 15.0826 3H8.91738C8.07738 3 7.4605 3.8253 7.66438 4.6776L8.55512 8.4M15.4449 8.4V10.2C15.4449 12.1881 13.9031 13.8 12 13.8C10.0969 13.8 8.55512 12.1881 8.55512 10.2V8.4M15.4449 8.4H8.55512M12 4.8V6.6M12.875 5.7H11.125" stroke="#0F0E40" stroke-width="1.2" stroke-linecap="round" stroke-linejoin="round"/>
</svg>
