<svg width="32" height="32" viewBox="0 0 32 32" fill="none" xmlns="http://www.w3.org/2000/svg">
<path d="M10.2423 30.4001C10.6861 30.4001 11.1405 30.3975 11.6049 30.3975H20.3943C20.858 30.3975 21.3124 30.4001 21.7562 30.4001C25.8231 30.4001 28.9306 30.1921 28.9306 25.9406C28.9306 21.4907 25.5274 17.8375 21.1812 17.4404C21.1466 18.9972 16.001 22.8392 16.001 22.8392C16.001 22.8392 10.8541 18.9975 10.8193 17.4407C6.47366 17.8375 3.06982 21.4907 3.06982 25.9406C3.06982 30.1921 6.17606 30.4001 10.2423 30.4001ZM19.8401 24.5944C19.8401 24.4676 19.9543 24.3655 20.0964 24.3655H21.4865V22.9761C21.4865 22.8353 21.5879 22.7198 21.7146 22.7198H23.0865C23.2125 22.7198 23.3146 22.8344 23.3146 22.9761V24.3659H24.7041C24.8449 24.3659 24.9601 24.468 24.9601 24.5947V25.9659C24.9601 26.0926 24.8458 26.1947 24.7041 26.1947H23.3143V27.5841C23.3143 27.7255 23.2119 27.8401 23.0855 27.8401H21.7143C21.5876 27.8401 21.4855 27.7259 21.4855 27.5841V26.1944H20.0961C19.9546 26.1944 19.8397 26.0923 19.8397 25.9655L19.8401 24.5944Z" fill="#009AA0"/>
<path d="M16.0027 18.557C19.9336 18.557 23.1198 12.6463 23.1198 8.71577C23.1198 4.78585 19.9336 1.59961 16.0027 1.59961C12.0725 1.59961 8.88623 4.78585 8.88623 8.71577C8.88623 12.6463 12.0725 18.557 16.0027 18.557Z" fill="#009AA0"/>
</svg>
