<svg width="20" height="20" viewBox="0 0 20 20" fill="none" xmlns="http://www.w3.org/2000/svg">
<mask id="path-1-inside-1_40001624_14525" fill="white">
<path fill-rule="evenodd" clip-rule="evenodd" d="M10.4168 3.2792C9.9388 3.2792 9.46875 3.43321 8.29546 3.83424L7.87991 3.97663C6.78072 4.35296 5.97939 4.62757 5.41709 4.85569C5.20143 4.93914 4.99171 5.0372 4.78939 5.1492C4.73697 5.17967 4.6865 5.2134 4.63828 5.25018C4.62386 5.26102 4.61049 5.27318 4.59833 5.2865C4.58879 5.3036 4.581 5.32161 4.57508 5.34027C4.56055 5.37998 4.54529 5.44004 4.52931 5.52044C4.48914 5.75049 4.46487 5.98303 4.45666 6.21642C4.42324 6.8274 4.42324 7.68031 4.42324 8.84924V9.99274C4.42324 13.7531 7.23478 15.6035 9.10841 16.4215C9.37794 16.5392 9.53414 16.606 9.70777 16.6504C9.87341 16.6932 10.0754 16.7194 10.4168 16.7194C10.7583 16.7194 10.9602 16.6932 11.1259 16.6504C11.3002 16.6068 11.4557 16.5392 11.7252 16.4215C13.5996 15.6035 16.4104 13.7524 16.4104 9.99274V8.84924C16.4104 7.68031 16.4104 6.8274 16.377 6.21642C16.3688 5.98303 16.3445 5.75049 16.3044 5.52044C16.293 5.45946 16.2777 5.39928 16.2586 5.34027C16.2527 5.32161 16.2449 5.3036 16.2353 5.2865C16.2232 5.27318 16.2098 5.26102 16.1954 5.25018C16.1472 5.21315 16.0967 5.17918 16.0443 5.14847C15.8419 5.03697 15.6322 4.9394 15.4166 4.85642C14.8543 4.62757 14.0529 4.35296 12.9538 3.97736L12.5375 3.83424C11.3649 3.43321 10.8949 3.2792 10.4168 3.2792ZM8.0361 2.77138C9.08516 2.41249 9.7361 2.18945 10.4168 2.18945C11.0976 2.18945 11.7485 2.41249 12.7976 2.77138L12.8905 2.80334L13.3257 2.95227C14.4017 3.32061 15.2328 3.60539 15.827 3.84659C16.1264 3.96791 16.3843 4.08633 16.5913 4.20621C16.7911 4.32244 16.9909 4.46702 17.1267 4.66099C17.2611 4.85206 17.3309 5.08744 17.3745 5.31484C17.4202 5.55022 17.4471 5.83283 17.4653 6.15757C17.5002 6.80125 17.5002 7.68467 17.5002 8.82963V9.99274C17.5002 14.4251 14.1525 16.5501 12.1619 17.4204L12.1423 17.4284C11.8952 17.5367 11.6628 17.6377 11.3961 17.706C11.115 17.7786 10.8157 17.8091 10.4168 17.8091C10.0173 17.8091 9.71939 17.7786 9.43751 17.706C9.17089 17.6377 8.93841 17.5367 8.6914 17.4284L8.67179 17.4204C6.68119 16.5501 3.3335 14.4251 3.3335 9.99202V8.82963C3.3335 7.68467 3.3335 6.80125 3.36837 6.15685C3.38653 5.83283 3.41341 5.55022 3.45918 5.31411C3.50277 5.08744 3.57251 4.85206 3.70619 4.66027C3.84277 4.46702 4.04256 4.32244 4.24234 4.20621C4.44939 4.08633 4.7073 3.96791 5.00662 3.84659C5.60089 3.60539 6.432 3.32061 7.50794 2.953L7.94311 2.80334L8.0361 2.77138ZM10.4168 7.02138C10.2923 7.2175 10.175 7.41815 10.0652 7.62292L9.97076 7.79364L9.94897 7.83287C9.86905 7.97672 9.76226 8.17142 9.58572 8.30509C9.40482 8.4424 9.1876 8.49035 9.03213 8.5245L8.98999 8.53394L8.80474 8.57535C8.46692 8.65236 8.25623 8.70104 8.11456 8.75044C8.20174 8.88193 8.34922 9.05556 8.58751 9.33381L8.71392 9.48129L8.74298 9.51544C8.84978 9.63894 8.9929 9.80458 9.05828 10.0167C9.12367 10.2274 9.10187 10.4446 9.08516 10.6103L9.0808 10.6553L9.06119 10.8522C9.02704 11.2038 9.0067 11.4312 9.0067 11.5918C9.14692 11.5424 9.33798 11.4552 9.63003 11.3208L9.80294 11.2409L9.8429 11.2227C9.98674 11.1551 10.1902 11.06 10.4168 11.06C10.6435 11.06 10.8469 11.1551 10.9908 11.2227L11.0307 11.2416L11.2036 11.3215C11.4957 11.4552 11.6867 11.5424 11.827 11.5918C11.827 11.4312 11.8066 11.2038 11.7725 10.8522L11.7529 10.656L11.7485 10.6103C11.7318 10.4446 11.71 10.2274 11.7754 10.0167C11.8408 9.80458 11.9839 9.63894 12.0914 9.51544L12.1205 9.48129L12.2461 9.33381C12.4844 9.05556 12.6312 8.88193 12.7184 8.75044C12.5774 8.70104 12.3667 8.65236 12.0282 8.57608L11.8437 8.53394L11.8015 8.5245C11.6461 8.49035 11.4288 8.4424 11.2487 8.30509C11.0714 8.17142 10.9646 7.97672 10.8854 7.83287L10.8636 7.79364L10.7685 7.62292C10.6587 7.4179 10.5414 7.21773 10.4168 7.02138ZM9.60533 6.28253C9.76226 6.07766 10.018 5.82121 10.4168 5.82121C10.8157 5.82121 11.0714 6.07766 11.2283 6.28253C11.3787 6.47941 11.5335 6.75693 11.7013 7.0577L11.7202 7.09112L11.8146 7.26185L11.9112 7.42894L11.9585 7.44129L12.0841 7.47035L12.2694 7.51176L12.3072 7.52048C12.6319 7.59386 12.9349 7.66215 13.1637 7.75296C13.4107 7.85031 13.7108 8.02612 13.8263 8.39736C13.9403 8.76279 13.8001 9.07809 13.6592 9.30257C13.5262 9.51326 13.3214 9.753 13.0991 10.0131L13.0744 10.0421L12.9479 10.1889L12.8622 10.2906L12.8208 10.3422C12.8246 10.4116 12.8304 10.4809 12.8382 10.55L12.86 10.7832C12.8942 11.1319 12.9254 11.4494 12.9138 11.6993C12.9022 11.9594 12.8411 12.3081 12.5317 12.542C12.2142 12.7839 11.8589 12.7367 11.6068 12.6641C11.3707 12.5965 11.0874 12.4665 10.7837 12.3262L10.7481 12.3103L10.5752 12.2304L10.4168 12.1592L10.3769 12.1766L10.2585 12.2304L10.0855 12.3103L10.0499 12.3262C9.74627 12.4665 9.46294 12.5965 9.22683 12.6641C8.97474 12.7367 8.61948 12.7839 8.302 12.542C7.99251 12.3081 7.93149 11.9594 7.91986 11.6993C7.90824 11.4494 7.93948 11.1319 7.9729 10.7839L7.97653 10.7461L7.99542 10.55C8.00632 10.4395 8.0114 10.3829 8.01286 10.3422L7.97144 10.2906L7.88572 10.1889L7.75931 10.0414L7.73461 10.0131C7.5123 9.753 7.30743 9.51326 7.17521 9.30257C7.03354 9.07809 6.89333 8.76279 7.00739 8.39736C7.1229 8.02685 7.42221 7.85031 7.66995 7.75296C7.8988 7.66215 8.20174 7.59386 8.52721 7.52048L8.56427 7.51176L8.74952 7.47035L8.92315 7.42894L8.95221 7.37881L9.01833 7.26257L9.1135 7.09112L9.13239 7.0577C9.29948 6.75693 9.45495 6.47941 9.60533 6.28253Z"/>
</mask>
<path fill-rule="evenodd" clip-rule="evenodd" d="M10.4168 3.2792C9.9388 3.2792 9.46875 3.43321 8.29546 3.83424L7.87991 3.97663C6.78072 4.35296 5.97939 4.62757 5.41709 4.85569C5.20143 4.93914 4.99171 5.0372 4.78939 5.1492C4.73697 5.17967 4.6865 5.2134 4.63828 5.25018C4.62386 5.26102 4.61049 5.27318 4.59833 5.2865C4.58879 5.3036 4.581 5.32161 4.57508 5.34027C4.56055 5.37998 4.54529 5.44004 4.52931 5.52044C4.48914 5.75049 4.46487 5.98303 4.45666 6.21642C4.42324 6.8274 4.42324 7.68031 4.42324 8.84924V9.99274C4.42324 13.7531 7.23478 15.6035 9.10841 16.4215C9.37794 16.5392 9.53414 16.606 9.70777 16.6504C9.87341 16.6932 10.0754 16.7194 10.4168 16.7194C10.7583 16.7194 10.9602 16.6932 11.1259 16.6504C11.3002 16.6068 11.4557 16.5392 11.7252 16.4215C13.5996 15.6035 16.4104 13.7524 16.4104 9.99274V8.84924C16.4104 7.68031 16.4104 6.8274 16.377 6.21642C16.3688 5.98303 16.3445 5.75049 16.3044 5.52044C16.293 5.45946 16.2777 5.39928 16.2586 5.34027C16.2527 5.32161 16.2449 5.3036 16.2353 5.2865C16.2232 5.27318 16.2098 5.26102 16.1954 5.25018C16.1472 5.21315 16.0967 5.17918 16.0443 5.14847C15.8419 5.03697 15.6322 4.9394 15.4166 4.85642C14.8543 4.62757 14.0529 4.35296 12.9538 3.97736L12.5375 3.83424C11.3649 3.43321 10.8949 3.2792 10.4168 3.2792ZM8.0361 2.77138C9.08516 2.41249 9.7361 2.18945 10.4168 2.18945C11.0976 2.18945 11.7485 2.41249 12.7976 2.77138L12.8905 2.80334L13.3257 2.95227C14.4017 3.32061 15.2328 3.60539 15.827 3.84659C16.1264 3.96791 16.3843 4.08633 16.5913 4.20621C16.7911 4.32244 16.9909 4.46702 17.1267 4.66099C17.2611 4.85206 17.3309 5.08744 17.3745 5.31484C17.4202 5.55022 17.4471 5.83283 17.4653 6.15757C17.5002 6.80125 17.5002 7.68467 17.5002 8.82963V9.99274C17.5002 14.4251 14.1525 16.5501 12.1619 17.4204L12.1423 17.4284C11.8952 17.5367 11.6628 17.6377 11.3961 17.706C11.115 17.7786 10.8157 17.8091 10.4168 17.8091C10.0173 17.8091 9.71939 17.7786 9.43751 17.706C9.17089 17.6377 8.93841 17.5367 8.6914 17.4284L8.67179 17.4204C6.68119 16.5501 3.3335 14.4251 3.3335 9.99202V8.82963C3.3335 7.68467 3.3335 6.80125 3.36837 6.15685C3.38653 5.83283 3.41341 5.55022 3.45918 5.31411C3.50277 5.08744 3.57251 4.85206 3.70619 4.66027C3.84277 4.46702 4.04256 4.32244 4.24234 4.20621C4.44939 4.08633 4.7073 3.96791 5.00662 3.84659C5.60089 3.60539 6.432 3.32061 7.50794 2.953L7.94311 2.80334L8.0361 2.77138ZM10.4168 7.02138C10.2923 7.2175 10.175 7.41815 10.0652 7.62292L9.97076 7.79364L9.94897 7.83287C9.86905 7.97672 9.76226 8.17142 9.58572 8.30509C9.40482 8.4424 9.1876 8.49035 9.03213 8.5245L8.98999 8.53394L8.80474 8.57535C8.46692 8.65236 8.25623 8.70104 8.11456 8.75044C8.20174 8.88193 8.34922 9.05556 8.58751 9.33381L8.71392 9.48129L8.74298 9.51544C8.84978 9.63894 8.9929 9.80458 9.05828 10.0167C9.12367 10.2274 9.10187 10.4446 9.08516 10.6103L9.0808 10.6553L9.06119 10.8522C9.02704 11.2038 9.0067 11.4312 9.0067 11.5918C9.14692 11.5424 9.33798 11.4552 9.63003 11.3208L9.80294 11.2409L9.8429 11.2227C9.98674 11.1551 10.1902 11.06 10.4168 11.06C10.6435 11.06 10.8469 11.1551 10.9908 11.2227L11.0307 11.2416L11.2036 11.3215C11.4957 11.4552 11.6867 11.5424 11.827 11.5918C11.827 11.4312 11.8066 11.2038 11.7725 10.8522L11.7529 10.656L11.7485 10.6103C11.7318 10.4446 11.71 10.2274 11.7754 10.0167C11.8408 9.80458 11.9839 9.63894 12.0914 9.51544L12.1205 9.48129L12.2461 9.33381C12.4844 9.05556 12.6312 8.88193 12.7184 8.75044C12.5774 8.70104 12.3667 8.65236 12.0282 8.57608L11.8437 8.53394L11.8015 8.5245C11.6461 8.49035 11.4288 8.4424 11.2487 8.30509C11.0714 8.17142 10.9646 7.97672 10.8854 7.83287L10.8636 7.79364L10.7685 7.62292C10.6587 7.4179 10.5414 7.21773 10.4168 7.02138ZM9.60533 6.28253C9.76226 6.07766 10.018 5.82121 10.4168 5.82121C10.8157 5.82121 11.0714 6.07766 11.2283 6.28253C11.3787 6.47941 11.5335 6.75693 11.7013 7.0577L11.7202 7.09112L11.8146 7.26185L11.9112 7.42894L11.9585 7.44129L12.0841 7.47035L12.2694 7.51176L12.3072 7.52048C12.6319 7.59386 12.9349 7.66215 13.1637 7.75296C13.4107 7.85031 13.7108 8.02612 13.8263 8.39736C13.9403 8.76279 13.8001 9.07809 13.6592 9.30257C13.5262 9.51326 13.3214 9.753 13.0991 10.0131L13.0744 10.0421L12.9479 10.1889L12.8622 10.2906L12.8208 10.3422C12.8246 10.4116 12.8304 10.4809 12.8382 10.55L12.86 10.7832C12.8942 11.1319 12.9254 11.4494 12.9138 11.6993C12.9022 11.9594 12.8411 12.3081 12.5317 12.542C12.2142 12.7839 11.8589 12.7367 11.6068 12.6641C11.3707 12.5965 11.0874 12.4665 10.7837 12.3262L10.7481 12.3103L10.5752 12.2304L10.4168 12.1592L10.3769 12.1766L10.2585 12.2304L10.0855 12.3103L10.0499 12.3262C9.74627 12.4665 9.46294 12.5965 9.22683 12.6641C8.97474 12.7367 8.61948 12.7839 8.302 12.542C7.99251 12.3081 7.93149 11.9594 7.91986 11.6993C7.90824 11.4494 7.93948 11.1319 7.9729 10.7839L7.97653 10.7461L7.99542 10.55C8.00632 10.4395 8.0114 10.3829 8.01286 10.3422L7.97144 10.2906L7.88572 10.1889L7.75931 10.0414L7.73461 10.0131C7.5123 9.753 7.30743 9.51326 7.17521 9.30257C7.03354 9.07809 6.89333 8.76279 7.00739 8.39736C7.1229 8.02685 7.42221 7.85031 7.66995 7.75296C7.8988 7.66215 8.20174 7.59386 8.52721 7.52048L8.56427 7.51176L8.74952 7.47035L8.92315 7.42894L8.95221 7.37881L9.01833 7.26257L9.1135 7.09112L9.13239 7.0577C9.29948 6.75693 9.45495 6.47941 9.60533 6.28253Z" fill="#009AA0"/>
<path d="M11.981 11.6339V12.1339H11.9824V11.6339V11.1339H11.981V11.6339ZM8.85123 11.6339V12.1339H8.85268V11.6339V11.1339H8.85123V11.6339ZM8.29546 3.83424L7.97204 2.88799L7.97131 2.88824L8.29546 3.83424ZM7.87991 3.97663L8.20382 4.92272L8.20406 4.92264L7.87991 3.97663ZM5.41709 4.85569L5.77796 5.78831L5.78551 5.78539L5.79301 5.78234L5.41709 4.85569ZM4.78939 5.1492L4.30509 4.2743L4.29592 4.27937L4.28686 4.28464L4.78939 5.1492ZM4.63828 5.25018L5.23931 6.04944L5.24482 6.04524L4.63828 5.25018ZM4.59833 5.2865L3.85981 4.61227L3.78165 4.69788L3.72514 4.79911L4.59833 5.2865ZM4.57508 5.34027L5.5142 5.68385L5.52168 5.6634L5.52826 5.64266L4.57508 5.34027ZM4.52931 5.52044L3.5485 5.32546L3.54622 5.33692L3.54421 5.34843L4.52931 5.52044ZM4.45666 6.21642L5.45517 6.27103L5.4557 6.2613L5.45604 6.25156L4.45666 6.21642ZM9.10841 16.4215L9.50858 15.5051L9.50854 15.505L9.10841 16.4215ZM9.70777 16.6504L9.95829 15.6822L9.95507 15.6814L9.70777 16.6504ZM11.1259 16.6504L10.8833 15.6802L10.8754 15.6822L11.1259 16.6504ZM11.7252 16.4215L11.3252 15.505L11.3251 15.5051L11.7252 16.4215ZM16.377 6.21642L15.3776 6.25156L15.378 6.2613L15.3785 6.27103L16.377 6.21642ZM16.3044 5.52044L17.2895 5.34842L17.2873 5.33673L16.3044 5.52044ZM16.2586 5.34027L15.3054 5.64266L15.3071 5.64797L16.2586 5.34027ZM16.2353 5.2865L17.1085 4.79911L17.052 4.69788L16.9738 4.61227L16.2353 5.2865ZM16.1954 5.25018L15.5861 6.04318L15.5944 6.04942L16.1954 5.25018ZM16.0443 5.14847L16.5495 4.28551L16.5383 4.27892L16.5269 4.27262L16.0443 5.14847ZM15.4166 4.85642L15.0396 5.78265L15.0485 5.78626L15.0574 5.7897L15.4166 4.85642ZM12.9538 3.97736L12.6286 4.92303L12.6304 4.92364L12.9538 3.97736ZM12.5375 3.83424L12.8626 2.88857L12.8611 2.88805L12.5375 3.83424ZM8.0361 2.77138L7.71241 1.82521L7.71102 1.82569L8.0361 2.77138ZM12.7976 2.77138L13.1226 1.82569L13.1212 1.82521L12.7976 2.77138ZM12.8905 2.80334L12.5655 3.74903L12.5667 3.74947L12.8905 2.80334ZM13.3257 2.95227L13.6496 2.00618L13.6495 2.00615L13.3257 2.95227ZM15.827 3.84659L15.451 4.77318L15.4514 4.77335L15.827 3.84659ZM16.5913 4.20621L17.0942 3.34186L17.0924 3.34078L16.5913 4.20621ZM17.1267 4.66099L16.3077 5.23466L16.3088 5.23633L17.1267 4.66099ZM17.3745 5.31484L16.3924 5.5031L16.3929 5.50571L17.3745 5.31484ZM17.4653 6.15757L18.4638 6.10348L18.4637 6.10173L17.4653 6.15757ZM12.1619 17.4204L12.5392 18.3465L12.5509 18.3418L12.5625 18.3367L12.1619 17.4204ZM12.1423 17.4284L11.765 16.5023L11.7529 16.5073L11.7409 16.5125L12.1423 17.4284ZM11.3961 17.706L11.148 16.7372L11.146 16.7378L11.3961 17.706ZM9.43751 17.706L9.68709 16.7376L9.68564 16.7372L9.43751 17.706ZM8.6914 17.4284L9.09279 16.5125L9.0808 16.5073L9.06868 16.5023L8.6914 17.4284ZM8.67179 17.4204L8.27118 18.3367L8.28278 18.3418L8.2945 18.3465L8.67179 17.4204ZM3.36837 6.15685L2.36993 6.10088L2.36983 6.10281L3.36837 6.15685ZM3.45918 5.31411L4.44091 5.50442L4.44119 5.50296L3.45918 5.31411ZM3.70619 4.66027L2.88954 4.08309L2.88579 4.08847L3.70619 4.66027ZM4.24234 4.20621L3.7413 3.34078L3.73945 3.34186L4.24234 4.20621ZM5.00662 3.84659L5.38227 4.77335L5.38269 4.77318L5.00662 3.84659ZM7.50794 2.953L7.83125 3.89929L7.83315 3.89864L7.50794 2.953ZM7.94311 2.80334L7.61803 1.85766L7.6179 1.8577L7.94311 2.80334ZM10.4168 7.02138L11.2612 6.48564L10.4173 5.15551L9.57271 6.48523L10.4168 7.02138ZM10.0652 7.62292L10.9403 8.10702L10.9466 8.09537L10.0652 7.62292ZM9.97076 7.79364L10.8449 8.27928L10.8458 8.2777L9.97076 7.79364ZM9.94897 7.83287L10.8231 8.31852L10.8231 8.31851L9.94897 7.83287ZM9.58572 8.30509L8.98205 7.50786L8.98112 7.50856L9.58572 8.30509ZM9.03213 8.5245L8.81761 7.54777L8.81342 7.54871L9.03213 8.5245ZM8.98999 8.53394L9.20814 9.50986L9.2087 9.50973L8.98999 8.53394ZM8.80474 8.57535L8.58659 7.59943L8.58248 7.60036L8.80474 8.57535ZM8.11456 8.75044L7.78529 7.8062L6.56976 8.23008L7.2811 9.30301L8.11456 8.75044ZM8.58751 9.33381L7.82798 9.98428L7.82826 9.9846L8.58751 9.33381ZM8.71392 9.48129L9.47547 8.83317L9.47318 8.8305L8.71392 9.48129ZM8.74298 9.51544L7.98142 10.1636L7.98656 10.1695L8.74298 9.51544ZM9.05828 10.0167L8.10264 10.3113L8.10322 10.3131L9.05828 10.0167ZM9.08516 10.6103L8.0902 10.5099L8.08981 10.5139L9.08516 10.6103ZM9.0808 10.6553L10.0759 10.7545L10.0762 10.7516L9.0808 10.6553ZM9.06119 10.8522L8.06611 10.753L8.06587 10.7555L9.06119 10.8522ZM9.0067 11.5918H8.0067V13.0043L9.33901 12.5349L9.0067 11.5918ZM9.63003 11.3208L10.0481 12.2292L10.0496 12.2285L9.63003 11.3208ZM9.80294 11.2409L9.38914 10.3305L9.3834 10.3331L9.80294 11.2409ZM9.8429 11.2227L10.2567 12.1331L10.268 12.1278L9.8429 11.2227ZM10.9908 11.2227L11.4181 10.3186L11.4159 10.3176L10.9908 11.2227ZM11.0307 11.2416L10.6033 12.1457L10.6112 12.1493L11.0307 11.2416ZM11.2036 11.3215L10.7841 12.2292L10.7874 12.2308L11.2036 11.3215ZM11.827 11.5918L11.4946 12.5349L12.827 13.0043V11.5918H11.827ZM11.7725 10.8522L12.7678 10.7555L12.7675 10.7527L11.7725 10.8522ZM11.7529 10.656L10.7573 10.7508L10.7578 10.7555L11.7529 10.656ZM11.7485 10.6103L12.744 10.5155L12.7434 10.5099L11.7485 10.6103ZM11.7754 10.0167L12.7304 10.3131L12.731 10.3113L11.7754 10.0167ZM12.0914 9.51544L12.8457 10.1721L12.8529 10.1636L12.0914 9.51544ZM12.1205 9.48129L11.3594 8.83267L11.3589 8.83317L12.1205 9.48129ZM12.2461 9.33381L11.4866 8.68335L11.485 8.68519L12.2461 9.33381ZM12.7184 8.75044L13.5518 9.30301L14.262 8.23185L13.0492 7.80673L12.7184 8.75044ZM12.0282 8.57608L11.8056 9.55099L11.8084 9.55162L12.0282 8.57608ZM11.8437 8.53394L12.0663 7.55903L12.0624 7.55815L11.8437 8.53394ZM11.8015 8.5245L12.0202 7.5487L12.016 7.54778L11.8015 8.5245ZM11.2487 8.30509L11.8548 7.50973L11.8508 7.50667L11.2487 8.30509ZM10.8854 7.83287L11.7615 7.35061L11.7596 7.34722L10.8854 7.83287ZM10.8636 7.79364L11.7378 7.30799L11.7371 7.30674L10.8636 7.79364ZM10.7685 7.62292L9.88684 8.09488L9.89085 8.10239L9.895 8.10982L10.7685 7.62292ZM9.60533 6.28253L8.81146 5.67445L8.81064 5.67552L9.60533 6.28253ZM11.2283 6.28253L12.023 5.67552L12.0222 5.67445L11.2283 6.28253ZM11.7013 7.0577L10.828 7.54496L10.8307 7.54976L11.7013 7.0577ZM11.7202 7.09112L12.5952 6.60704L12.5907 6.59906L11.7202 7.09112ZM11.8146 7.26185L10.9396 7.74591L10.9442 7.75422L10.9489 7.76244L11.8146 7.26185ZM11.9112 7.42894L11.0455 7.92953L11.2545 8.2908L11.6582 8.3964L11.9112 7.42894ZM11.9585 7.44129L11.7054 8.40875L11.7193 8.41237L11.7332 8.41559L11.9585 7.44129ZM12.0841 7.47035L11.8589 8.44467L11.866 8.44627L12.0841 7.47035ZM12.2694 7.51176L12.4943 6.53735L12.4875 6.53585L12.2694 7.51176ZM12.3072 7.52048L12.0823 8.49488L12.0868 8.49589L12.3072 7.52048ZM13.1637 7.75296L12.7949 8.68245L12.797 8.68331L13.1637 7.75296ZM13.8263 8.39736L12.8714 8.69446L12.8717 8.69531L13.8263 8.39736ZM13.6592 9.30257L14.5049 9.83624L14.5061 9.8343L13.6592 9.30257ZM13.0991 10.0131L12.3389 9.36334L12.3371 9.36543L13.0991 10.0131ZM13.0744 10.0421L13.832 10.6948L13.8363 10.6898L13.0744 10.0421ZM12.9479 10.1889L12.1902 9.53622L12.1833 9.54443L12.9479 10.1889ZM12.8622 10.2906L12.0976 9.64614L12.0899 9.65526L12.0824 9.66457L12.8622 10.2906ZM12.8208 10.3422L12.041 9.71616L11.8013 10.0148L11.8223 10.3972L12.8208 10.3422ZM12.8382 10.55L13.8339 10.4569L13.833 10.4473L13.8319 10.4378L12.8382 10.55ZM12.86 10.7832L11.8644 10.8762L11.8648 10.8806L12.86 10.7832ZM12.9138 11.6993L11.9149 11.6528L11.9148 11.6546L12.9138 11.6993ZM12.5317 12.542L11.9287 11.7443L11.9256 11.7466L12.5317 12.542ZM11.6068 12.6641L11.8837 11.7032L11.8819 11.7027L11.6068 12.6641ZM10.7837 12.3262L11.2029 11.4183L11.1933 11.414L10.7837 12.3262ZM10.7481 12.3103L10.3285 13.2181L10.3385 13.2225L10.7481 12.3103ZM10.5752 12.2304L10.9948 11.3226L10.9852 11.3183L10.5752 12.2304ZM10.4168 12.1592L10.8268 11.2471L10.4229 11.0655L10.0169 11.2426L10.4168 12.1592ZM10.3769 12.1766L9.97693 11.2601L9.97019 11.263L9.96349 11.266L10.3769 12.1766ZM10.2585 12.2304L9.84506 11.3198L9.83891 11.3226L10.2585 12.2304ZM10.0855 12.3103L10.4952 13.2226L10.5051 13.218L10.0855 12.3103ZM10.0499 12.3262L9.64033 11.4139L9.63075 11.4184L10.0499 12.3262ZM9.22683 12.6641L8.95172 11.7027L8.94991 11.7032L9.22683 12.6641ZM8.302 12.542L8.9081 11.7466L8.90499 11.7443L8.302 12.542ZM7.91986 11.6993L8.91887 11.6546L8.91878 11.6528L7.91986 11.6993ZM7.9729 10.7839L6.97749 10.6882L6.97748 10.6883L7.9729 10.7839ZM7.97653 10.7461L6.98113 10.6503L6.98112 10.6504L7.97653 10.7461ZM7.99542 10.55L7.00025 10.4518L7.00002 10.4541L7.99542 10.55ZM8.01286 10.3422L9.01222 10.3779L9.02549 10.0062L8.79265 9.71616L8.01286 10.3422ZM7.97144 10.2906L8.75124 9.66457L8.74377 9.65526L8.73607 9.64614L7.97144 10.2906ZM7.88572 10.1889L8.65037 9.5444L8.64498 9.53811L7.88572 10.1889ZM7.75931 10.0414L8.51859 9.39061L8.51307 9.38428L7.75931 10.0414ZM7.73461 10.0131L6.97442 10.6629L6.98084 10.6702L7.73461 10.0131ZM7.17521 9.30257L8.02222 8.771L8.02089 8.76889L7.17521 9.30257ZM7.00739 8.39736L7.96197 8.69531L7.96206 8.695L7.00739 8.39736ZM7.66995 7.75296L8.03569 8.68368L8.03879 8.68245L7.66995 7.75296ZM8.52721 7.52048L8.74715 8.49604L8.75626 8.4939L8.52721 7.52048ZM8.56427 7.51176L8.34611 6.53578L8.33522 6.53834L8.56427 7.51176ZM8.74952 7.47035L8.96767 8.44627L8.9746 8.44472L8.98151 8.44307L8.74952 7.47035ZM8.92315 7.42894L9.15514 8.40166L9.5729 8.30203L9.7883 7.93047L8.92315 7.42894ZM8.95221 7.37881L9.81738 7.88036L9.82146 7.87319L8.95221 7.37881ZM9.01833 7.26257L9.88762 7.75698L9.89266 7.7479L9.01833 7.26257ZM9.1135 7.09112L8.24291 6.59905L8.23917 6.60579L9.1135 7.09112ZM9.13239 7.0577L10.003 7.54977L10.0065 7.54334L9.13239 7.0577ZM10.4168 3.2792V2.2792C9.7332 2.2792 9.07837 2.50984 7.97204 2.88799L8.29546 3.83424L8.61889 4.78049C9.85913 4.35658 10.1444 4.2792 10.4168 4.2792V3.2792ZM8.29546 3.83424L7.97131 2.88824L7.55575 3.03063L7.87991 3.97663L8.20406 4.92264L8.61962 4.78024L8.29546 3.83424ZM7.87991 3.97663L7.556 3.03054C6.46914 3.40265 5.63561 3.68788 5.04116 3.92904L5.41709 4.85569L5.79301 5.78234C6.32317 5.56726 7.09229 5.30327 8.20382 4.92272L7.87991 3.97663ZM5.41709 4.85569L5.05621 3.92308C4.79814 4.02294 4.54719 4.14028 4.30509 4.2743L4.78939 5.1492L5.2737 6.0241C5.43623 5.93413 5.60471 5.85535 5.77796 5.78831L5.41709 4.85569ZM4.78939 5.1492L4.28686 4.28464C4.19835 4.33609 4.11314 4.39303 4.03175 4.45512L4.63828 5.25018L5.24482 6.04524C5.25985 6.03377 5.27558 6.02326 5.29193 6.01375L4.78939 5.1492ZM4.63828 5.25018L4.03727 4.45094C3.97324 4.49909 3.91383 4.5531 3.85981 4.61227L4.59833 5.2865L5.33684 5.96074C5.30715 5.99326 5.27449 6.02295 5.2393 6.04942L4.63828 5.25018ZM4.59833 5.2865L3.72514 4.79911C3.68277 4.87502 3.64818 4.95502 3.62189 5.03787L4.57508 5.34027L5.52826 5.64266C5.51381 5.6882 5.4948 5.73217 5.47151 5.7739L4.59833 5.2865ZM4.57508 5.34027L3.63595 4.99668C3.59418 5.11086 3.56706 5.23211 3.5485 5.32546L4.52931 5.52044L5.51012 5.71542C5.51571 5.68728 5.51975 5.66997 5.52195 5.66131C5.52299 5.65723 5.52313 5.657 5.52225 5.65993C5.52146 5.6626 5.51887 5.67107 5.5142 5.68385L4.57508 5.34027ZM4.52931 5.52044L3.54421 5.34843C3.49614 5.62372 3.4671 5.90199 3.45728 6.18127L4.45666 6.21642L5.45604 6.25156C5.46263 6.06407 5.48214 5.87725 5.5144 5.69244L4.52931 5.52044ZM4.45666 6.21642L3.45815 6.1618C3.42286 6.80693 3.42324 7.69342 3.42324 8.84924H4.42324H5.42324C5.42324 7.6672 5.42361 6.84788 5.45517 6.27103L4.45666 6.21642ZM4.42324 8.84924H3.42324V9.99274H4.42324H5.42324V8.84924H4.42324ZM4.42324 9.99274H3.42324C3.42324 14.369 6.72478 16.472 8.70828 17.338L9.10841 16.4215L9.50854 15.505C7.74478 14.735 5.42324 13.1372 5.42324 9.99274H4.42324ZM9.10841 16.4215L8.70824 17.3379C8.962 17.4488 9.19408 17.5513 9.46047 17.6193L9.70777 16.6504L9.95507 15.6814C9.87419 15.6608 9.79388 15.6296 9.50858 15.5051L9.10841 16.4215ZM9.70777 16.6504L9.45725 17.6185C9.73143 17.6894 10.0238 17.7194 10.4168 17.7194V16.7194V15.7194C10.1269 15.7194 10.0154 15.697 9.95829 15.6822L9.70777 16.6504ZM10.4168 16.7194V17.7194C10.8099 17.7194 11.1022 17.6894 11.3764 17.6185L11.1259 16.6504L10.8754 15.6822C10.8183 15.697 10.7067 15.7194 10.4168 15.7194V16.7194ZM11.1259 16.6504L11.3684 17.6205C11.6399 17.5526 11.8765 17.4466 12.1254 17.3379L11.7252 16.4215L11.3251 15.5051C11.0349 15.6318 10.9606 15.6609 10.8834 15.6802L11.1259 16.6504ZM11.7252 16.4215L12.1252 17.338C14.1098 16.4719 17.4104 14.3682 17.4104 9.99274H16.4104H15.4104C15.4104 13.1366 13.0894 14.7351 11.3252 15.505L11.7252 16.4215ZM16.4104 9.99274H17.4104V8.84924H16.4104H15.4104V9.99274H16.4104ZM16.4104 8.84924H17.4104C17.4104 7.69342 17.4108 6.80693 17.3755 6.1618L16.377 6.21642L15.3785 6.27103C15.41 6.84788 15.4104 7.6672 15.4104 8.84924H16.4104ZM16.377 6.21642L17.3764 6.18127C17.3666 5.90199 17.3375 5.62372 17.2894 5.34843L16.3044 5.52044L15.3193 5.69244C15.3515 5.87725 15.371 6.06407 15.3776 6.25156L16.377 6.21642ZM16.3044 5.52044L17.2873 5.33673C17.2681 5.2338 17.2423 5.1322 17.2101 5.03256L16.2586 5.34027L15.3071 5.64797C15.3131 5.66637 15.3178 5.68513 15.3214 5.70414L16.3044 5.52044ZM16.2586 5.34027L17.2118 5.03787C17.1855 4.95502 17.1509 4.87503 17.1085 4.79911L16.2353 5.2865L15.3622 5.7739C15.3389 5.73216 15.3198 5.68819 15.3054 5.64266L16.2586 5.34027ZM16.2353 5.2865L16.9738 4.61227C16.9198 4.5531 16.8604 4.49909 16.7964 4.45094L16.1954 5.25018L15.5944 6.04942C15.5592 6.02295 15.5265 5.99327 15.4968 5.96074L16.2353 5.2865ZM16.1954 5.25018L16.8047 4.45722C16.7233 4.39471 16.6381 4.33736 16.5495 4.28551L16.0443 5.14847L15.539 6.01143C15.5553 6.021 15.5711 6.03159 15.5861 6.04314L16.1954 5.25018ZM16.0443 5.14847L16.5269 4.27262C16.2847 4.1392 16.0338 4.02244 15.7757 3.92314L15.4166 4.85642L15.0574 5.7897C15.2306 5.85636 15.3991 5.93475 15.5617 6.02432L16.0443 5.14847ZM15.4166 4.85642L15.7935 3.93019C15.1982 3.68792 14.3642 3.40254 13.2771 3.03108L12.9538 3.97736L12.6304 4.92364C13.7417 5.30338 14.5103 5.56723 15.0396 5.78265L15.4166 4.85642ZM12.9538 3.97736L13.2789 3.03169L12.8626 2.88857L12.5375 3.83424L12.2123 4.77991L12.6286 4.92303L12.9538 3.97736ZM12.5375 3.83424L12.8611 2.88805C11.7553 2.50987 11.1005 2.2792 10.4168 2.2792V3.2792V4.2792C10.6892 4.2792 10.9745 4.35655 12.2139 4.78043L12.5375 3.83424ZM8.0361 2.77138L8.35979 3.71754C9.46007 3.34113 9.93763 3.18945 10.4168 3.18945V2.18945V1.18945C9.53457 1.18945 8.71026 1.48385 7.71242 1.82521L8.0361 2.77138ZM10.4168 2.18945V3.18945C10.896 3.18945 11.3736 3.34113 12.4739 3.71754L12.7976 2.77138L13.1212 1.82521C12.1234 1.48385 11.2991 1.18945 10.4168 1.18945V2.18945ZM12.7976 2.77138L12.4725 3.71706L12.5655 3.74903L12.8905 2.80334L13.2156 1.85766L13.1226 1.82569L12.7976 2.77138ZM12.8905 2.80334L12.5667 3.74947L13.0019 3.8984L13.3257 2.95227L13.6495 2.00615L13.2143 1.85722L12.8905 2.80334ZM13.3257 2.95227L13.0018 3.89837C14.0895 4.2707 14.8888 4.54501 15.451 4.77318L15.827 3.84659L16.2031 2.92C15.5767 2.66577 14.7139 2.37051 13.6496 2.00618L13.3257 2.95227ZM15.827 3.84659L15.4514 4.77335C15.7319 4.88706 15.9413 4.98536 16.0903 5.07163L16.5913 4.20621L17.0924 3.34078C16.8273 3.18731 16.5208 3.04877 16.2027 2.91983L15.827 3.84659ZM16.5913 4.20621L16.0884 5.07055C16.1596 5.11199 16.2124 5.14794 16.2511 5.17953C16.2896 5.21089 16.3044 5.22999 16.3077 5.23466L17.1267 4.66099L17.9458 4.08732C17.6866 3.71726 17.3396 3.48466 17.0942 3.34186L16.5913 4.20621ZM17.1267 4.66099L16.3088 5.23633C16.3222 5.2553 16.3585 5.32631 16.3924 5.5031L17.3745 5.31484L18.3566 5.12657C18.3033 4.84858 18.2001 4.44882 17.9447 4.08565L17.1267 4.66099ZM17.3745 5.31484L16.3929 5.50571C16.4257 5.67436 16.4495 5.90383 16.4669 6.21341L17.4653 6.15757L18.4637 6.10173C18.4447 5.76182 18.4148 5.42609 18.3561 5.12397L17.3745 5.31484ZM17.4653 6.15757L16.4668 6.21167C16.4998 6.82167 16.5002 7.67236 16.5002 8.82963H17.5002H18.5002C18.5002 7.69697 18.5005 6.78082 18.4638 6.10348L17.4653 6.15757ZM17.5002 8.82963H16.5002V9.99274H17.5002H18.5002V8.82963H17.5002ZM17.5002 9.99274H16.5002C16.5002 13.8066 13.6463 15.68 11.7613 16.5042L12.1619 17.4204L12.5625 18.3367C14.6586 17.4202 18.5002 15.0436 18.5002 9.99274H17.5002ZM12.1619 17.4204L11.7846 16.4943L11.765 16.5023L12.1423 17.4284L12.5195 18.3545L12.5392 18.3465L12.1619 17.4204ZM12.1423 17.4284L11.7409 16.5125C11.4875 16.6236 11.3251 16.6919 11.148 16.7372L11.3961 17.706L11.6443 18.6747C12.0005 18.5834 12.303 18.4498 12.5436 18.3443L12.1423 17.4284ZM11.3961 17.706L11.146 16.7378C10.973 16.7825 10.7638 16.8091 10.4168 16.8091V17.8091V18.8091C10.8675 18.8091 11.257 18.7747 11.6463 18.6741L11.3961 17.706ZM10.4168 17.8091V16.8091C10.0696 16.8091 9.86147 16.7825 9.68709 16.7376L9.43751 17.706L9.18794 18.6743C9.57732 18.7747 9.96494 18.8091 10.4168 18.8091V17.8091ZM9.43751 17.706L9.68564 16.7372C9.5086 16.6919 9.34618 16.6236 9.09279 16.5125L8.6914 17.4284L8.29002 18.3443C8.53065 18.4498 8.83318 18.5834 9.18939 18.6747L9.43751 17.706ZM8.6914 17.4284L9.06868 16.5023L9.04907 16.4943L8.67179 17.4204L8.2945 18.3465L8.31412 18.3545L8.6914 17.4284ZM8.67179 17.4204L9.07239 16.5042C7.18738 15.68 4.3335 13.8067 4.3335 9.99202H3.3335H2.3335C2.3335 15.0435 6.17499 17.4202 8.27118 18.3367L8.67179 17.4204ZM3.3335 9.99202H4.3335V8.82963H3.3335H2.3335V9.99202H3.3335ZM3.3335 8.82963H4.3335C4.3335 7.6724 4.33385 6.82166 4.36691 6.21088L3.36837 6.15685L2.36983 6.10281C2.33314 6.78084 2.3335 7.69694 2.3335 8.82963H3.3335ZM3.36837 6.15685L4.3668 6.21281C4.38411 5.9041 4.40798 5.67424 4.44091 5.50442L3.45918 5.31411L2.47745 5.12381C2.41884 5.4262 2.38896 5.76156 2.36994 6.10088L3.36837 6.15685ZM3.45918 5.31411L4.44119 5.50296C4.475 5.32712 4.51153 5.25366 4.52659 5.23206L3.70619 4.66027L2.88579 4.08847C2.63349 4.45046 2.53054 4.84777 2.47717 5.12526L3.45918 5.31411ZM3.70619 4.66027L4.52282 5.23743C4.52685 5.23173 4.54251 5.21191 4.58159 5.18012C4.62091 5.14813 4.67407 5.11196 4.74524 5.07055L4.24234 4.20621L3.73945 3.34186C3.49373 3.48482 3.1487 3.71645 2.88956 4.0831L3.70619 4.66027ZM4.24234 4.20621L4.74338 5.07163C4.8924 4.98536 5.10173 4.88706 5.38227 4.77335L5.00662 3.84659L4.63096 2.91983C4.31287 3.04877 4.00639 3.18731 3.74131 3.34078L4.24234 4.20621ZM5.00662 3.84659L5.38269 4.77318C5.94465 4.5451 6.74412 4.27072 7.83125 3.89929L7.50794 2.953L7.18463 2.00671C6.11988 2.37049 5.25713 2.66569 4.63054 2.92L5.00662 3.84659ZM7.50794 2.953L7.83315 3.89864L8.26832 3.74898L7.94311 2.80334L7.6179 1.8577L7.18273 2.00736L7.50794 2.953ZM7.94311 2.80334L8.26819 3.74903L8.36118 3.71706L8.0361 2.77138L7.71102 1.82569L7.61803 1.85766L7.94311 2.80334ZM10.4168 7.02138L9.57271 6.48523C9.43495 6.70211 9.30524 6.92401 9.18385 7.15046L10.0652 7.62292L10.9466 8.09537C11.0447 7.91229 11.1496 7.73288 11.261 7.55753L10.4168 7.02138ZM10.0652 7.62292L9.19017 7.13885L9.09573 7.30958L9.97076 7.79364L10.8458 8.2777L10.9402 8.10698L10.0652 7.62292ZM9.97076 7.79364L9.0966 7.308L9.07481 7.34723L9.94897 7.83287L10.8231 8.31851L10.8449 8.27928L9.97076 7.79364ZM9.94897 7.83287L9.07481 7.34723C9.03103 7.42603 9.00922 7.46403 8.98619 7.49671C8.96539 7.52622 8.96291 7.52235 8.98205 7.50786L9.58572 8.30509L10.1894 9.10233C10.56 8.82168 10.7584 8.43507 10.8231 8.31852L9.94897 7.83287ZM9.58572 8.30509L8.98112 7.50856C8.99867 7.49524 9.0018 7.49826 8.9717 7.5087C8.9382 7.52032 8.89903 7.5299 8.81762 7.54778L9.03213 8.5245L9.24664 9.50122C9.38244 9.47139 9.81079 9.3897 10.1903 9.10163L9.58572 8.30509ZM9.03213 8.5245L8.81342 7.54871L8.77129 7.55815L8.98999 8.53394L9.2087 9.50973L9.25083 9.50029L9.03213 8.5245ZM8.98999 8.53394L8.77185 7.55802L8.58659 7.59944L8.80474 8.57535L9.02288 9.55127L9.20814 9.50986L8.98999 8.53394ZM8.80474 8.57535L8.58248 7.60036C8.27123 7.67131 7.99293 7.7338 7.78529 7.8062L8.11456 8.75044L8.44384 9.69467C8.51954 9.66827 8.6626 9.6334 9.02699 9.55034L8.80474 8.57535ZM8.11456 8.75044L7.2811 9.30301C7.41074 9.49855 7.60875 9.72829 7.82798 9.98428L8.58751 9.33381L9.34705 8.68335C9.08969 8.38283 8.99275 8.26532 8.94803 8.19786L8.11456 8.75044ZM8.58751 9.33381L7.82826 9.9846L7.95467 10.1321L8.71392 9.48129L9.47318 8.8305L9.34677 8.68302L8.58751 9.33381ZM8.71392 9.48129L7.95238 10.1294L7.98144 10.1636L8.74298 9.51544L9.50452 8.86732L9.47546 8.83317L8.71392 9.48129ZM8.74298 9.51544L7.98656 10.1695C8.04297 10.2348 8.07047 10.2679 8.09207 10.2993C8.11157 10.3277 8.10848 10.3302 8.10265 10.3113L9.05828 10.0167L10.0139 9.72217C9.87803 9.28128 9.59155 8.96791 9.49941 8.86135L8.74298 9.51544ZM9.05828 10.0167L8.10322 10.3131C8.09817 10.2969 8.1023 10.2998 8.10253 10.3367C8.10278 10.3771 8.09904 10.4224 8.09021 10.5099L9.08516 10.6103L10.0801 10.7106C10.0945 10.5677 10.1476 10.153 10.0133 9.72032L9.05828 10.0167ZM9.08516 10.6103L8.08981 10.5139L8.08545 10.559L9.0808 10.6553L10.0762 10.7516L10.0805 10.7066L9.08516 10.6103ZM9.0808 10.6553L8.08573 10.5562L8.06611 10.753L9.06119 10.8522L10.0563 10.9513L10.0759 10.7545L9.0808 10.6553ZM9.06119 10.8522L8.06587 10.7555C8.03343 11.0896 8.0067 11.3719 8.0067 11.5918H9.0067H10.0067C10.0067 11.4905 10.0207 11.318 10.0565 10.9488L9.06119 10.8522ZM9.0067 11.5918L9.33901 12.5349C9.53354 12.4664 9.77477 12.355 10.0481 12.2292L9.63003 11.3208L9.21198 10.4124C8.9012 10.5554 8.76029 10.6183 8.67439 10.6486L9.0067 11.5918ZM9.63003 11.3208L10.0496 12.2285L10.2225 12.1486L9.80294 11.2409L9.3834 10.3331L9.21049 10.413L9.63003 11.3208ZM9.80294 11.2409L10.2167 12.1512L10.2567 12.1331L9.8429 11.2227L9.4291 10.3123L9.38914 10.3305L9.80294 11.2409ZM9.8429 11.2227L10.268 12.1278C10.3431 12.0926 10.3802 12.0763 10.4137 12.0651C10.4442 12.055 10.4419 12.06 10.4168 12.06V11.06V10.06C9.93681 10.06 9.54208 10.2592 9.41776 10.3176L9.8429 11.2227ZM10.4168 11.06V12.06C10.3917 12.06 10.3895 12.055 10.42 12.0651C10.4535 12.0763 10.4905 12.0926 10.5656 12.1278L10.9908 11.2227L11.4159 10.3176C11.2916 10.2592 10.8968 10.06 10.4168 10.06V11.06ZM10.9908 11.2227L10.5634 12.1268L10.6033 12.1457L11.0307 11.2416L11.4581 10.3375L11.4181 10.3186L10.9908 11.2227ZM11.0307 11.2416L10.6112 12.1493L10.7841 12.2292L11.2036 11.3215L11.6232 10.4138L11.4503 10.3339L11.0307 11.2416ZM11.2036 11.3215L10.7874 12.2308C11.0593 12.3552 11.3009 12.4667 11.4946 12.5349L11.827 11.5918L12.1593 10.6486C12.0726 10.618 11.9321 10.5551 11.6198 10.4122L11.2036 11.3215ZM11.827 11.5918H12.827C12.827 11.3719 12.8002 11.0896 12.7678 10.7555L11.7725 10.8522L10.7772 10.9488C10.813 11.318 10.827 11.4905 10.827 11.5918H11.827ZM11.7725 10.8522L12.7675 10.7527L12.7479 10.5565L11.7529 10.656L10.7578 10.7555L10.7774 10.9517L11.7725 10.8522ZM11.7529 10.656L12.7484 10.5612L12.744 10.5155L11.7485 10.6103L10.753 10.7051L10.7574 10.7508L11.7529 10.656ZM11.7485 10.6103L12.7434 10.5099C12.7346 10.4224 12.7309 10.3771 12.7311 10.3367C12.7314 10.2998 12.7355 10.2969 12.7304 10.3131L11.7754 10.0167L10.8203 9.72032C10.686 10.153 10.7391 10.5677 10.7535 10.7106L11.7485 10.6103ZM11.7754 10.0167L12.731 10.3113C12.7252 10.3303 12.722 10.3279 12.7413 10.2999C12.7625 10.2691 12.79 10.236 12.8456 10.1721L12.0914 9.51544L11.3372 8.85882C11.2423 8.96782 10.9558 9.2806 10.8197 9.72217L11.7754 10.0167ZM12.0914 9.51544L12.8529 10.1636L12.882 10.1294L12.1205 9.48129L11.3589 8.83317L11.3299 8.86732L12.0914 9.51544ZM12.1205 9.48129L12.8816 10.1299L13.0073 9.98244L12.2461 9.33381L11.485 8.68519L11.3594 8.83267L12.1205 9.48129ZM12.2461 9.33381L13.0057 9.98428C13.2265 9.72639 13.4225 9.49809 13.5518 9.30301L12.7184 8.75044L11.8849 8.19786C11.8399 8.26578 11.7423 8.38474 11.4866 8.68335L12.2461 9.33381ZM12.7184 8.75044L13.0492 7.80673C12.8403 7.73353 12.5612 7.6711 12.248 7.60054L12.0282 8.57608L11.8084 9.55162C12.1723 9.63362 12.3145 9.66854 12.3876 9.69414L12.7184 8.75044ZM12.0282 8.57608L12.2508 7.60117L12.0663 7.55903L11.8437 8.53394L11.621 9.50885L11.8056 9.55098L12.0282 8.57608ZM11.8437 8.53394L12.0624 7.55815L12.0202 7.54871L11.8015 8.5245L11.5828 9.50029L11.625 9.50973L11.8437 8.53394ZM11.8015 8.5245L12.016 7.54778C11.9346 7.52989 11.8956 7.52033 11.8623 7.50879C11.8325 7.49842 11.8364 7.49568 11.8548 7.50974L11.2487 8.30509L10.6425 9.10045C11.0221 9.38972 11.4518 9.47152 11.587 9.50122L11.8015 8.5245ZM11.2487 8.30509L11.8508 7.50667C11.87 7.52118 11.8678 7.52533 11.8477 7.49671C11.8254 7.46517 11.8038 7.42757 11.7614 7.35061L10.8854 7.83287L10.0094 8.31513C10.0756 8.43532 10.2735 8.82216 10.6466 9.10352L11.2487 8.30509ZM10.8854 7.83287L11.7596 7.34722L11.7378 7.30799L10.8636 7.79364L9.98947 8.27929L10.0113 8.31852L10.8854 7.83287ZM10.8636 7.79364L11.7371 7.30674L11.6419 7.13601L10.7685 7.62292L9.895 8.10982L9.99017 8.28055L10.8636 7.79364ZM10.7685 7.62292L11.6501 7.15095C11.5282 6.92331 11.3984 6.70189 11.2612 6.48564L10.4168 7.02138L9.57244 7.55711C9.68441 7.73358 9.7892 7.91249 9.88684 8.09488L10.7685 7.62292ZM9.60533 6.28253L10.3992 6.89061C10.4204 6.86292 10.4382 6.84243 10.4532 6.82722C10.4682 6.81205 10.4768 6.8059 10.4784 6.80482C10.4793 6.80422 10.4721 6.8092 10.4574 6.81406C10.4415 6.8193 10.4265 6.82121 10.4168 6.82121V5.82121V4.82121C9.53568 4.82121 9.02097 5.40093 8.81146 5.67445L9.60533 6.28253ZM10.4168 5.82121V6.82121C10.4071 6.82121 10.3922 6.8193 10.3763 6.81406C10.3616 6.8092 10.3543 6.80422 10.3552 6.80482C10.3568 6.8059 10.3654 6.81205 10.3804 6.82722C10.3955 6.84243 10.4132 6.86292 10.4344 6.89061L11.2283 6.28253L12.0222 5.67445C11.8127 5.40093 11.298 4.82121 10.4168 4.82121V5.82121ZM11.2283 6.28253L10.4336 6.88954C10.5306 7.01647 10.6472 7.22083 10.828 7.54496L11.7013 7.0577L12.5745 6.57045C12.4197 6.29304 12.2268 5.94235 12.023 5.67552L11.2283 6.28253ZM11.7013 7.0577L10.8307 7.54976L10.8496 7.58318L11.7202 7.09112L12.5907 6.59906L12.5718 6.56564L11.7013 7.0577ZM11.7202 7.09112L10.8451 7.57518L10.9396 7.74591L11.8146 7.26185L12.6896 6.77779L12.5952 6.60706L11.7202 7.09112ZM11.8146 7.26185L10.9489 7.76244L11.0455 7.92953L11.9112 7.42894L12.7769 6.92835L12.6803 6.76125L11.8146 7.26185ZM11.9112 7.42894L11.6582 8.3964L11.7054 8.40875L11.9585 7.44129L12.2115 6.47383L12.1643 6.46148L11.9112 7.42894ZM11.9585 7.44129L11.7332 8.41559L11.8589 8.44465L12.0841 7.47035L12.3094 6.49605L12.1837 6.467L11.9585 7.44129ZM12.0841 7.47035L11.866 8.44627L12.0512 8.48768L12.2694 7.51176L12.4875 6.53585L12.3023 6.49444L12.0841 7.47035ZM12.2694 7.51176L12.0445 8.48615L12.0823 8.49487L12.3072 7.52048L12.532 6.54609L12.4943 6.53737L12.2694 7.51176ZM12.3072 7.52048L12.0868 8.49589C12.439 8.57548 12.6546 8.6268 12.7949 8.68245L13.1637 7.75296L13.5326 6.82347C13.2151 6.6975 12.8248 6.61224 12.5276 6.54507L12.3072 7.52048ZM13.1637 7.75296L12.797 8.68331C12.8282 8.69558 12.8516 8.70668 12.8691 8.71641C12.8865 8.72607 12.8942 8.73231 12.8957 8.73361C12.8967 8.7344 12.8914 8.73 12.8845 8.71999C12.8771 8.70922 12.8729 8.69933 12.8714 8.69446L13.8263 8.39736L14.7811 8.10026C14.5307 7.29552 13.8798 6.9603 13.5304 6.82261L13.1637 7.75296ZM13.8263 8.39736L12.8717 8.69531C12.8701 8.69028 12.8682 8.68071 12.8681 8.66959C12.8681 8.65939 12.8695 8.65501 12.8686 8.65865C12.8675 8.66299 12.864 8.67483 12.8546 8.69502C12.8451 8.71533 12.8315 8.74018 12.8123 8.77085L13.6592 9.30257L14.5061 9.8343C14.6991 9.52681 15.0268 8.88725 14.7809 8.09941L13.8263 8.39736ZM13.6592 9.30257L12.8135 8.76891C12.7277 8.90488 12.578 9.08361 12.3389 9.36335L13.0991 10.0131L13.8592 10.6628C14.0647 10.4224 14.3248 10.1216 14.5049 9.83624L13.6592 9.30257ZM13.0991 10.0131L12.3371 9.36543L12.3124 9.39449L13.0744 10.0421L13.8363 10.6898L13.861 10.6607L13.0991 10.0131ZM13.0744 10.0421L12.3167 9.3895L12.1903 9.53626L12.9479 10.1889L13.7056 10.8415L13.832 10.6948L13.0744 10.0421ZM12.9479 10.1889L12.1833 9.54443L12.0976 9.64614L12.8622 10.2906L13.6268 10.9351L13.7126 10.8334L12.9479 10.1889ZM12.8622 10.2906L12.0824 9.66457L12.041 9.71616L12.8208 10.3422L13.6006 10.9682L13.642 10.9166L12.8622 10.2906ZM12.8208 10.3422L11.8223 10.3972C11.8272 10.4857 11.8346 10.5741 11.8446 10.6622L12.8382 10.55L13.8319 10.4378C13.8263 10.3877 13.8221 10.3375 13.8193 10.2872L12.8208 10.3422ZM12.8382 10.55L11.8426 10.643L11.8644 10.8762L12.86 10.7832L13.8557 10.6901L13.8339 10.4569L12.8382 10.55ZM12.86 10.7832L11.8648 10.8806C11.9016 11.2562 11.9224 11.4913 11.9149 11.6528L12.9138 11.6993L13.9127 11.7457C13.9285 11.4074 13.8868 11.0075 13.8553 10.6857L12.86 10.7832ZM12.9138 11.6993L11.9148 11.6546C11.9132 11.6913 11.9102 11.7201 11.9064 11.7429C11.9026 11.7656 11.8987 11.7777 11.8972 11.7818C11.8959 11.7853 11.8976 11.7796 11.9048 11.7695C11.9126 11.7585 11.9217 11.7495 11.9287 11.7443L12.5317 12.542L13.1347 13.3398C13.8113 12.8283 13.8974 12.088 13.9128 11.7439L12.9138 11.6993ZM12.5317 12.542L11.9256 11.7466C11.9319 11.7418 11.9443 11.7344 11.9604 11.7288C11.9755 11.7235 11.9855 11.7228 11.9864 11.7227C11.9866 11.7227 11.9845 11.7228 11.9797 11.7226C11.975 11.7223 11.9681 11.7217 11.9588 11.7204C11.9398 11.7175 11.9152 11.7122 11.8837 11.7032L11.6068 12.6641L11.3299 13.625C11.6815 13.7263 12.4374 13.8711 13.1378 13.3374L12.5317 12.542ZM11.6068 12.6641L11.8819 11.7027C11.7358 11.6608 11.5294 11.5691 11.2029 11.4184L10.7837 12.3262L10.3645 13.2341C10.6453 13.3638 11.0056 13.5322 11.3317 13.6255L11.6068 12.6641ZM10.7837 12.3262L11.1933 11.414L11.1577 11.398L10.7481 12.3103L10.3385 13.2225L10.3741 13.2385L10.7837 12.3262ZM10.7481 12.3103L11.1677 11.4025L10.9947 11.3226L10.5752 12.2304L10.1557 13.1381L10.3286 13.218L10.7481 12.3103ZM10.5752 12.2304L10.9852 11.3183L10.8268 11.2471L10.4168 12.1592L10.0068 13.0712L10.1652 13.1424L10.5752 12.2304ZM10.4168 12.1592L10.0169 11.2426L9.97693 11.2601L10.3769 12.1766L10.7768 13.0931L10.8168 13.0757L10.4168 12.1592ZM10.3769 12.1766L9.96349 11.266L9.84507 11.3198L10.2585 12.2304L10.6718 13.1409L10.7903 13.0871L10.3769 12.1766ZM10.2585 12.2304L9.83891 11.3226L9.66601 11.4025L10.0855 12.3103L10.5051 13.218L10.678 13.1381L10.2585 12.2304ZM10.0855 12.3103L9.67595 11.398L9.64035 11.414L10.0499 12.3262L10.4595 13.2385L10.4951 13.2225L10.0855 12.3103ZM10.0499 12.3262L9.63075 11.4184C9.30422 11.5691 9.09786 11.6608 8.95172 11.7027L9.22683 12.6641L9.50194 13.6255C9.82802 13.5322 10.1883 13.3638 10.4691 13.2341L10.0499 12.3262ZM9.22683 12.6641L8.94991 11.7032C8.91851 11.7122 8.89388 11.7175 8.87483 11.7204C8.86561 11.7217 8.85871 11.7223 8.85394 11.7226C8.84921 11.7228 8.84709 11.7227 8.84729 11.7227C8.84818 11.7228 8.85815 11.7235 8.87325 11.7288C8.88939 11.7344 8.90175 11.7418 8.9081 11.7466L8.302 12.542L7.6959 13.3374C8.39621 13.8711 9.15211 13.7263 9.50374 13.625L9.22683 12.6641ZM8.302 12.542L8.90499 11.7443C8.91196 11.7495 8.92109 11.7585 8.9289 11.7695C8.93607 11.7796 8.93777 11.7853 8.9365 11.7818C8.93496 11.7777 8.93107 11.7656 8.92727 11.7429C8.92345 11.7201 8.92051 11.6913 8.91887 11.6546L7.91986 11.6993L6.92086 11.7439C6.93624 12.088 7.02239 12.8283 7.69901 13.3398L8.302 12.542ZM7.91986 11.6993L8.91878 11.6528C8.91124 11.4907 8.93215 11.2561 8.96832 10.8795L7.9729 10.7839L6.97748 10.6883C6.9468 11.0077 6.90524 11.4081 6.92094 11.7457L7.91986 11.6993ZM7.9729 10.7839L8.96831 10.8796L8.97194 10.8418L7.97653 10.7461L6.98112 10.6504L6.97749 10.6882L7.9729 10.7839ZM7.97653 10.7461L8.97193 10.842L8.99081 10.6458L7.99542 10.55L7.00002 10.4541L6.98113 10.6503L7.97653 10.7461ZM7.99542 10.55L8.99059 10.6482C9.00051 10.5476 9.00941 10.4565 9.01222 10.3779L8.01286 10.3422L7.01349 10.3065C7.01361 10.3031 7.01351 10.3089 7.01129 10.3351C7.00909 10.3608 7.00568 10.3968 7.00025 10.4518L7.99542 10.55ZM8.01286 10.3422L8.79265 9.71616L8.75124 9.66457L7.97144 10.2906L7.19165 10.9166L7.23306 10.9682L8.01286 10.3422ZM7.97144 10.2906L8.73607 9.64614L8.65035 9.54443L7.88572 10.1889L7.12109 10.8334L7.20682 10.9351L7.97144 10.2906ZM7.88572 10.1889L8.64498 9.53811L8.51857 9.39063L7.75931 10.0414L7.00005 10.6922L7.12646 10.8397L7.88572 10.1889ZM7.75931 10.0414L8.51307 9.38428L8.48837 9.35594L7.73461 10.0131L6.98084 10.6702L7.00554 10.6986L7.75931 10.0414ZM7.73461 10.0131L8.49476 9.36335C8.25532 9.08321 8.10666 8.90555 8.02222 8.771L7.17521 9.30257L6.32819 9.83415C6.5082 10.121 6.76928 10.4228 6.97445 10.6628L7.73461 10.0131ZM7.17521 9.30257L8.02089 8.76889C8.00176 8.73857 7.98827 8.71396 7.97887 8.69389C7.96953 8.67393 7.96605 8.66228 7.96499 8.65811C7.96412 8.65465 7.96562 8.65916 7.96553 8.66946C7.96544 8.68067 7.96354 8.69028 7.96197 8.69531L7.00739 8.39736L6.0528 8.09941C5.80681 8.88754 6.13455 9.52731 6.32952 9.83626L7.17521 9.30257ZM7.00739 8.39736L7.96206 8.695C7.96058 8.69974 7.95649 8.70945 7.94923 8.72003C7.94247 8.72987 7.93732 8.73417 7.93827 8.73336C7.9398 8.73204 7.9475 8.72584 7.96466 8.71629C7.98192 8.70668 8.00506 8.69571 8.03569 8.68368L7.66995 7.75296L7.30421 6.82224C6.95123 6.96095 6.30287 7.2973 6.05271 8.09972L7.00739 8.39736ZM7.66995 7.75296L8.03879 8.68245C8.17888 8.62686 8.39458 8.57548 8.74714 8.496L8.52721 7.52048L8.30729 6.54496C8.00891 6.61223 7.61871 6.69743 7.3011 6.82347L7.66995 7.75296ZM8.52721 7.52048L8.75626 8.4939L8.79331 8.48518L8.56427 7.51176L8.33522 6.53834L8.29817 6.54706L8.52721 7.52048ZM8.56427 7.51176L8.78241 8.48768L8.96767 8.44627L8.74952 7.47035L8.53138 6.49444L8.34612 6.53585L8.56427 7.51176ZM8.74952 7.47035L8.98151 8.44307L9.15514 8.40166L8.92315 7.42894L8.69117 6.45622L8.51753 6.49763L8.74952 7.47035ZM8.92315 7.42894L9.7883 7.93047L9.81736 7.88034L8.95221 7.37881L8.08707 6.87728L8.05801 6.92741L8.92315 7.42894ZM8.95221 7.37881L9.82146 7.87319L9.88757 7.75695L9.01833 7.26257L8.14908 6.76819L8.08297 6.88443L8.95221 7.37881ZM9.01833 7.26257L9.89266 7.7479L9.98783 7.57645L9.1135 7.09112L8.23917 6.60579L8.14399 6.77724L9.01833 7.26257ZM9.1135 7.09112L9.98406 7.58318L10.0029 7.54976L9.13239 7.0577L8.26182 6.56564L8.24293 6.59906L9.1135 7.09112ZM9.13239 7.0577L10.0065 7.54334C10.1848 7.22256 10.3031 7.01644 10.4 6.88954L9.60533 6.28253L8.81064 5.67552C8.6068 5.94238 8.4142 6.29131 8.25823 6.57206L9.13239 7.0577Z" fill="#009AA0" mask="url(#path-1-inside-1_40001624_14525)"/>
</svg>
