<svg width="15" height="20" viewBox="0 0 15 20" fill="none" xmlns="http://www.w3.org/2000/svg">
<g clip-path="url(#clip0_40000942_2163)">
<path d="M0 2.5C0 1.12109 1.12109 0 2.5 0H8.33984C9.00391 0 9.64062 0.261719 10.1094 0.730469L14.2695 4.89453C14.7383 5.36328 15 6 15 6.66406V17.5C15 18.8789 13.8789 20 12.5 20H2.5C1.12109 20 0 18.8789 0 17.5V2.5ZM8.125 2.28516V5.9375C8.125 6.45703 8.54297 6.875 9.0625 6.875H12.7148L8.125 2.28516ZM4.6875 10C4.16797 10 3.75 10.418 3.75 10.9375C3.75 11.457 4.16797 11.875 4.6875 11.875H10.3125C10.832 11.875 11.25 11.457 11.25 10.9375C11.25 10.418 10.832 10 10.3125 10H4.6875ZM4.6875 13.75C4.16797 13.75 3.75 14.168 3.75 14.6875C3.75 15.207 4.16797 15.625 4.6875 15.625H10.3125C10.832 15.625 11.25 15.207 11.25 14.6875C11.25 14.168 10.832 13.75 10.3125 13.75H4.6875Z" fill="#5C5C5C"/>
</g>
<defs>
<clipPath id="clip0_40000942_2163">
<rect width="15" height="20" fill="white"/>
</clipPath>
</defs>
</svg>
