<svg width="16" height="16" viewBox="0 0 16 16" fill="none" xmlns="http://www.w3.org/2000/svg">
<path d="M7.91699 3.37891C8.54767 3.37894 9.15259 3.62935 9.59863 4.0752C10.0447 4.5213 10.2959 5.12692 10.2959 5.75781C10.2959 6.38866 10.0447 6.99337 9.59863 7.43945C9.15255 7.88553 8.54784 8.13669 7.91699 8.13672C7.2861 8.13672 6.68048 7.88556 6.23438 7.43945C5.78853 6.99341 5.53812 6.38849 5.53809 5.75781C5.53809 5.12692 5.78827 4.5213 6.23438 4.0752C6.68048 3.62909 7.2861 3.37891 7.91699 3.37891ZM7.91699 3.81836C7.40263 3.81836 6.90961 4.02301 6.5459 4.38672C6.18219 4.75043 5.97754 5.24345 5.97754 5.75781C5.97757 6.27213 6.18222 6.76523 6.5459 7.12891C6.90959 7.49254 7.40269 7.69727 7.91699 7.69727C8.43131 7.69723 8.92441 7.49259 9.28809 7.12891C9.65176 6.76523 9.85641 6.27213 9.85645 5.75781C9.85645 5.24351 9.65172 4.75041 9.28809 4.38672C8.92441 4.02304 8.43131 3.81839 7.91699 3.81836Z" fill="#009AA0" stroke="#009AA0"/>
<path fill-rule="evenodd" clip-rule="evenodd" d="M7.91667 0C3.54451 0 0 3.54451 0 7.91667C0 12.2888 3.54451 15.8333 7.91667 15.8333C12.2888 15.8333 15.8333 12.2888 15.8333 7.91667C15.8333 3.54451 12.2888 0 7.91667 0ZM1.43939 7.91667C1.43939 9.42083 1.95254 10.8055 2.81258 11.9052C3.41672 11.1122 4.19594 10.4695 5.08944 10.0273C5.98293 9.58515 6.96652 9.35542 7.96345 9.35606C8.94755 9.35491 9.91891 9.57851 10.8035 10.0098C11.688 10.4411 12.4624 11.0687 13.0675 11.8448C13.6911 11.0269 14.111 10.0723 14.2924 9.05997C14.4738 8.04762 14.4115 7.00663 14.1107 6.02313C13.8099 5.03963 13.2793 4.14189 12.5627 3.40419C11.846 2.6665 10.964 2.11005 9.98967 1.7809C9.01529 1.45174 7.97654 1.35934 6.95937 1.51134C5.94219 1.66335 4.97583 2.05538 4.14025 2.655C3.30467 3.25462 2.62388 4.0446 2.15422 4.95957C1.68456 5.87454 1.43952 6.8882 1.43939 7.91667ZM7.91667 14.3939C6.42971 14.3963 4.9876 13.8848 3.83455 12.9459C4.29861 12.2814 4.91639 11.7388 5.63528 11.3643C6.35417 10.9899 7.15289 10.7948 7.96345 10.7955C8.76388 10.7948 9.55292 10.9851 10.265 11.3506C10.9771 11.7161 11.5917 12.2462 12.0578 12.897C10.8958 13.8664 9.42993 14.3963 7.91667 14.3939Z" fill="#009AA0"/>
</svg>
