<svg width="24" height="24" viewBox="0 0 24 24" fill="none" xmlns="http://www.w3.org/2000/svg">
<path d="M9.88462 14.4615H15.1154M12.5 11.8462V17.0769M16.4231 7.92308V5.30769C16.4231 4.96087 16.2853 4.62825 16.0401 4.38301C15.7948 4.13777 15.4622 4 15.1154 4H9.88462C9.53779 4 9.20518 4.13777 8.95994 4.38301C8.7147 4.62825 8.57692 4.96087 8.57692 5.30769V7.92308M19.6923 7.92308H5.30769C4.96087 7.92308 4.62825 8.06085 4.38301 8.30609C4.13777 8.55133 4 8.88395 4 9.23077V19.6923C4 20.0391 4.13777 20.3717 4.38301 20.617C4.62825 20.8622 4.96087 21 5.30769 21H19.6923C20.0391 21 20.3717 20.8622 20.617 20.617C20.8622 20.3717 21 20.0391 21 19.6923V9.23077C21 8.88395 20.8622 8.55133 20.617 8.30609C20.3717 8.06085 20.0391 7.92308 19.6923 7.92308Z" stroke="#0F0E40" stroke-width="1.2" stroke-linecap="round" stroke-linejoin="round"/>
</svg>
