<svg width="24" height="24" viewBox="0 0 24 24" fill="none" xmlns="http://www.w3.org/2000/svg">
<path d="M6.69995 8.4C6.69995 5.8548 6.69995 4.5813 7.49105 3.7911C8.28125 3 9.55475 3 12.1 3C14.6452 3 15.9187 3 16.7089 3.7911C17.5 4.5813 17.5 5.8548 17.5 8.4V15.6C17.5 18.1452 17.5 19.4187 16.7089 20.2089C15.9187 21 14.6452 21 12.1 21C9.55475 21 8.28125 21 7.49105 20.2089C6.69995 19.4187 6.69995 18.1452 6.69995 15.6V8.4Z" stroke="#0F0E40" stroke-width="1.2"/>
<path d="M20.2 5.25V18.75M4 5.25V18.75" stroke="#0F0E40" stroke-width="1.2" stroke-linecap="round"/>
</svg>
