<svg width="24" height="24" viewBox="0 0 24 24" fill="none" xmlns="http://www.w3.org/2000/svg">
<path d="M10.43 15.2588L10.4248 15.2468C10.3214 15.2224 10.2185 15.1955 10.1163 15.1662L10.1085 15.1637C9.13079 14.8826 8.22783 14.3875 7.46512 13.7142C6.62631 12.9743 5.98125 12.0404 5.58618 10.9939C5.19111 9.94746 5.05804 8.82024 5.19855 7.71056C5.33907 6.60088 5.74891 5.54242 6.39235 4.62747C7.03578 3.71252 7.89327 2.96886 8.89004 2.46134C9.88682 1.95381 10.9926 1.69784 12.111 1.71572C13.2294 1.73361 14.3265 2.02481 15.3065 2.56395C16.2865 3.10308 17.1198 3.87378 17.7337 4.80884C18.3475 5.74389 18.7233 6.81492 18.8283 7.92853C18.8617 8.28253 18.5711 8.57138 18.2154 8.57138C17.8605 8.57138 17.5768 8.28253 17.5357 7.92938C17.4224 6.95506 17.0538 6.02792 16.4673 5.24169C15.8808 4.45546 15.0972 3.838 14.1955 3.45174C13.2939 3.06547 12.3063 2.9241 11.3325 3.04189C10.3587 3.15969 9.43325 3.53249 8.64973 4.1226C7.8662 4.71271 7.25236 5.49922 6.87025 6.40263C6.48814 7.30603 6.35131 8.2943 6.47359 9.26754C6.59587 10.2408 6.97292 11.1645 7.56664 11.9453C8.16035 12.7261 8.94968 13.3363 9.85483 13.7142L9.88912 13.7288C10.0605 13.7991 10.2365 13.8611 10.4171 13.9148C10.5688 13.5482 10.843 13.2456 11.1929 13.0585C11.5428 12.8715 11.9467 12.8116 12.3358 12.889C12.7249 12.9665 13.0751 13.1765 13.3267 13.4833C13.5783 13.7901 13.7156 14.1746 13.7154 14.5714C13.7158 14.9654 13.5804 15.3474 13.3322 15.6533C13.0839 15.9593 12.7378 16.1703 12.3522 16.251C11.9666 16.3317 11.5649 16.2771 11.2148 16.0964C10.8647 15.9157 10.5876 15.6199 10.43 15.2588ZM9.58483 16.3491C8.06215 15.8755 6.71202 14.9653 5.70197 13.7314C5.07601 13.8047 4.49878 14.1053 4.07988 14.5762C3.66099 15.0471 3.42961 15.6554 3.42969 16.2857V16.8985C3.42969 20.0854 7.03826 22.2857 12.0011 22.2857C16.964 22.2857 20.5725 19.9645 20.5725 16.8985V16.2857C20.5725 15.6037 20.3016 14.9496 19.8194 14.4674C19.3372 13.9852 18.6831 13.7142 18.0011 13.7142H14.8768C15.079 14.3914 15.0357 15.1182 14.7544 15.7665C14.4731 16.4149 13.972 16.9431 13.3393 17.2581C12.7067 17.5731 11.9832 17.6546 11.2963 17.4883C10.6094 17.322 10.0033 16.9186 9.58483 16.3491ZM16.2868 8.57138C16.2868 7.27538 15.7125 6.11396 14.8031 5.32796C14.3468 4.93432 13.8126 4.64135 13.2354 4.46815C12.6582 4.29496 12.051 4.24544 11.4533 4.32283C10.8557 4.40022 10.2811 4.60277 9.76707 4.91727C9.25302 5.23178 8.81107 5.65115 8.47008 6.14802C8.12909 6.6449 7.89672 7.2081 7.78814 7.80086C7.67956 8.39363 7.69721 9.00262 7.83994 9.5881C7.98267 10.1736 8.24726 10.7224 8.61646 11.1987C8.98565 11.675 9.45114 12.068 9.98254 12.3522C10.5348 11.8499 11.2545 11.5714 12.0011 11.5714C12.748 11.5712 13.4681 11.8497 14.0205 12.3522C14.7053 11.9864 15.2779 11.4414 15.677 10.7755C16.0762 10.1096 16.287 9.34777 16.2868 8.57138Z" fill="#5C5C5C"/>
</svg>
