<svg width="18" height="21" viewBox="0 0 18 21" fill="none" xmlns="http://www.w3.org/2000/svg">
<path d="M7.00029 13.544L6.99514 13.532C6.89167 13.5075 6.78879 13.4806 6.68657 13.4514L6.67886 13.4488C5.7011 13.1678 4.79814 12.6727 4.03543 11.9994C3.19662 11.2594 2.55156 10.3255 2.15649 9.27906C1.76143 8.23261 1.62835 7.1054 1.76887 5.99572C1.90938 4.88604 2.31923 3.82757 2.96266 2.91262C3.60609 1.99767 4.46358 1.25402 5.46036 0.746493C6.45713 0.23897 7.56293 -0.0170085 8.68133 0.000876812C9.79973 0.0187622 10.8968 0.309969 11.8768 0.849105C12.8569 1.38824 13.6901 2.15894 14.304 3.09399C14.9178 4.02905 15.2936 5.10007 15.3986 6.21368C15.432 6.56768 15.1414 6.85654 14.7857 6.85654C14.4309 6.85654 14.1471 6.56768 14.106 6.21454C13.9927 5.24022 13.6242 4.31308 13.0377 3.52685C12.4512 2.74062 11.6675 2.12316 10.7658 1.73689C9.86421 1.35063 8.87658 1.20925 7.90279 1.32705C6.929 1.44485 6.00357 1.81764 5.22004 2.40776C4.43652 2.99787 3.82267 3.78438 3.44057 4.68778C3.05846 5.59118 2.92162 6.57946 3.0439 7.55269C3.16618 8.52593 3.54324 9.44964 4.13695 10.2304C4.73066 11.0112 5.51999 11.6215 6.42514 11.9994L6.45943 12.014C6.63086 12.0843 6.80686 12.1463 6.98743 12.2C7.13914 11.8334 7.41331 11.5308 7.76319 11.3437C8.11307 11.1566 8.517 11.0967 8.90611 11.1742C9.29523 11.2517 9.64542 11.4617 9.897 11.7685C10.1486 12.0752 10.286 12.4598 10.2857 12.8565C10.2861 13.2505 10.1508 13.6326 9.90248 13.9385C9.65421 14.2444 9.30814 14.4555 8.92252 14.5361C8.53689 14.6168 8.13524 14.5622 7.78515 14.3815C7.43506 14.2008 7.15789 13.905 7.00029 13.544ZM6.15514 14.6343C4.63246 14.1607 3.28234 13.2505 2.27229 12.0165C1.64633 12.0899 1.06909 12.3905 0.650195 12.8614C0.231301 13.3323 -7.75662e-05 13.9406 1.95057e-08 14.5708V15.1837C1.95057e-08 18.3705 3.60857 20.5708 8.57143 20.5708C13.5343 20.5708 17.1429 18.2497 17.1429 15.1837V14.5708C17.1429 13.8888 16.8719 13.2348 16.3897 12.7526C15.9075 12.2703 15.2534 11.9994 14.5714 11.9994H11.4471C11.6493 12.6766 11.606 13.4034 11.3247 14.0517C11.0434 14.7 10.5423 15.2282 9.90966 15.5432C9.27702 15.8582 8.5535 15.9397 7.86663 15.7735C7.17976 15.6072 6.57365 15.2037 6.15514 14.6343ZM12.8571 6.85654C12.8571 5.56054 12.2829 4.39911 11.3734 3.61311C10.9171 3.21948 10.3829 2.9265 9.80574 2.75331C9.22853 2.58012 8.6213 2.5306 8.02366 2.60799C7.42602 2.68537 6.85143 2.88793 6.33738 3.20243C5.82333 3.51693 5.38138 3.93631 5.04039 4.43318C4.6994 4.93005 4.46703 5.49326 4.35845 6.08602C4.24987 6.67878 4.26752 7.28778 4.41025 7.87326C4.55298 8.45874 4.81758 9.00754 5.18677 9.48383C5.55596 9.96012 6.02146 10.3532 6.55286 10.6374C7.10511 10.135 7.82485 9.85659 8.57143 9.85654C9.3183 9.85637 10.0384 10.1348 10.5909 10.6374C11.2756 10.2716 11.8482 9.72659 12.2474 9.06067C12.6465 8.39476 12.8573 7.63292 12.8571 6.85654Z" fill="#5C5C5C"/>
</svg>
