<svg width="32" height="32" viewBox="0 0 32 32" fill="none" xmlns="http://www.w3.org/2000/svg">
<path d="M29 17H3C2.73478 17 2.48043 17.1054 2.29289 17.2929C2.10536 17.4804 2 17.7348 2 18C2 18.2652 2.10536 18.5196 2.29289 18.7071C2.48043 18.8946 2.73478 19 3 19H29C29.2652 19 29.5196 18.8946 29.7071 18.7071C29.8946 18.5196 30 18.2652 30 18C30 17.7348 29.8946 17.4804 29.7071 17.2929C29.5196 17.1054 29.2652 17 29 17ZM16 20C13.243 20 11 22.243 11 25C11 27.757 13.243 30 16 30C18.757 30 21 27.757 21 25C21 22.243 18.757 20 16 20ZM18.354 23.354L16.354 25.354C16.3075 25.4004 16.2523 25.4372 16.1915 25.4622C16.1308 25.4873 16.0657 25.5001 16 25.5H14C13.8674 25.5 13.7402 25.4473 13.6464 25.3536C13.5527 25.2598 13.5 25.1326 13.5 25C13.5 24.8674 13.5527 24.7402 13.6464 24.6464C13.7402 24.5527 13.8674 24.5 14 24.5H15.793L17.646 22.646C17.6925 22.5995 17.7477 22.5626 17.8084 22.5375C17.8692 22.5123 17.9343 22.4994 18 22.4994C18.0657 22.4994 18.1308 22.5123 18.1916 22.5375C18.2523 22.5626 18.3075 22.5995 18.354 22.646C18.4005 22.6925 18.4374 22.7477 18.4625 22.8084C18.4877 22.8692 18.5006 22.9343 18.5006 23C18.5006 23.0657 18.4877 23.1308 18.4625 23.1916C18.4374 23.2523 18.4005 23.3075 18.354 23.354ZM8.538 15.798C8.59705 15.8615 8.66855 15.9121 8.74804 15.9467C8.82753 15.9813 8.9133 15.9992 9 15.9992C9.0867 15.9992 9.17247 15.9813 9.25196 15.9467C9.33145 15.9121 9.40295 15.8615 9.462 15.798L14.892 9.965C16.369 8.378 16.369 5.795 14.892 4.209C14.166 3.429 13.199 3 12.168 3C11.137 3 10.169 3.43 9.444 4.209C9.278 4.387 9.13 4.579 9 4.783C8.87011 4.57858 8.72183 4.38645 8.557 4.209C7.83 3.429 6.863 3 5.832 3C4.802 3 3.834 3.43 3.108 4.209C1.631 5.796 1.631 8.379 3.108 9.965L8.538 15.798ZM27 10H23V11H21V10H17C16.9223 9.99971 16.8456 9.98157 16.776 9.947L16.296 9.707C16.108 10.04 15.891 10.359 15.624 10.646L14 12.391V15C14 15.2652 14.1054 15.5196 14.2929 15.7071C14.4804 15.8946 14.7348 16 15 16H29C29.2652 16 29.5196 15.8946 29.7071 15.7071C29.8946 15.5196 30 15.2652 30 15V8.56L27.224 9.947C27.1544 9.98157 27.0777 9.99971 27 10Z" fill="#009AA0"/>
<path d="M29.0001 5H26.0001V3C26.0001 2.73478 25.8947 2.48043 25.7072 2.29289C25.5197 2.10536 25.2653 2 25.0001 2H19.0001C18.7349 2 18.4805 2.10536 18.293 2.29289C18.1055 2.48043 18.0001 2.73478 18.0001 3V5H16.5581C17.0671 6.2 17.1161 7.561 16.7041 8.793L17.1181 9H21.0001V8H23.0001V9H26.8821L30.0001 7.441V6C30.0001 5.73478 29.8947 5.48043 29.7072 5.29289C29.5197 5.10536 29.2653 5 29.0001 5ZM24.0001 5H20.0001V4H24.0001V5Z" fill="#009AA0"/>
</svg>
