<svg width="24" height="24" viewBox="0 0 24 24" fill="none" xmlns="http://www.w3.org/2000/svg">
<path fill-rule="evenodd" clip-rule="evenodd" d="M20 0C22.2091 0 24 1.79086 24 4V20C24 22.2091 22.2091 24 20 24H4C1.79086 24 0 22.2091 0 20V4C0 1.79086 1.79086 0 4 0H20ZM12.5988 23.2598C12.5952 23.258 12.591 23.2584 12.587 23.2591C12.5837 23.2597 12.5805 23.2608 12.5774 23.2622L12.5174 23.2918C12.5132 23.2939 12.5086 23.2955 12.504 23.2964L12.5014 23.2969C12.4946 23.2983 12.4875 23.298 12.4808 23.2961C12.4783 23.2954 12.4758 23.2944 12.4735 23.2933L12.4141 23.264C12.4087 23.2613 12.4032 23.2586 12.3971 23.2584C12.3926 23.2582 12.3888 23.2592 12.3856 23.2616C12.3829 23.2635 12.3814 23.2666 12.3801 23.2696C12.3787 23.2732 12.3779 23.277 12.3778 23.2808L12.3613 23.6946C12.3611 23.7002 12.3617 23.7057 12.363 23.7112L12.3637 23.7137C12.3652 23.7198 12.368 23.7256 12.3718 23.7306C12.3746 23.7342 12.3779 23.7373 12.3816 23.74L12.4752 23.8066C12.4784 23.8089 12.4819 23.8105 12.4856 23.8115L12.4868 23.8118C12.4922 23.8132 12.4978 23.8131 12.503 23.8113C12.5057 23.8104 12.5082 23.8092 12.5104 23.8076L12.604 23.7409C12.6087 23.7377 12.6127 23.7337 12.6161 23.7292L12.6167 23.7285C12.6208 23.7229 12.6238 23.7165 12.6254 23.7097C12.6265 23.7053 12.6269 23.7007 12.6267 23.6961L12.6104 23.286C12.6101 23.2794 12.6098 23.2724 12.6062 23.2667C12.6043 23.2636 12.6018 23.2613 12.5988 23.2598ZM12.8645 23.1473C12.8605 23.1451 12.8557 23.1454 12.8511 23.1461C12.8471 23.1467 12.8431 23.1479 12.8395 23.1498L12.6648 23.2376C12.6616 23.2392 12.6587 23.2413 12.6562 23.2438L12.6551 23.2449C12.6518 23.2482 12.6493 23.2524 12.6481 23.2569C12.6474 23.2596 12.6471 23.2624 12.6472 23.2652L12.6648 23.6854C12.6649 23.6891 12.6657 23.6928 12.6672 23.6962L12.6675 23.6969C12.6691 23.7009 12.6717 23.7045 12.6749 23.7073C12.677 23.7091 12.6792 23.7106 12.6817 23.7117L12.8698 23.7987C12.8759 23.8016 12.8823 23.8044 12.889 23.8044C12.8942 23.8044 12.8986 23.803 12.9025 23.8004C12.9067 23.7974 12.9087 23.7925 12.9101 23.7876C12.9114 23.7832 12.9119 23.7787 12.9116 23.7742L12.8786 23.1785C12.8782 23.1708 12.8776 23.1629 12.8737 23.1564C12.8713 23.1523 12.8682 23.1493 12.8645 23.1473ZM12.143 23.147C12.1386 23.1443 12.1333 23.1435 12.1283 23.1446C12.125 23.1453 12.1219 23.1469 12.1194 23.1491C12.1168 23.1514 12.1153 23.1546 12.1139 23.1578C12.1113 23.1639 12.1098 23.1704 12.1094 23.177L12.076 23.781C12.0765 23.7894 12.0794 23.7959 12.0848 23.8004C12.0896 23.8043 12.0962 23.8046 12.1024 23.8038C12.1061 23.8033 12.1097 23.8022 12.1132 23.8006L12.3055 23.7116C12.3078 23.7105 12.31 23.7092 12.312 23.7076L12.3131 23.7067C12.317 23.7036 12.3199 23.6996 12.3216 23.6949C12.3225 23.6923 12.3231 23.6896 12.3232 23.6868L12.3398 23.2652C12.3399 23.2624 12.3397 23.2596 12.339 23.2569C12.3377 23.2517 12.335 23.247 12.3312 23.2432L12.3307 23.2427C12.3282 23.2402 12.3254 23.2382 12.3223 23.2367L12.143 23.147Z" fill="#009AA0"/>
<path fill-rule="evenodd" clip-rule="evenodd" d="M15.7064 11.2932C15.8938 11.4807 15.9992 11.735 15.9992 12.0002C15.9992 12.2653 15.8938 12.5197 15.7064 12.7072L10.0494 18.3642C9.95712 18.4597 9.84678 18.5359 9.72477 18.5883C9.60277 18.6407 9.47155 18.6683 9.33877 18.6694C9.20599 18.6706 9.07431 18.6453 8.95141 18.595C8.82852 18.5447 8.71686 18.4705 8.62297 18.3766C8.52908 18.2827 8.45483 18.171 8.40454 18.0481C8.35426 17.9252 8.32896 17.7936 8.33012 17.6608C8.33127 17.528 8.35886 17.3968 8.41126 17.2748C8.46367 17.1528 8.53986 17.0424 8.63537 16.9502L13.5854 12.0002L8.63537 7.05018C8.45321 6.86158 8.35241 6.60898 8.35469 6.34678C8.35697 6.08458 8.46214 5.83377 8.64755 5.64836C8.83296 5.46295 9.08377 5.35778 9.34597 5.35551C9.60816 5.35323 9.86076 5.45402 10.0494 5.63618L15.7064 11.2932Z" fill="white"/>
</svg>
