<svg width="20" height="20" viewBox="0 0 20 20" fill="none" xmlns="http://www.w3.org/2000/svg">
<path d="M8.49984 6.00008H14.1665M8.49984 10.0001H14.1665M8.49984 14.0001H14.1665M6.33317 6.00008C6.33317 6.18418 6.18393 6.33341 5.99984 6.33341C5.81574 6.33341 5.6665 6.18418 5.6665 6.00008C5.6665 5.81599 5.81574 5.66675 5.99984 5.66675C6.18393 5.66675 6.33317 5.81599 6.33317 6.00008ZM6.33317 10.0001C6.33317 10.1842 6.18393 10.3334 5.99984 10.3334C5.81574 10.3334 5.6665 10.1842 5.6665 10.0001C5.6665 9.81599 5.81574 9.66675 5.99984 9.66675C6.18393 9.66675 6.33317 9.81599 6.33317 10.0001ZM6.33317 14.0001C6.33317 14.1842 6.18393 14.3334 5.99984 14.3334C5.81574 14.3334 5.6665 14.1842 5.6665 14.0001C5.6665 13.816 5.81574 13.6667 5.99984 13.6667C6.18393 13.6667 6.33317 13.816 6.33317 14.0001Z" stroke="#5C5C5C" stroke-width="1.5" stroke-linecap="round" stroke-linejoin="round"/>
</svg>
