<svg width="24" height="24" viewBox="0 0 24 24" fill="none" xmlns="http://www.w3.org/2000/svg">
<path d="M14.3698 3.5H15.3131C16.3404 3.5 17.1568 3.50027 17.8112 3.5625L18.0817 3.59375C18.7927 3.68796 19.314 3.87876 19.7164 4.27539C20.0678 4.62171 20.2597 5.05606 20.3658 5.62598L20.4059 5.87891C20.4988 6.56354 20.4996 7.448 20.4996 8.60547V15.3945C20.4996 16.5515 20.4987 17.4356 20.4059 18.1201C20.3099 18.8178 20.1178 19.329 19.7164 19.7246C19.3643 20.0717 18.9212 20.2615 18.3395 20.3672L18.0817 20.4072C17.3853 20.499 16.4876 20.5 15.3131 20.5H14.3698C13.1957 20.5 12.2967 20.499 11.6012 20.4072H11.6022C10.8904 20.3121 10.3688 20.1209 9.96741 19.7246C9.66027 19.4219 9.47502 19.0518 9.36194 18.582L9.31799 18.374C9.21276 17.8071 9.18932 17.0955 9.1842 16.1865C9.18414 16.1708 9.1868 16.1546 9.19299 16.1396C9.19921 16.1247 9.20906 16.1108 9.22131 16.0986C9.23364 16.0864 9.24913 16.0764 9.26624 16.0693C9.28328 16.0623 9.30202 16.0587 9.32092 16.0586C9.3398 16.0585 9.3585 16.0615 9.37561 16.0684C9.3928 16.0753 9.40806 16.0855 9.42053 16.0977C9.43292 16.1098 9.44248 16.1238 9.44885 16.1387C9.45524 16.1536 9.45853 16.1698 9.45862 16.1855C9.46369 17.0961 9.48646 17.7878 9.58752 18.3311V18.332C9.68892 18.8707 9.86444 19.2507 10.1647 19.5479L10.1666 19.5488C10.467 19.8438 10.8502 20.0163 11.3951 20.1152L11.6393 20.1533C12.3217 20.2432 13.2115 20.2441 14.4166 20.2441H15.2662C16.4719 20.2441 17.361 20.2432 18.0426 20.1533H18.0436C18.7212 20.0632 19.1734 19.8877 19.5172 19.5488C19.862 19.209 20.0415 18.7602 20.1334 18.0889C20.2258 17.414 20.2262 16.535 20.2262 15.3486V8.65137C20.2262 7.4653 20.2258 6.58535 20.1334 5.91211C20.0416 5.23992 19.8616 4.79187 19.5182 4.45215L19.5162 4.4502L19.3824 4.33105C19.0567 4.07065 18.6374 3.92564 18.0436 3.84668H18.0426C17.361 3.75685 16.4719 3.75586 15.2662 3.75586H14.4166C13.3621 3.75586 12.5493 3.75606 11.9059 3.81641L11.6403 3.84668C10.963 3.93671 10.5096 4.11225 10.1656 4.45117C9.86436 4.7481 9.6888 5.12993 9.58752 5.66797V5.66895C9.48646 6.21222 9.46369 6.90388 9.45862 7.81445C9.45845 7.84598 9.44556 7.87789 9.42053 7.90234C9.39528 7.92697 9.35948 7.94151 9.32092 7.94141C9.28224 7.9412 9.24633 7.92627 9.22131 7.90137C9.19659 7.87674 9.18408 7.84498 9.1842 7.81348C9.18932 6.90401 9.21261 6.19213 9.31799 5.625C9.4239 5.05583 9.61589 4.62164 9.96643 4.27539L9.96545 4.27441C10.3683 3.87824 10.8907 3.68698 11.6002 3.59375H11.6012C12.2973 3.50119 13.1957 3.5 14.3698 3.5Z" fill="#F04438" stroke="#F04438"/>
<path d="M14.6788 11.3369C14.8477 11.3369 15.0098 11.4068 15.1292 11.5311C15.2487 11.6555 15.3158 11.8241 15.3158 12C15.3158 12.1759 15.2487 12.3445 15.1292 12.4689C15.0098 12.5932 14.8477 12.6631 14.6788 12.6631H5.35907L7.02461 14.1484C7.15301 14.2628 7.23248 14.4257 7.24554 14.6011C7.2586 14.7765 7.20418 14.9502 7.09425 15.0838C6.98433 15.2175 6.8279 15.3002 6.65938 15.3138C6.49086 15.3274 6.32406 15.2707 6.19566 15.1563L3.223 12.5039C3.15307 12.4417 3.09693 12.3644 3.05843 12.2774C3.01993 12.1904 3 12.0958 3 12C3 11.9042 3.01993 11.8096 3.05843 11.7226C3.09693 11.6356 3.15307 11.5583 3.223 11.496L6.19566 8.84367C6.25924 8.78701 6.33291 8.74394 6.41248 8.71692C6.49204 8.6899 6.57594 8.67946 6.65938 8.68619C6.74282 8.69292 6.82418 8.71669 6.89879 8.75615C6.97341 8.79561 7.03982 8.84999 7.09425 8.91617C7.14868 8.98235 7.19006 9.05904 7.21602 9.14186C7.24197 9.22469 7.252 9.31202 7.24554 9.39888C7.23907 9.48574 7.21623 9.57043 7.17832 9.6481C7.14042 9.72577 7.08818 9.79491 7.02461 9.85157L5.35992 11.3369H14.6788Z" fill="#F04438"/>
</svg>
