<svg width="20" height="20" viewBox="0 0 20 20" fill="none" xmlns="http://www.w3.org/2000/svg">
<path d="M16.9415 14.7145C17.0332 14.4095 17.0832 14.0853 17.0832 13.7503V6.25033C17.0832 5.36627 16.732 4.51842 16.1069 3.8933C15.4817 3.26818 14.6339 2.91699 13.7498 2.91699H6.24984C5.36578 2.91699 4.51794 3.26818 3.89281 3.8933C3.26769 4.51842 2.9165 5.36627 2.9165 6.25033V13.8087C2.9318 14.6826 3.28973 15.5155 3.9132 16.1281C4.53667 16.7406 5.3758 17.0838 6.24984 17.0837H13.7498L13.8473 17.082M16.9415 14.7145L16.8682 14.6278L14.8132 12.1478C14.6572 11.9597 14.4619 11.8082 14.2409 11.7039C14.0199 11.5997 13.7787 11.5454 13.5343 11.5447C13.29 11.5441 13.0485 11.5972 12.8269 11.7003C12.6054 11.8033 12.4092 11.9539 12.2523 12.1412L11.159 13.4462L10.9807 13.6637M16.9415 14.7145C16.7394 15.3839 16.3318 15.972 15.7765 16.397C15.2212 16.822 14.5463 17.0617 13.8473 17.082M10.9807 13.6637L13.7698 16.9937L13.8473 17.082M10.9807 13.6637L8.2915 10.4528C8.13507 10.2661 7.93962 10.116 7.7189 10.013C7.49819 9.90995 7.25758 9.85657 7.014 9.85657C6.77043 9.85657 6.52982 9.90995 6.3091 10.013C6.08839 10.116 5.89294 10.2661 5.7365 10.4528L3.06484 13.642L2.91734 13.8095" stroke="#009AA0" stroke-width="1.2" stroke-linecap="round" stroke-linejoin="round"/>
<path d="M12.5757 6.6748C12.9899 6.6748 13.3257 7.01059 13.3257 7.4248C13.3257 7.83902 12.9899 8.1748 12.5757 8.1748C12.1615 8.1748 11.8257 7.83902 11.8257 7.4248C11.8257 7.01059 12.1615 6.6748 12.5757 6.6748Z" stroke="#009AA0"/>
</svg>
