<svg width="24" height="24" viewBox="0 0 24 24" fill="none" xmlns="http://www.w3.org/2000/svg">
<mask id="path-1-inside-1_40001126_7431" fill="white">
<path fill-rule="evenodd" clip-rule="evenodd" d="M7.03506 8.64088L11.0311 4.06088C11.1518 3.92254 11.3007 3.81164 11.4678 3.73566C11.635 3.65968 11.8165 3.62036 12.0001 3.62036C12.1837 3.62036 12.3651 3.65968 12.5323 3.73566C12.6994 3.81164 12.8484 3.92254 12.9691 4.06088L16.9651 8.64088L20.7781 6.23288C20.9873 6.10135 21.2301 6.03287 21.4772 6.03562C21.7244 6.03837 21.9656 6.11225 22.1719 6.24841C22.3782 6.38457 22.5409 6.57726 22.6406 6.80345C22.7403 7.02963 22.7727 7.27974 22.7341 7.52388L20.9221 18.8459C20.8538 19.2736 20.6353 19.6631 20.3057 19.9442C19.9762 20.2254 19.5572 20.3798 19.1241 20.3799H4.87606C3.98206 20.3799 3.21906 19.7299 3.07806 18.8459L1.26606 7.52388C1.22694 7.27963 1.2591 7.02928 1.35868 6.80284C1.45826 6.5764 1.62103 6.38348 1.82748 6.24722C2.03393 6.11096 2.2753 6.03713 2.52266 6.03459C2.77001 6.03204 3.01285 6.10089 3.22206 6.23288L7.03506 8.64088ZM2.82206 7.75488L4.55906 18.6089C4.57097 18.6844 4.60944 18.7532 4.66756 18.8029C4.72567 18.8526 4.79961 18.8799 4.87606 18.8799H19.1241C19.2005 18.8799 19.2745 18.8526 19.3326 18.8029C19.3907 18.7532 19.4292 18.6844 19.4411 18.6089L21.1781 7.75488L17.6111 10.0069C17.3516 10.1707 17.0422 10.2365 16.7385 10.1923C16.4349 10.1481 16.157 9.99686 15.9551 9.76588L12.0001 5.23188L8.04506 9.76588C7.62806 10.2429 6.92506 10.3459 6.38906 10.0069L2.82206 7.75488Z"/>
</mask>
<path fill-rule="evenodd" clip-rule="evenodd" d="M7.03506 8.64088L11.0311 4.06088C11.1518 3.92254 11.3007 3.81164 11.4678 3.73566C11.635 3.65968 11.8165 3.62036 12.0001 3.62036C12.1837 3.62036 12.3651 3.65968 12.5323 3.73566C12.6994 3.81164 12.8484 3.92254 12.9691 4.06088L16.9651 8.64088L20.7781 6.23288C20.9873 6.10135 21.2301 6.03287 21.4772 6.03562C21.7244 6.03837 21.9656 6.11225 22.1719 6.24841C22.3782 6.38457 22.5409 6.57726 22.6406 6.80345C22.7403 7.02963 22.7727 7.27974 22.7341 7.52388L20.9221 18.8459C20.8538 19.2736 20.6353 19.6631 20.3057 19.9442C19.9762 20.2254 19.5572 20.3798 19.1241 20.3799H4.87606C3.98206 20.3799 3.21906 19.7299 3.07806 18.8459L1.26606 7.52388C1.22694 7.27963 1.2591 7.02928 1.35868 6.80284C1.45826 6.5764 1.62103 6.38348 1.82748 6.24722C2.03393 6.11096 2.2753 6.03713 2.52266 6.03459C2.77001 6.03204 3.01285 6.10089 3.22206 6.23288L7.03506 8.64088ZM2.82206 7.75488L4.55906 18.6089C4.57097 18.6844 4.60944 18.7532 4.66756 18.8029C4.72567 18.8526 4.79961 18.8799 4.87606 18.8799H19.1241C19.2005 18.8799 19.2745 18.8526 19.3326 18.8029C19.3907 18.7532 19.4292 18.6844 19.4411 18.6089L21.1781 7.75488L17.6111 10.0069C17.3516 10.1707 17.0422 10.2365 16.7385 10.1923C16.4349 10.1481 16.157 9.99686 15.9551 9.76588L12.0001 5.23188L8.04506 9.76588C7.62806 10.2429 6.92506 10.3459 6.38906 10.0069L2.82206 7.75488Z" fill="#0F0E40"/>
<path d="M7.03506 8.64088L-4.35608 26.6784L11.0955 36.4365L23.11 22.6661L7.03506 8.64088ZM11.0311 4.06088L-5.04359 -9.96469L-5.04389 -9.96434L11.0311 4.06088ZM12.0001 3.62036V24.9537V3.62036ZM12.9691 4.06088L29.044 -9.96434L29.0437 -9.96469L12.9691 4.06088ZM16.9651 8.64088L0.890106 22.6661L12.9046 36.4365L28.3562 26.6784L16.9651 8.64088ZM20.7781 6.23288L9.42603 -11.8293L9.40646 -11.817L9.38693 -11.8047L20.7781 6.23288ZM22.7341 7.52388L43.7993 10.8952L43.802 10.8783L43.8047 10.8613L22.7341 7.52388ZM20.9221 18.8459L-0.1432 15.4746L-0.144648 15.4836L20.9221 18.8459ZM19.1241 20.3799V41.7132L19.1269 41.7132L19.1241 20.3799ZM3.07806 18.8459L24.1451 15.4856L24.1433 15.4745L3.07806 18.8459ZM1.26606 7.52388L22.3313 4.15255L22.331 4.15029L1.26606 7.52388ZM3.22206 6.23288L14.6132 -11.8047L14.6051 -11.8098L3.22206 6.23288ZM2.82206 7.75488L14.2109 -10.2841L-25.7022 -35.483L-18.2432 11.126L2.82206 7.75488ZM4.55906 18.6089L25.632 15.2859L25.6282 15.2618L25.6244 15.2377L4.55906 18.6089ZM4.87606 18.8799L4.87061 40.2132H4.87606V18.8799ZM19.1241 18.8799V40.2132L19.1295 40.2132L19.1241 18.8799ZM19.4411 18.6089L-1.62423 15.2377L-1.62808 15.2618L-1.63189 15.2859L19.4411 18.6089ZM21.1781 7.75488L42.2434 11.126L49.7023 -35.483L9.78926 -10.2841L21.1781 7.75488ZM17.6111 10.0069L6.22226 -8.03214L6.22052 -8.03104L17.6111 10.0069ZM15.9551 9.76588L-0.121415 23.7894L-0.112853 23.7992L-0.104279 23.809L15.9551 9.76588ZM12.0001 5.23188L28.0765 -8.7916L12.0001 -27.2216L-4.07642 -8.7916L12.0001 5.23188ZM8.04506 9.76588L24.1063 23.8068L24.1139 23.7981L24.1215 23.7894L8.04506 9.76588ZM6.38906 10.0069L17.7923 -8.02302L17.7851 -8.02758L17.7779 -8.03214L6.38906 10.0069ZM7.03506 8.64088L23.11 22.6661L27.106 18.0861L11.0311 4.06088L-5.04389 -9.96434L-9.0399 -5.38434L7.03506 8.64088ZM11.0311 4.06088L27.1057 18.0865C25.224 20.2431 22.9023 21.9718 20.2967 23.1563L11.4678 3.73566L2.63895 -15.685C-0.300878 -14.3485 -2.92045 -12.398 -5.04359 -9.96469L11.0311 4.06088ZM11.4678 3.73566L20.2967 23.1563C17.6912 24.3408 14.8622 24.9537 12.0001 24.9537V3.62036V-17.713C8.77069 -17.713 5.57877 -17.0215 2.63895 -15.685L11.4678 3.73566ZM12.0001 3.62036V24.9537C9.1379 24.9537 6.30892 24.3408 3.70338 23.1563L12.5323 3.73566L21.3612 -15.685C18.4214 -17.0215 15.2294 -17.713 12.0001 -17.713V3.62036ZM12.5323 3.73566L3.70338 23.1563C1.09784 21.9718 -1.22387 20.2431 -3.10559 18.0865L12.9691 4.06088L29.0437 -9.96469C26.9206 -12.398 24.301 -14.3485 21.3612 -15.685L12.5323 3.73566ZM12.9691 4.06088L-3.10589 18.0861L0.890106 22.6661L16.9651 8.64088L33.04 -5.38434L29.044 -9.96434L12.9691 4.06088ZM16.9651 8.64088L28.3562 26.6784L32.1692 24.2704L20.7781 6.23288L9.38693 -11.8047L5.57392 -9.39666L16.9651 8.64088ZM20.7781 6.23288L32.1301 24.2951C28.8703 26.3438 25.0895 27.4105 21.2396 27.3676L21.4772 6.03562L21.7149 -15.2964C17.3707 -15.3448 13.1044 -14.1411 9.42603 -11.8293L20.7781 6.23288ZM21.4772 6.03562L21.2396 27.3676C17.3897 27.3247 13.6336 26.1741 10.4203 24.0532L22.1719 6.24841L33.9234 -11.5564C30.2975 -13.9496 26.0591 -15.248 21.7149 -15.2964L21.4772 6.03562ZM22.1719 6.24841L10.4203 24.0532C7.20694 21.9324 4.67236 18.931 3.11948 15.408L22.6406 6.80345L42.1617 -1.80107C40.4094 -5.77647 37.5494 -9.16322 33.9234 -11.5564L22.1719 6.24841ZM22.6406 6.80345L3.11948 15.408C1.56657 11.8849 1.06109 7.98912 1.66341 4.18643L22.7341 7.52388L43.8047 10.8613C44.4844 6.57036 43.914 2.1744 42.1617 -1.80107L22.6406 6.80345ZM22.7341 7.52388L1.6688 4.15255L-0.143198 15.4746L20.9221 18.8459L41.9873 22.2172L43.7993 10.8952L22.7341 7.52388ZM20.9221 18.8459L-0.144648 15.4836C0.586889 10.9001 2.92839 6.72746 6.45939 3.71492L20.3057 19.9442L34.1521 36.1735C38.3422 32.5987 41.1207 27.6472 41.9888 22.2081L20.9221 18.8459ZM20.3057 19.9442L6.45939 3.71492C9.99045 0.702325 14.4797 -0.952836 19.1212 -0.953451L19.1241 20.3799L19.1269 41.7132C24.6347 41.7125 29.962 39.7484 34.1521 36.1735L20.3057 19.9442ZM19.1241 20.3799V-0.953451H4.87606V20.3799V41.7132H19.1241V20.3799ZM4.87606 20.3799V-0.953451C14.4594 -0.953451 22.6334 6.0082 24.1451 15.4856L3.07806 18.8459L-17.989 22.2061C-16.1953 33.4516 -6.49532 41.7132 4.87606 41.7132V20.3799ZM3.07806 18.8459L24.1433 15.4745L22.3313 4.15255L1.26606 7.52388L-19.7992 10.8952L-17.9872 22.2172L3.07806 18.8459ZM1.26606 7.52388L22.331 4.15029C22.9408 7.95794 22.4395 11.8607 20.8872 15.3906L1.35868 6.80284L-18.1698 -1.78493C-19.9213 2.19788 -20.4869 6.60132 -19.7988 10.8975L1.26606 7.52388ZM1.35868 6.80284L20.8872 15.3906C19.3348 18.9205 16.7974 21.9279 13.579 24.0521L1.82748 6.24722L-9.92407 -11.5576C-13.5554 -9.1609 -16.4183 -5.76774 -18.1698 -1.78493L1.35868 6.80284ZM1.82748 6.24722L13.579 24.0521C10.3607 26.1762 6.59796 27.3271 2.74198 27.3668L2.52266 6.03459L2.30334 -15.2976C-2.04735 -15.2529 -6.29281 -13.9543 -9.92407 -11.5576L1.82748 6.24722ZM2.52266 6.03459L2.74198 27.3668C-1.11399 27.4064 -4.89958 26.3331 -8.16094 24.2756L3.22206 6.23288L14.6051 -11.8098C10.9253 -14.1314 6.65402 -15.3424 2.30334 -15.2976L2.52266 6.03459ZM3.22206 6.23288L-8.16908 24.2704L-4.35608 26.6784L7.03506 8.64088L18.4262 -9.39666L14.6132 -11.8047L3.22206 6.23288ZM2.82206 7.75488L-18.2432 11.126L-16.5062 21.98L4.55906 18.6089L25.6244 15.2377L23.8874 4.38374L2.82206 7.75488ZM4.55906 18.6089L-16.5139 21.9318C-15.7106 27.0263 -13.1153 31.6669 -9.19492 35.0184L4.66756 18.8029L18.53 2.58736C22.3342 5.83948 24.8525 10.3425 25.632 15.2859L4.55906 18.6089ZM4.66756 18.8029L-9.19492 35.0184C-5.27442 38.37 -0.286613 40.2119 4.87061 40.2132L4.87606 18.8799L4.88151 -2.45345C9.88583 -2.45217 14.7258 -0.664876 18.53 2.58736L4.66756 18.8029ZM4.87606 18.8799V40.2132H19.1241V18.8799V-2.45345H4.87606V18.8799ZM19.1241 18.8799L19.1295 40.2132C24.2868 40.2119 29.2746 38.3699 33.195 35.0184L19.3326 18.8029L5.47009 2.58736C9.27432 -0.664832 14.1142 -2.45217 19.1186 -2.45345L19.1241 18.8799ZM19.3326 18.8029L33.195 35.0184C37.1153 31.667 39.7107 27.0264 40.514 21.9318L19.4411 18.6089L-1.63189 15.2859C-0.852356 10.3424 1.66602 5.83943 5.47009 2.58736L19.3326 18.8029ZM19.4411 18.6089L40.5064 21.98L42.2434 11.126L21.1781 7.75488L0.112771 4.38374L-1.62423 15.2377L19.4411 18.6089ZM21.1781 7.75488L9.78926 -10.2841L6.22226 -8.03214L17.6111 10.0069L28.9999 28.0459L32.5669 25.7939L21.1781 7.75488ZM17.6111 10.0069L6.22052 -8.03104C10.2616 -10.5829 15.0814 -11.607 19.8109 -10.9187L16.7385 10.1923L13.6662 31.3032C19.003 32.0799 24.4417 30.9243 29.0016 28.0448L17.6111 10.0069ZM16.7385 10.1923L19.8109 -10.9187C24.5403 -10.2304 28.8683 -7.87501 32.0144 -4.27722L15.9551 9.76588L-0.104279 23.809C3.44577 27.8687 8.32947 30.5266 13.6662 31.3032L16.7385 10.1923ZM15.9551 9.76588L32.0315 -4.2576L28.0765 -8.7916L12.0001 5.23188L-4.07642 19.2554L-0.121415 23.7894L15.9551 9.76588ZM12.0001 5.23188L-4.07642 -8.7916L-8.03142 -4.2576L8.04506 9.76588L24.1215 23.7894L28.0765 19.2554L12.0001 5.23188ZM8.04506 9.76588L-8.01616 -4.27506C-1.52657 -11.6984 9.42338 -13.316 17.7923 -8.02302L6.38906 10.0069L-5.01418 28.0368C4.42674 34.0078 16.7827 32.1842 24.1063 23.8068L8.04506 9.76588ZM6.38906 10.0069L17.7779 -8.03214L14.2109 -10.2841L2.82206 7.75488L-8.56675 25.7939L-4.99975 28.0459L6.38906 10.0069Z" fill="#0F0E40" mask="url(#path-1-inside-1_40001126_7431)"/>
<path fill-rule="evenodd" clip-rule="evenodd" d="M20.037 15.1289C20.2359 15.1289 20.4267 15.2079 20.5673 15.3486C20.708 15.4892 20.787 15.68 20.787 15.8789C20.787 16.0778 20.708 16.2686 20.5673 16.4092C20.4267 16.5499 20.2359 16.6289 20.037 16.6289H3.96301C3.7641 16.6289 3.57333 16.5499 3.43268 16.4092C3.29203 16.2686 3.21301 16.0778 3.21301 15.8789C3.21301 15.68 3.29203 15.4892 3.43268 15.3486C3.57333 15.2079 3.7641 15.1289 3.96301 15.1289H20.037Z" fill="#0F0E40"/>
</svg>
