<svg width="20" height="20" viewBox="0 0 20 20" fill="none" xmlns="http://www.w3.org/2000/svg">
<path d="M5.1665 6.16675L6.1665 5.16675V8.83341M6.1665 8.83341H5.1665M6.1665 8.83341H6.83317M10.8332 11.5001H9.77066C9.2835 11.5001 9.01198 10.9573 9.27036 10.5717C9.30219 10.5241 9.34725 10.4875 9.39487 10.4558L10.5948 9.65738C10.6424 9.6257 10.6873 9.5889 10.7198 9.54184C11.0167 9.11197 10.714 8.50008 10.1682 8.50008H9.1665M13.1665 11.8334H14.1308C14.9537 11.8334 15.0997 13.0918 14.3399 13.3038C14.3031 13.3141 14.2645 13.3182 14.2263 13.3196L13.8332 13.3334L14.2263 13.3473C14.2645 13.3486 14.3031 13.3527 14.3399 13.363C15.0997 13.575 14.9537 14.8334 14.1308 14.8334H13.1665" stroke="#5C5C5C" stroke-width="1.5" stroke-linecap="round" stroke-linejoin="round"/>
</svg>
