<svg width="32" height="32" viewBox="0 0 32 32" fill="none" xmlns="http://www.w3.org/2000/svg">
<path d="M20.1479 23.3146C20.1479 26.5821 22.8063 29.2404 26.0738 29.2404C29.3414 29.2404 31.9997 26.5821 31.9997 23.3146C31.9997 20.047 29.3414 17.3887 26.0738 17.3887C22.8063 17.3887 20.1479 20.047 20.1479 23.3146ZM29.8427 21.691L25.1186 26.4151L22.1337 23.4302L23.4595 22.1044L25.1186 23.7634L28.5169 20.3651L29.8427 21.691Z" fill="#009AA0"/>
<path d="M18.2732 23.3142C18.2732 19.0128 21.7726 15.5133 26.0741 15.5133C27.68 15.5133 29.174 16.0013 30.416 16.8365C31.511 14.9174 31.9987 13.1194 31.9987 11.422C31.9987 6.37966 27.9111 2.29205 22.8687 2.29205C20.1289 2.29205 17.6728 3.50051 15.9993 5.41159C14.3259 3.50044 11.8698 2.29199 9.12998 2.29199C4.08761 2.29199 0 6.3796 0 11.4219C0 16.4542 4.27686 22.3685 15.9994 29.7082C17.2333 28.9355 18.3827 28.1792 19.455 27.4376C18.7065 26.2405 18.2732 24.8271 18.2732 23.3142Z" fill="#009AA0"/>
</svg>
