<svg width="20" height="20" viewBox="0 0 20 20" fill="none" xmlns="http://www.w3.org/2000/svg">
<path d="M5.00024 2.16666H10.3333V6.52799C10.261 6.30686 10.1495 6.10005 9.97876 5.92936L9.9729 5.92448C9.85819 5.81315 9.72224 5.72519 9.57349 5.66666C9.42798 5.60949 9.27272 5.58171 9.11646 5.58366H8.91626C8.58307 5.58377 8.31547 5.7563 8.13989 5.93815C8.00638 6.07648 7.8994 6.24633 7.82935 6.42643L7.77661 6.59147C7.60782 7.19839 7.56773 7.69163 7.62134 8.17936C7.66825 8.60582 7.78634 9.01508 7.92017 9.45475C7.7473 10.0531 7.53886 10.7084 7.23853 11.3717L7.09302 11.6784L6.36938 13.0329L5.75903 13.3708L5.74634 13.3766L5.73462 13.3844C4.67555 14.0464 4.07444 14.8441 3.9436 15.4723C3.88808 15.7365 3.91985 15.9774 4.00903 16.2067L4.02466 16.2458L4.04614 16.2819L4.07153 16.3239L4.1311 16.4235L4.22876 16.487L4.62817 16.7448L4.69849 16.7897L4.77856 16.8102L5.14575 16.902L5.20532 16.9167H5.26685C5.8071 16.9166 6.29006 16.6014 6.72876 16.1481C7.14923 15.7136 7.59119 15.0837 8.07837 14.2653C8.85838 14.0192 9.83805 13.8388 11.1702 13.6872C12.0665 14.1005 13.0777 14.2917 13.7502 14.2917C14.1738 14.2916 14.5834 14.1883 14.8606 13.8942L14.8616 13.8952C14.8656 13.8911 14.8683 13.8856 14.8723 13.8815C14.8747 13.8789 14.8788 13.8773 14.8811 13.8747L14.8801 13.8737C15.1148 13.6288 15.229 13.323 15.2415 13.0114L15.2405 13.0104C15.2686 12.7327 15.1945 12.4759 15.0647 12.2682C14.8562 11.9324 14.5131 11.7342 14.1321 11.6198C13.7504 11.5052 13.2811 11.4587 12.7415 11.4587H12.7141L11.8049 11.5075L11.2444 11.1335C10.8428 10.7948 10.4397 10.1861 10.1331 9.37565C10.2387 8.94792 10.3465 8.4666 10.4045 7.99967H16.1663V16.6667C16.1663 16.9761 16.0433 17.2731 15.8245 17.4919C15.6058 17.7104 15.3094 17.8336 15.0002 17.8337H5.00024C4.6909 17.8337 4.39383 17.7105 4.17505 17.4919C3.95626 17.2731 3.83325 16.9761 3.83325 16.6667V3.33366C3.83325 3.02424 3.95626 2.72725 4.17505 2.50846C4.39384 2.28967 4.69082 2.16666 5.00024 2.16666ZM9.19946 11.5563C9.34131 11.7671 9.49201 11.964 9.65356 12.1432C9.39044 12.2077 9.11151 12.2832 8.82153 12.3708C8.961 12.0911 9.08748 11.8205 9.19946 11.5563ZM11.4592 2.16666L16.1663 6.8737V7.54264L10.7903 2.16666H11.4592Z" fill="#EF5350" stroke="#EF5350"/>
</svg>
