<svg width="20" height="20" viewBox="0 0 20 20" fill="none" xmlns="http://www.w3.org/2000/svg">
<path d="M5.13037 2.05713C5.8657 1.32613 7.06859 1.38828 7.77588 2.14697L7.91064 2.30811L8.9624 3.71143C9.51224 4.44542 9.45477 5.4552 8.81982 6.08643L8.81787 6.0874L8.61963 6.28564L8.52588 6.38037L8.49072 6.50928C8.44758 6.66927 8.44323 6.8375 8.47803 6.99951L8.479 6.99854C8.56476 7.4941 8.94189 8.29916 10.1411 9.4917C11.3459 10.6897 12.157 11.0628 12.6548 11.147V11.1479C12.6589 11.1488 12.6634 11.1481 12.6675 11.1489C12.6708 11.1495 12.674 11.1514 12.6772 11.1519V11.1509C12.8316 11.1786 12.9902 11.1739 13.1421 11.1343L13.2729 11.1001L13.3687 11.0044L13.7085 10.6665C14.2392 10.1395 15.0436 10.007 15.7339 10.314L15.8706 10.3813L17.4624 11.2476C18.5559 11.8407 18.8003 13.3017 17.9399 14.1577L16.7563 15.3345C16.4798 15.6092 16.1392 15.8249 15.7466 15.9038L15.5747 15.9292C14.1857 16.0587 10.8274 15.9099 7.25732 12.3608C4.10855 9.22954 3.37496 6.50813 3.23193 5.06592L3.21143 4.79443C3.18425 4.30299 3.38219 3.86043 3.68604 3.50537L3.82275 3.35791L5.13037 2.05713ZM7.71143 2.45752C7.11567 1.66216 5.97531 1.56949 5.30615 2.23486L3.99756 3.53467C3.65186 3.87831 3.43454 4.31169 3.46143 4.78076C3.53498 6.07254 4.1185 8.88734 7.43408 12.1841C10.9421 15.6714 14.2235 15.8037 15.5522 15.6792L15.5513 15.6782C15.9446 15.6423 16.2929 15.4433 16.5796 15.1587V15.1577L17.7632 13.98L17.7622 13.979C18.447 13.2981 18.3238 12.1442 17.5142 11.5728L17.3433 11.4663L15.7515 10.6011L15.7505 10.6001C15.1251 10.2616 14.3685 10.3635 13.8853 10.8442L13.8599 10.8687L13.771 10.7798L13.4165 11.1323L13.1606 11.3882C13.0278 11.419 12.8548 11.431 12.6401 11.3979C12.0687 11.3103 11.2038 10.9015 9.96436 9.66943C8.88033 8.59105 8.42957 7.79906 8.2749 7.23682L8.22607 7.00928C8.18155 6.72409 8.21933 6.51254 8.27295 6.37061L8.27393 6.36768C8.30125 6.29373 8.34031 6.22444 8.38916 6.1626L8.40381 6.14795L8.64307 5.90967L8.64404 5.90869C9.18375 5.37012 9.24077 4.50203 8.76221 3.86182V3.86084L7.71143 2.45752Z" fill="#009AA0" stroke="#009AA0"/>
</svg>
