<svg width="12" height="12" viewBox="0 0 12 12" fill="none" xmlns="http://www.w3.org/2000/svg">
<path d="M10.8333 6.66667H6.66667V10.8333C6.66667 11.0543 6.57887 11.2663 6.42259 11.4226C6.26631 11.5789 6.05435 11.6667 5.83333 11.6667C5.61232 11.6667 5.40036 11.5789 5.24408 11.4226C5.0878 11.2663 5 11.0543 5 10.8333V6.66667H0.833333C0.61232 6.66667 0.400358 6.57887 0.244078 6.42259C0.0877975 6.26631 0 6.05435 0 5.83333C0 5.61232 0.0877975 5.40036 0.244078 5.24408C0.400358 5.0878 0.61232 5 0.833333 5H5V0.833333C5 0.61232 5.0878 0.400358 5.24408 0.244077C5.40036 0.0877971 5.61232 0 5.83333 0C6.05435 0 6.26631 0.0877971 6.42259 0.244077C6.57887 0.400358 6.66667 0.61232 6.66667 0.833333V5H10.8333C11.0543 5 11.2663 5.0878 11.4226 5.24408C11.5789 5.40036 11.6667 5.61232 11.6667 5.83333C11.6667 6.05435 11.5789 6.26631 11.4226 6.42259C11.2663 6.57887 11.0543 6.66667 10.8333 6.66667Z" fill="white"/>
</svg>
