<svg width="32" height="32" viewBox="0 0 32 32" fill="none" xmlns="http://www.w3.org/2000/svg">
<path fill-rule="evenodd" clip-rule="evenodd" d="M17.8951 1.82118L19.8005 3.24743C20.3216 3.63749 20.8701 3.83712 21.52 3.8733L23.8963 4.00549C25.3193 4.08462 26.475 5.0543 26.8 6.44193L27.3428 8.75924C27.4913 9.39299 27.7831 9.89849 28.2578 10.3439L29.9932 11.9727C31.0323 12.948 31.2943 14.4337 30.6514 15.7056L29.5777 17.8296C29.2841 18.4106 29.1827 18.9854 29.26 19.6317L29.5425 21.9949C29.7116 23.41 28.9573 24.7164 27.6473 25.2775L25.4594 26.2145C24.861 26.4707 24.4139 26.8459 24.0576 27.3907L22.755 29.3826C21.975 30.5752 20.5573 31.0912 19.1932 30.6789L16.915 29.9904C16.2919 29.8021 15.7082 29.8021 15.0851 29.9904L12.8068 30.6789C11.4427 31.0912 10.0251 30.5752 9.24509 29.3826L7.9424 27.3907C7.58609 26.8459 7.13896 26.4707 6.54065 26.2145L4.35265 25.2774C3.04265 24.7163 2.28834 23.4099 2.45746 21.9948L2.73996 19.6316C2.81721 18.9852 2.71584 18.4104 2.42221 17.8295L1.34852 15.7054C0.705649 14.4336 0.967586 12.9479 2.00671 11.9726L3.74215 10.3438C4.21677 9.89837 4.50859 9.39287 4.65702 8.75912L5.1999 6.4418C5.5249 5.05424 6.68059 4.08455 8.10352 4.00537L10.4798 3.87318C11.1298 3.83705 11.6783 3.63737 12.1994 3.2473L14.1048 1.82105C15.2456 0.96718 16.7542 0.96718 17.8951 1.82118ZM14.7845 16.8161L12.7167 14.7484C12.1808 14.2124 11.3115 14.2124 10.7756 14.7484C10.2396 15.2843 10.2396 16.1536 10.7756 16.6895L13.8169 19.7307C14.3528 20.2666 15.2221 20.2667 15.758 19.7307C17.5911 17.8976 19.4035 16.0438 21.2282 14.2022C21.7603 13.6652 21.7586 12.7987 21.2223 12.2654C20.6859 11.732 19.8169 11.7335 19.2843 12.2714L14.7845 16.8161ZM15.9999 5.77824C13.1773 5.77824 10.6219 6.92237 8.77215 8.77212C6.9224 10.6219 5.77827 13.1773 5.77827 15.9999C5.77827 18.8224 6.9224 21.3779 8.77215 23.2276C10.6219 25.0774 13.1773 26.2215 15.9999 26.2215C18.8225 26.2215 21.3779 25.0774 23.2276 23.2276C25.0774 21.3779 26.2215 18.8224 26.2215 15.9999C26.2215 13.1773 25.0774 10.6219 23.2276 8.77212C21.3779 6.92237 18.8225 5.77824 15.9999 5.77824ZM22.5206 9.47918C20.8518 7.81043 18.5464 6.77824 15.9999 6.77824C13.4534 6.77824 11.148 7.81043 9.47921 9.47918C7.81046 11.1479 6.77827 13.4534 6.77827 15.9999C6.77827 18.5464 7.81046 20.8518 9.47921 22.5206C11.148 24.1893 13.4534 25.2215 15.9999 25.2215C18.5464 25.2215 20.8518 24.1893 22.5206 22.5206C24.1893 20.8519 25.2215 18.5464 25.2215 15.9999C25.2215 13.4534 24.1893 11.1479 22.5206 9.47918Z" fill="white"/>
</svg>
