<svg width="32" height="32" viewBox="0 0 32 32" fill="none" xmlns="http://www.w3.org/2000/svg">
<path d="M22.6665 9.33301C21.7828 9.33195 20.9355 8.98042 20.3106 8.35553C19.6858 7.73064 19.3342 6.8834 19.3332 5.99967V1.33301H7.99984C7.11578 1.33301 6.26794 1.6842 5.64281 2.30932C5.01769 2.93444 4.6665 3.78229 4.6665 4.66634V27.333C4.6665 28.2171 5.01769 29.0649 5.64281 29.69C6.26794 30.3152 7.11578 30.6663 7.99984 30.6663H21.3332C20.1414 30.6676 18.9711 30.3494 17.9441 29.7448C16.9171 29.1402 16.0709 28.2714 15.4937 27.2288C14.9165 26.1862 14.6292 25.0079 14.662 23.8166C14.6947 22.6253 15.0462 21.4646 15.6798 20.4552C16.3134 19.4459 17.206 18.6248 18.2646 18.0775C19.3233 17.5303 20.5093 17.2768 21.6992 17.3435C22.8891 17.4101 24.0393 17.7946 25.0302 18.4567C26.021 19.1189 26.8163 20.0345 27.3332 21.1083V9.33301H22.6665ZM9.33317 7.33301H16.6665C16.8433 7.33301 17.0129 7.40325 17.1379 7.52827C17.2629 7.65329 17.3332 7.82286 17.3332 7.99967C17.3332 8.17649 17.2629 8.34606 17.1379 8.47108C17.0129 8.5961 16.8433 8.66634 16.6665 8.66634H9.33317C9.15636 8.66634 8.98679 8.5961 8.86177 8.47108C8.73674 8.34606 8.6665 8.17649 8.6665 7.99967C8.6665 7.82286 8.73674 7.65329 8.86177 7.52827C8.98679 7.40325 9.15636 7.33301 9.33317 7.33301ZM12.6665 25.9997H9.33317C9.15636 25.9997 8.98679 25.9294 8.86177 25.8044C8.73674 25.6794 8.6665 25.5098 8.6665 25.333C8.6665 25.1562 8.73674 24.9866 8.86177 24.8616C8.98679 24.7366 9.15636 24.6663 9.33317 24.6663H12.6665C12.8433 24.6663 13.0129 24.7366 13.1379 24.8616C13.2629 24.9866 13.3332 25.1562 13.3332 25.333C13.3332 25.5098 13.2629 25.6794 13.1379 25.8044C13.0129 25.9294 12.8433 25.9997 12.6665 25.9997ZM8.6665 21.9997C8.6665 21.8229 8.73674 21.6533 8.86177 21.5283C8.98679 21.4032 9.15636 21.333 9.33317 21.333H11.9998C12.1766 21.333 12.3462 21.4032 12.4712 21.5283C12.5963 21.6533 12.6665 21.8229 12.6665 21.9997C12.6665 22.1765 12.5963 22.3461 12.4712 22.4711C12.3462 22.5961 12.1766 22.6663 11.9998 22.6663H9.33317C9.15636 22.6663 8.98679 22.5961 8.86177 22.4711C8.73674 22.3461 8.6665 22.1765 8.6665 21.9997ZM13.3332 19.333H9.33317C9.15636 19.333 8.98679 19.2628 8.86177 19.1377C8.73674 19.0127 8.6665 18.8432 8.6665 18.6663C8.6665 18.4895 8.73674 18.32 8.86177 18.1949C8.98679 18.0699 9.15636 17.9997 9.33317 17.9997H13.3332C13.51 17.9997 13.6796 18.0699 13.8046 18.1949C13.9296 18.32 13.9998 18.4895 13.9998 18.6663C13.9998 18.8432 13.9296 19.0127 13.8046 19.1377C13.6796 19.2628 13.51 19.333 13.3332 19.333ZM22.6665 15.9997H9.33317C9.15636 15.9997 8.98679 15.9294 8.86177 15.8044C8.73674 15.6794 8.6665 15.5098 8.6665 15.333C8.6665 15.1562 8.73674 14.9866 8.86177 14.8616C8.98679 14.7366 9.15636 14.6663 9.33317 14.6663H22.6665C22.8433 14.6663 23.0129 14.7366 23.1379 14.8616C23.2629 14.9866 23.3332 15.1562 23.3332 15.333C23.3332 15.5098 23.2629 15.6794 23.1379 15.8044C23.0129 15.9294 22.8433 15.9997 22.6665 15.9997ZM22.6665 12.6663H11.3332C11.1564 12.6663 10.9868 12.5961 10.8618 12.4711C10.7367 12.3461 10.6665 12.1765 10.6665 11.9997C10.6665 11.8229 10.7367 11.6533 10.8618 11.5283C10.9868 11.4032 11.1564 11.333 11.3332 11.333H22.6665C22.8433 11.333 23.0129 11.4032 23.1379 11.5283C23.2629 11.6533 23.3332 11.8229 23.3332 11.9997C23.3332 12.1765 23.2629 12.3461 23.1379 12.4711C23.0129 12.5961 22.8433 12.6663 22.6665 12.6663Z" fill="#009AA0"/>
<path d="M26.9424 7.60903L21.0571 1.7237C20.9439 1.6121 20.8116 1.52178 20.6664 1.45703V5.9997C20.6664 6.53013 20.8771 7.03884 21.2522 7.41391C21.6273 7.78898 22.136 7.9997 22.6664 7.9997H27.2091C27.1443 7.85454 27.054 7.72221 26.9424 7.60903ZM28.8731 29.6597L25.9237 26.705C26.5856 25.5842 26.8158 24.2604 26.5713 22.9819C26.3267 21.7035 25.6242 20.5581 24.5954 19.7606C23.5666 18.9632 22.2823 18.5684 20.9832 18.6504C19.6841 18.7323 18.4596 19.2854 17.5392 20.2058C16.6187 21.1262 16.0657 22.3508 15.9838 23.6498C15.9018 24.9489 16.2966 26.2333 17.094 27.262C17.8915 28.2908 19.0368 28.9934 20.3153 29.2379C21.5938 29.4825 22.9176 29.2522 24.0384 28.5904L26.9931 31.5397C27.1165 31.6631 27.2631 31.7611 27.4243 31.8279C27.5856 31.8947 27.7585 31.9291 27.9331 31.9291C28.1076 31.9291 28.2805 31.8947 28.4418 31.8279C28.6031 31.7611 28.7496 31.6631 28.8731 31.5397C28.9965 31.4163 29.0944 31.2697 29.1612 31.1084C29.228 30.9471 29.2624 30.7743 29.2624 30.5997C29.2624 30.4251 29.228 30.2523 29.1612 30.091C29.0944 29.9297 28.9965 29.7831 28.8731 29.6597ZM17.9997 23.9997C17.9997 23.3404 18.1952 22.696 18.5615 22.1478C18.9278 21.5996 19.4484 21.1724 20.0575 20.9201C20.6665 20.6678 21.3368 20.6018 21.9834 20.7304C22.63 20.859 23.2239 21.1765 23.6901 21.6427C24.1563 22.1089 24.4737 22.7028 24.6024 23.3494C24.731 23.996 24.665 24.6662 24.4127 25.2753C24.1604 25.8844 23.7331 26.405 23.185 26.7713C22.6368 27.1375 21.9923 27.333 21.3331 27.333C20.8953 27.333 20.4619 27.2468 20.0575 27.0793C19.653 26.9118 19.2856 26.6663 18.9761 26.3567C18.6665 26.0472 18.421 25.6797 18.2535 25.2753C18.086 24.8709 17.9997 24.4374 17.9997 23.9997Z" fill="#009AA0"/>
</svg>
