<svg width="32" height="32" viewBox="0 0 32 32" fill="none" xmlns="http://www.w3.org/2000/svg">
<path d="M8.38038 13.6906L10.0794 14.6701C10.7939 15.0801 11.7129 14.8351 12.1279 14.1201L14.6259 9.79364C14.8227 9.44868 14.8754 9.03997 14.7725 8.65636C14.6696 8.27276 14.4194 7.94529 14.0764 7.74514L12.3774 6.76514C12.9851 6.43447 13.6368 6.19204 14.3129 6.04514C14.6483 5.97322 14.9491 5.78866 15.1651 5.52215C15.3811 5.25563 15.4994 4.92321 15.5004 4.58014V4.57714C15.5004 3.60964 14.5994 2.89714 13.6559 3.11114C11.4209 3.61614 9.45438 4.83414 7.99588 6.50614C7.90801 6.09323 7.73455 5.70333 7.48669 5.3616C7.23883 5.01987 6.92208 4.7339 6.55688 4.52214C4.26788 3.16564 1.38688 5.36864 2.11488 7.92964C2.50388 9.51514 4.26388 10.5266 5.82738 10.0731C5.87238 10.0631 5.91738 10.0381 5.96238 10.0231C5.57459 11.1332 5.37517 12.3003 5.37238 13.4761C5.37238 14.5726 5.54038 15.6316 5.85088 16.6286C6.13838 17.5516 7.20388 17.9746 8.04138 17.4916L8.04738 17.4881C8.34423 17.3161 8.57326 17.0476 8.69642 16.7273C8.81957 16.407 8.82944 16.0543 8.72438 15.7276C8.51519 15.068 8.3994 14.3824 8.38038 13.6906ZM29.5859 5.63164C28.2409 3.24014 24.5284 3.84514 24.0044 6.50514C22.5454 4.83364 20.5794 3.61564 18.3444 3.11014C17.4004 2.89714 16.4994 3.60914 16.4994 4.57664V4.57964C16.4994 5.28764 16.9954 5.89314 17.6869 6.04464C18.3619 6.19264 19.0149 6.43264 19.6224 6.76514L17.9239 7.74464C17.5807 7.9447 17.3305 8.27214 17.2275 8.65575C17.1245 9.03936 17.1771 9.44812 17.3739 9.79314L19.8724 14.1201C20.0725 14.4632 20.4 14.7134 20.7836 14.8163C21.1672 14.9192 21.5759 14.8665 21.9209 14.6696L23.6199 13.6901C23.601 14.3822 23.4852 15.0682 23.2759 15.7281C23.1708 16.0545 23.1804 16.407 23.3032 16.7271C23.426 17.0472 23.6545 17.3158 23.9509 17.4881L23.9559 17.4911C24.7934 17.9746 25.8589 17.5526 26.1474 16.6301C26.4594 15.6326 26.6274 14.5726 26.6274 13.4751C26.6274 12.2661 26.4129 11.1071 26.0384 10.0226C26.0834 10.0376 26.1284 10.0626 26.1734 10.0726C28.7214 10.8026 30.9494 7.90964 29.5859 5.63164ZM19.9974 19.9666V18.0026C19.9962 17.6054 19.8379 17.2249 19.557 16.944C19.2762 16.6631 18.8956 16.5048 18.4984 16.5036H13.5019C13.1047 16.5048 12.7241 16.6631 12.4432 16.944C12.1624 17.2249 12.0041 17.6054 12.0029 18.0026V19.9666C11.4132 19.5994 10.8763 19.1537 10.4069 18.6416C10.1766 18.3885 9.86684 18.2215 9.52878 18.1684C9.19071 18.1153 8.84466 18.1793 8.54788 18.3496C7.72988 18.8211 7.52538 19.9396 8.16288 20.6356C9.69563 22.3146 11.7261 23.4582 13.9564 23.8986C13.6459 24.1811 13.3976 24.5251 13.2273 24.9088C13.057 25.2925 12.9685 25.7074 12.9674 26.1271C13.1094 30.1381 18.8889 30.1421 19.0329 26.1271C19.0329 25.2476 18.6479 24.4531 18.0439 23.8986C20.2732 23.4587 22.3031 22.3162 23.8359 20.6386C24.4739 19.9431 24.2709 18.8256 23.4539 18.3526L23.4529 18.3521C23.156 18.1813 22.8097 18.1171 22.4714 18.17C22.133 18.2229 21.8229 18.3899 21.5924 18.6431C21.1264 19.1501 20.5924 19.5961 19.9974 19.9666Z" fill="white"/>
</svg>
