<svg width="20" height="20" viewBox="0 0 20 20" fill="none" xmlns="http://www.w3.org/2000/svg">
<path d="M7.99951 2.875H11.1665C11.4537 2.875 11.729 2.98932 11.9321 3.19238C12.1352 3.39547 12.2494 3.67081 12.2495 3.95801V5.25H15.1245C15.6217 5.25 16.0991 5.4473 16.4507 5.79883C16.8023 6.15046 16.9995 6.62772 16.9995 7.125V14.25C16.9995 14.7473 16.8023 15.2245 16.4507 15.5762C16.0991 15.9277 15.6217 16.125 15.1245 16.125H4.0415C3.54422 16.125 3.06696 15.9278 2.71533 15.5762C2.3637 15.2245 2.1665 14.7473 2.1665 14.25V7.125C2.1665 6.62772 2.3637 6.15046 2.71533 5.79883C3.06696 5.4472 3.54422 5.25 4.0415 5.25H6.9165V3.95801C6.91659 3.67081 7.0308 3.39547 7.23389 3.19238C7.43697 2.9893 7.71231 2.87509 7.99951 2.875ZM2.74951 14.25C2.74951 14.5926 2.88618 14.9209 3.12842 15.1631C3.37065 15.4053 3.69893 15.542 4.0415 15.542H15.1245C15.4671 15.542 15.7963 15.4053 16.0386 15.1631C16.2806 14.9209 16.4165 14.5924 16.4165 14.25V9.11523L15.7583 9.33398L12.0679 10.5645C12.0291 10.576 11.9891 10.5822 11.9487 10.583H7.17432L7.14111 10.5879C7.11388 10.5915 7.08647 10.5912 7.05908 10.5898L3.4126 9.33594L2.74951 9.1084V14.25ZM4.0415 5.83301C3.69893 5.83301 3.37065 5.96968 3.12842 6.21191C2.88618 6.45415 2.74951 6.78243 2.74951 7.125V8.49902L3.09131 8.6123L7.17627 9.97461L7.25342 10H11.9126L11.9897 9.97461L16.0747 8.6123L16.4165 8.49902V7.125C16.4165 6.78258 16.2806 6.45412 16.0386 6.21191C15.7963 5.96968 15.4671 5.83301 15.1245 5.83301H4.0415ZM7.49951 5.25H11.6665V3.45801H7.49951V5.25Z" fill="white" stroke="#009AA0"/>
</svg>
