<svg width="24" height="24" viewBox="0 0 24 24" fill="none" xmlns="http://www.w3.org/2000/svg">
<mask id="path-1-inside-1_40001126_7424" fill="white">
<path fill-rule="evenodd" clip-rule="evenodd" d="M12.5 4.25581C11.9264 4.25581 11.3623 4.4333 9.95436 4.89544L9.45569 5.05953C8.13667 5.49321 7.17508 5.80967 6.50031 6.07256C6.24152 6.16873 5.98985 6.28173 5.74708 6.41079C5.68416 6.44591 5.6236 6.48478 5.56574 6.52716C5.54844 6.53966 5.53239 6.55367 5.51779 6.56902C5.50635 6.58872 5.497 6.60948 5.4899 6.63098C5.47246 6.67674 5.45415 6.74595 5.43497 6.8386C5.38677 7.10371 5.35764 7.3717 5.34779 7.64065C5.30769 8.34474 5.30769 9.32763 5.30769 10.6747V11.9925C5.30769 16.3259 8.68154 18.4582 10.9299 19.4009C11.2533 19.5366 11.4408 19.6136 11.6491 19.6647C11.8479 19.714 12.0903 19.7442 12.5 19.7442C12.9097 19.7442 13.1521 19.714 13.3509 19.6647C13.5601 19.6144 13.7467 19.5366 14.0701 19.4009C16.3193 18.4582 19.6923 16.325 19.6923 11.9925V10.6747C19.6923 9.32763 19.6923 8.34474 19.6522 7.64065C19.6424 7.3717 19.6132 7.10371 19.565 6.8386C19.5514 6.76834 19.533 6.69899 19.5101 6.63098C19.503 6.60948 19.4937 6.58872 19.4822 6.56902C19.4676 6.55367 19.4516 6.53966 19.4343 6.52716C19.3764 6.48449 19.3159 6.44534 19.2529 6.40995C19.0101 6.28147 18.7584 6.16902 18.4997 6.0734C17.8249 5.80967 16.8633 5.49321 15.5443 5.06037L15.0448 4.89544C13.6377 4.4333 13.0736 4.25581 12.5 4.25581ZM9.64313 3.6706C10.902 3.25702 11.6831 3 12.5 3C13.3169 3 14.098 3.25702 15.3569 3.6706L15.4685 3.70744L15.9907 3.87907C17.2818 4.30353 18.2791 4.63172 18.9923 4.90967C19.3514 5.04949 19.6609 5.18595 19.9094 5.32409C20.1491 5.45805 20.3889 5.62465 20.5519 5.84819C20.7132 6.06837 20.7969 6.33963 20.8492 6.60167C20.9041 6.87293 20.9364 7.1986 20.9582 7.57284C21 8.3146 21 9.33265 21 10.6521V11.9925C21 17.1003 16.9828 19.5491 14.5941 20.5521L14.5705 20.5613C14.2741 20.686 13.9951 20.8024 13.6752 20.8811C13.3378 20.9648 12.9786 21 12.5 21C12.0205 21 11.6631 20.9648 11.3248 20.8811C11.0049 20.8024 10.7259 20.686 10.4295 20.5613L10.4059 20.5521C8.01723 19.5491 4 17.1003 4 11.9916V10.6521C4 9.33265 4 8.3146 4.04185 7.572C4.06364 7.1986 4.0959 6.87293 4.15082 6.60084C4.20313 6.33963 4.28682 6.06837 4.44723 5.84735C4.61113 5.62465 4.85087 5.45805 5.09062 5.32409C5.33908 5.18595 5.64856 5.04949 6.00774 4.90967C6.72087 4.63172 7.7182 4.30353 9.00933 3.87991L9.53154 3.70744L9.64313 3.6706ZM12.5 8.56828C12.3505 8.79429 12.2098 9.02551 12.0781 9.26149L11.9647 9.45823L11.9386 9.50344C11.8427 9.66921 11.7145 9.89358 11.5027 10.0476C11.2856 10.2059 11.0249 10.2611 10.8384 10.3005L10.7878 10.3113L10.5655 10.3591C10.1601 10.4478 9.90728 10.5039 9.73728 10.5608C9.8419 10.7124 10.0189 10.9125 10.3048 11.2331L10.4565 11.4031L10.4914 11.4424C10.6195 11.5847 10.7913 11.7756 10.8697 12.0201C10.9482 12.2629 10.9221 12.5132 10.902 12.7041L10.8968 12.756L10.8732 12.9829C10.8323 13.3881 10.8078 13.6501 10.8078 13.8352C10.9761 13.7782 11.2054 13.6778 11.5558 13.5229L11.7633 13.4308L11.8113 13.4099C11.9839 13.332 12.228 13.2223 12.5 13.2223C12.772 13.2223 13.0161 13.332 13.1887 13.4099L13.2367 13.4316L13.4442 13.5237C13.7946 13.6778 14.0239 13.7782 14.1922 13.8352C14.1922 13.6501 14.1677 13.3881 14.1268 12.9829L14.1032 12.7568L14.098 12.7041C14.0779 12.5132 14.0518 12.2629 14.1303 12.0201C14.2087 11.7756 14.3805 11.5847 14.5095 11.4424L14.5444 11.4031L14.6952 11.2331C14.9811 10.9125 15.1572 10.7124 15.2618 10.5608C15.0927 10.5039 14.8399 10.4478 14.4336 10.3599L14.2122 10.3113L14.1616 10.3005C13.9751 10.2611 13.7144 10.2059 13.4982 10.0476C13.2855 9.89358 13.1573 9.66921 13.0623 9.50344L13.0362 9.45823L12.9219 9.26149C12.7902 9.02523 12.6495 8.79456 12.5 8.56828ZM11.5262 7.71684C11.7145 7.48074 12.0214 7.18521 12.5 7.18521C12.9786 7.18521 13.2855 7.48074 13.4738 7.71684C13.6543 7.94372 13.8399 8.26354 14.0413 8.61014L14.064 8.64865L14.1773 8.8454L14.2933 9.03795L14.3499 9.05219L14.5008 9.08567L14.7231 9.1334L14.7684 9.14344C15.1581 9.228 15.5216 9.3067 15.7963 9.41135C16.0927 9.52353 16.4527 9.72614 16.5913 10.154C16.7282 10.5751 16.5599 10.9384 16.3908 11.1971C16.2313 11.4399 15.9854 11.7162 15.7187 12.0159L15.689 12.0494L15.5373 12.2185L15.4345 12.3357L15.3848 12.3952C15.3894 12.4752 15.3963 12.555 15.4057 12.6346L15.4318 12.9033C15.4728 13.3052 15.5103 13.6711 15.4964 13.9591C15.4824 14.2588 15.4092 14.6607 15.0378 14.9302C14.6568 15.209 14.2305 15.1546 13.928 15.0709C13.6447 14.993 13.3047 14.8432 12.9403 14.6816L12.8975 14.6632L12.6901 14.5711L12.5 14.489L12.4521 14.5091L12.3099 14.5711L12.1025 14.6632L12.0597 14.6816C11.6953 14.8432 11.3553 14.993 11.072 15.0709C10.7695 15.1546 10.3432 15.209 9.9622 14.9302C9.59082 14.6607 9.51759 14.2588 9.50364 13.9591C9.48969 13.6711 9.52718 13.3052 9.56728 12.9042L9.57164 12.8607L9.59431 12.6346C9.60738 12.5073 9.61349 12.442 9.61523 12.3952L9.56554 12.3357L9.46267 12.2185L9.31097 12.0486L9.28133 12.0159C9.01456 11.7162 8.76872 11.4399 8.61005 11.1971C8.44005 10.9384 8.2718 10.5751 8.40867 10.154C8.54728 9.72698 8.90646 9.52353 9.20374 9.41135C9.47836 9.3067 9.8419 9.228 10.2325 9.14344L10.2769 9.1334L10.4992 9.08567L10.7076 9.03795L10.7425 8.98019L10.8218 8.84623L10.936 8.64865L10.9587 8.61014C11.1592 8.26354 11.3457 7.94372 11.5262 7.71684Z"/>
</mask>
<path fill-rule="evenodd" clip-rule="evenodd" d="M12.5 4.25581C11.9264 4.25581 11.3623 4.4333 9.95436 4.89544L9.45569 5.05953C8.13667 5.49321 7.17508 5.80967 6.50031 6.07256C6.24152 6.16873 5.98985 6.28173 5.74708 6.41079C5.68416 6.44591 5.6236 6.48478 5.56574 6.52716C5.54844 6.53966 5.53239 6.55367 5.51779 6.56902C5.50635 6.58872 5.497 6.60948 5.4899 6.63098C5.47246 6.67674 5.45415 6.74595 5.43497 6.8386C5.38677 7.10371 5.35764 7.3717 5.34779 7.64065C5.30769 8.34474 5.30769 9.32763 5.30769 10.6747V11.9925C5.30769 16.3259 8.68154 18.4582 10.9299 19.4009C11.2533 19.5366 11.4408 19.6136 11.6491 19.6647C11.8479 19.714 12.0903 19.7442 12.5 19.7442C12.9097 19.7442 13.1521 19.714 13.3509 19.6647C13.5601 19.6144 13.7467 19.5366 14.0701 19.4009C16.3193 18.4582 19.6923 16.325 19.6923 11.9925V10.6747C19.6923 9.32763 19.6923 8.34474 19.6522 7.64065C19.6424 7.3717 19.6132 7.10371 19.565 6.8386C19.5514 6.76834 19.533 6.69899 19.5101 6.63098C19.503 6.60948 19.4937 6.58872 19.4822 6.56902C19.4676 6.55367 19.4516 6.53966 19.4343 6.52716C19.3764 6.48449 19.3159 6.44534 19.2529 6.40995C19.0101 6.28147 18.7584 6.16902 18.4997 6.0734C17.8249 5.80967 16.8633 5.49321 15.5443 5.06037L15.0448 4.89544C13.6377 4.4333 13.0736 4.25581 12.5 4.25581ZM9.64313 3.6706C10.902 3.25702 11.6831 3 12.5 3C13.3169 3 14.098 3.25702 15.3569 3.6706L15.4685 3.70744L15.9907 3.87907C17.2818 4.30353 18.2791 4.63172 18.9923 4.90967C19.3514 5.04949 19.6609 5.18595 19.9094 5.32409C20.1491 5.45805 20.3889 5.62465 20.5519 5.84819C20.7132 6.06837 20.7969 6.33963 20.8492 6.60167C20.9041 6.87293 20.9364 7.1986 20.9582 7.57284C21 8.3146 21 9.33265 21 10.6521V11.9925C21 17.1003 16.9828 19.5491 14.5941 20.5521L14.5705 20.5613C14.2741 20.686 13.9951 20.8024 13.6752 20.8811C13.3378 20.9648 12.9786 21 12.5 21C12.0205 21 11.6631 20.9648 11.3248 20.8811C11.0049 20.8024 10.7259 20.686 10.4295 20.5613L10.4059 20.5521C8.01723 19.5491 4 17.1003 4 11.9916V10.6521C4 9.33265 4 8.3146 4.04185 7.572C4.06364 7.1986 4.0959 6.87293 4.15082 6.60084C4.20313 6.33963 4.28682 6.06837 4.44723 5.84735C4.61113 5.62465 4.85087 5.45805 5.09062 5.32409C5.33908 5.18595 5.64856 5.04949 6.00774 4.90967C6.72087 4.63172 7.7182 4.30353 9.00933 3.87991L9.53154 3.70744L9.64313 3.6706ZM12.5 8.56828C12.3505 8.79429 12.2098 9.02551 12.0781 9.26149L11.9647 9.45823L11.9386 9.50344C11.8427 9.66921 11.7145 9.89358 11.5027 10.0476C11.2856 10.2059 11.0249 10.2611 10.8384 10.3005L10.7878 10.3113L10.5655 10.3591C10.1601 10.4478 9.90728 10.5039 9.73728 10.5608C9.8419 10.7124 10.0189 10.9125 10.3048 11.2331L10.4565 11.4031L10.4914 11.4424C10.6195 11.5847 10.7913 11.7756 10.8697 12.0201C10.9482 12.2629 10.9221 12.5132 10.902 12.7041L10.8968 12.756L10.8732 12.9829C10.8323 13.3881 10.8078 13.6501 10.8078 13.8352C10.9761 13.7782 11.2054 13.6778 11.5558 13.5229L11.7633 13.4308L11.8113 13.4099C11.9839 13.332 12.228 13.2223 12.5 13.2223C12.772 13.2223 13.0161 13.332 13.1887 13.4099L13.2367 13.4316L13.4442 13.5237C13.7946 13.6778 14.0239 13.7782 14.1922 13.8352C14.1922 13.6501 14.1677 13.3881 14.1268 12.9829L14.1032 12.7568L14.098 12.7041C14.0779 12.5132 14.0518 12.2629 14.1303 12.0201C14.2087 11.7756 14.3805 11.5847 14.5095 11.4424L14.5444 11.4031L14.6952 11.2331C14.9811 10.9125 15.1572 10.7124 15.2618 10.5608C15.0927 10.5039 14.8399 10.4478 14.4336 10.3599L14.2122 10.3113L14.1616 10.3005C13.9751 10.2611 13.7144 10.2059 13.4982 10.0476C13.2855 9.89358 13.1573 9.66921 13.0623 9.50344L13.0362 9.45823L12.9219 9.26149C12.7902 9.02523 12.6495 8.79456 12.5 8.56828ZM11.5262 7.71684C11.7145 7.48074 12.0214 7.18521 12.5 7.18521C12.9786 7.18521 13.2855 7.48074 13.4738 7.71684C13.6543 7.94372 13.8399 8.26354 14.0413 8.61014L14.064 8.64865L14.1773 8.8454L14.2933 9.03795L14.3499 9.05219L14.5008 9.08567L14.7231 9.1334L14.7684 9.14344C15.1581 9.228 15.5216 9.3067 15.7963 9.41135C16.0927 9.52353 16.4527 9.72614 16.5913 10.154C16.7282 10.5751 16.5599 10.9384 16.3908 11.1971C16.2313 11.4399 15.9854 11.7162 15.7187 12.0159L15.689 12.0494L15.5373 12.2185L15.4345 12.3357L15.3848 12.3952C15.3894 12.4752 15.3963 12.555 15.4057 12.6346L15.4318 12.9033C15.4728 13.3052 15.5103 13.6711 15.4964 13.9591C15.4824 14.2588 15.4092 14.6607 15.0378 14.9302C14.6568 15.209 14.2305 15.1546 13.928 15.0709C13.6447 14.993 13.3047 14.8432 12.9403 14.6816L12.8975 14.6632L12.6901 14.5711L12.5 14.489L12.4521 14.5091L12.3099 14.5711L12.1025 14.6632L12.0597 14.6816C11.6953 14.8432 11.3553 14.993 11.072 15.0709C10.7695 15.1546 10.3432 15.209 9.9622 14.9302C9.59082 14.6607 9.51759 14.2588 9.50364 13.9591C9.48969 13.6711 9.52718 13.3052 9.56728 12.9042L9.57164 12.8607L9.59431 12.6346C9.60738 12.5073 9.61349 12.442 9.61523 12.3952L9.56554 12.3357L9.46267 12.2185L9.31097 12.0486L9.28133 12.0159C9.01456 11.7162 8.76872 11.4399 8.61005 11.1971C8.44005 10.9384 8.2718 10.5751 8.40867 10.154C8.54728 9.72698 8.90646 9.52353 9.20374 9.41135C9.47836 9.3067 9.8419 9.228 10.2325 9.14344L10.2769 9.1334L10.4992 9.08567L10.7076 9.03795L10.7425 8.98019L10.8218 8.84623L10.936 8.64865L10.9587 8.61014C11.1592 8.26354 11.3457 7.94372 11.5262 7.71684Z" fill="#0F0E40"/>
<path d="M14.377 13.8837V14.3837H14.3787V13.8837V13.3837H14.377V13.8837ZM10.6213 13.8837V14.3837H10.623V13.8837V13.3837H10.6213V13.8837ZM9.95436 4.89544L9.64249 3.94532L9.64178 3.94555L9.95436 4.89544ZM9.45569 5.05953L9.76803 6.00951L9.76827 6.00943L9.45569 5.05953ZM6.50031 6.07256L6.84864 7.00993L6.856 7.00719L6.86332 7.00434L6.50031 6.07256ZM5.74708 6.41079L5.27769 5.5278L5.26863 5.53262L5.25967 5.53762L5.74708 6.41079ZM5.56574 6.52716L6.15121 7.33789L6.15673 7.33384L5.56574 6.52716ZM5.51779 6.56902L4.79304 5.88001L4.71219 5.96506L4.65323 6.06651L5.51779 6.56902ZM5.4899 6.63098L6.42438 6.98698L6.43238 6.96599L6.43943 6.94465L5.4899 6.63098ZM5.43497 6.8386L4.45574 6.63589L4.45328 6.64778L4.4511 6.65972L5.43497 6.8386ZM5.34779 7.64065L6.34618 7.69752L6.34675 7.68739L6.34713 7.67725L5.34779 7.64065ZM10.9299 19.4009L11.3166 18.4787L11.3166 18.4787L10.9299 19.4009ZM11.6491 19.6647L11.8903 18.6942L11.8872 18.6934L11.6491 19.6647ZM13.3509 19.6647L13.1174 18.6923L13.1097 18.6942L13.3509 19.6647ZM14.0701 19.4009L13.6836 18.4787L13.6834 18.4787L14.0701 19.4009ZM19.6522 7.64065L18.6529 7.67725L18.6532 7.68739L18.6538 7.69752L19.6522 7.64065ZM19.565 6.8386L20.549 6.65971L20.5466 6.64758L19.565 6.8386ZM19.5101 6.63098L18.5606 6.94466L18.5624 6.95012L19.5101 6.63098ZM19.4822 6.56902L20.3468 6.06651L20.2878 5.96506L20.207 5.88001L19.4822 6.56902ZM19.4343 6.52716L18.8405 7.33186L18.8488 7.33787L19.4343 6.52716ZM19.2529 6.40995L19.743 5.5383L19.7319 5.53204L19.7206 5.52606L19.2529 6.40995ZM18.4997 6.0734L18.1357 7.00479L18.1443 7.00817L18.153 7.01139L18.4997 6.0734ZM15.5443 5.06037L15.2308 6.00996L15.2325 6.01052L15.5443 5.06037ZM15.0448 4.89544L15.3583 3.94586L15.3568 3.94537L15.0448 4.89544ZM9.64313 3.6706L9.33101 2.72056L9.32965 2.72101L9.64313 3.6706ZM15.3569 3.6706L15.6703 2.72101L15.669 2.72056L15.3569 3.6706ZM15.4685 3.70744L15.155 4.65704L15.1562 4.65745L15.4685 3.70744ZM15.9907 3.87907L16.303 2.92909L16.3029 2.92906L15.9907 3.87907ZM18.9923 4.90967L18.6291 5.8414L18.6295 5.84156L18.9923 4.90967ZM19.9094 5.32409L20.3972 4.45112L20.3953 4.45009L19.9094 5.32409ZM20.5519 5.84819L19.7439 6.43743L19.7452 6.4391L20.5519 5.84819ZM20.8492 6.60167L19.8685 6.79743L19.8691 6.80012L20.8492 6.60167ZM20.9582 7.57284L21.9566 7.51651L21.9565 7.5147L20.9582 7.57284ZM14.5941 20.5521L14.9584 21.4834L14.9698 21.4789L14.9812 21.4741L14.5941 20.5521ZM14.5705 20.5613L14.2062 19.63L14.1943 19.6347L14.1826 19.6396L14.5705 20.5613ZM13.6752 20.8811L13.4363 19.9101L13.4343 19.9106L13.6752 20.8811ZM11.3248 20.8811L11.5651 19.9104L11.5637 19.9101L11.3248 20.8811ZM10.4295 20.5613L10.8174 19.6396L10.8057 19.6347L10.7938 19.63L10.4295 20.5613ZM10.4059 20.5521L10.0188 21.4741L10.0302 21.4789L10.0416 21.4834L10.4059 20.5521ZM4.04185 7.572L3.04354 7.51373L3.04343 7.51574L4.04185 7.572ZM4.15082 6.60084L5.13105 6.7987L5.13135 6.79719L4.15082 6.60084ZM4.44723 5.84735L3.64182 5.2546L3.63791 5.25998L4.44723 5.84735ZM5.09062 5.32409L4.60469 4.45009L4.60285 4.45112L5.09062 5.32409ZM6.00774 4.90967L6.37049 5.84156L6.3709 5.8414L6.00774 4.90967ZM9.00933 3.87991L9.32109 4.83007L9.32294 4.82946L9.00933 3.87991ZM9.53154 3.70744L9.21806 2.75785L9.21794 2.75789L9.53154 3.70744ZM12.5 8.56828L13.3343 8.01704L12.5005 6.75486L11.6659 8.01662L12.5 8.56828ZM12.0781 9.26149L12.9446 9.76069L12.9512 9.7489L12.0781 9.26149ZM11.9647 9.45823L12.8303 9.95898L12.8312 9.95738L11.9647 9.45823ZM11.9386 9.50344L12.8042 10.0042L12.8042 10.0042L11.9386 9.50344ZM11.5027 10.0476L10.9146 9.23885L10.9136 9.23953L11.5027 10.0476ZM10.8384 10.3005L10.632 9.32198L10.6279 9.32285L10.8384 10.3005ZM10.7878 10.3113L10.9977 11.2891L10.9982 11.289L10.7878 10.3113ZM10.5655 10.3591L10.3556 9.38133L10.3516 9.3822L10.5655 10.3591ZM9.73728 10.5608L9.41973 9.6126L8.15897 10.0348L8.91435 11.129L9.73728 10.5608ZM10.3048 11.2331L9.55848 11.8987L9.55877 11.899L10.3048 11.2331ZM10.4565 11.4031L11.2049 10.7398L11.2026 10.7372L10.4565 11.4031ZM10.4914 11.4424L9.74296 12.1057L9.74825 12.1116L10.4914 11.4424ZM10.8697 12.0201L9.91758 12.3257L9.9182 12.3276L10.8697 12.0201ZM10.902 12.7041L9.90746 12.5996L9.90704 12.6038L10.902 12.7041ZM10.8968 12.756L11.8914 12.8592L11.8917 12.8563L10.8968 12.756ZM10.8732 12.9829L9.87857 12.8797L9.8783 12.8823L10.8732 12.9829ZM10.8078 13.8352H9.80785V15.2292L11.1284 14.7824L10.8078 13.8352ZM11.5558 13.5229L11.9601 14.4375L11.9615 14.4369L11.5558 13.5229ZM11.7633 13.4308L11.3633 12.5143L11.3576 12.5168L11.7633 13.4308ZM11.8113 13.4099L12.2114 14.3264L12.2225 14.3214L11.8113 13.4099ZM13.1887 13.4099L13.6021 12.4993L13.5999 12.4983L13.1887 13.4099ZM13.2367 13.4316L12.8233 14.3422L12.831 14.3456L13.2367 13.4316ZM13.4442 13.5237L13.0385 14.4377L13.0418 14.4392L13.4442 13.5237ZM14.1922 13.8352L13.8716 14.7824L15.1922 15.2292V13.8352H14.1922ZM14.1268 12.9829L15.1217 12.8823L15.1214 12.8793L14.1268 12.9829ZM14.1032 12.7568L13.1081 12.8555L13.1086 12.8604L14.1032 12.7568ZM14.098 12.7041L15.0931 12.6054L15.0925 12.5996L14.098 12.7041ZM14.1303 12.0201L15.0818 12.3276L15.0824 12.3257L14.1303 12.0201ZM14.5095 11.4424L15.2504 12.1141L15.2579 12.1057L14.5095 11.4424ZM14.5444 11.4031L13.7964 10.7393L13.796 10.7398L14.5444 11.4031ZM14.6952 11.2331L13.9488 10.5675L13.9472 10.5694L14.6952 11.2331ZM15.2618 10.5608L16.0848 11.129L16.8389 10.0366L15.5809 9.61309L15.2618 10.5608ZM14.4336 10.3599L14.2194 11.3367L14.2222 11.3373L14.4336 10.3599ZM14.2122 10.3113L14.4264 9.33455L14.4226 9.33374L14.2122 10.3113ZM14.1616 10.3005L14.3721 9.32285L14.368 9.32199L14.1616 10.3005ZM13.4982 10.0476L14.0888 9.24065L14.0847 9.2377L13.4982 10.0476ZM13.0623 9.50344L13.9299 9.00611L13.9279 9.00268L13.0623 9.50344ZM13.0362 9.45823L13.9017 8.95747L13.901 8.95621L13.0362 9.45823ZM12.9219 9.26149L12.0485 9.7484L12.0527 9.75599L12.0571 9.76351L12.9219 9.26149ZM11.5262 7.71684L10.7444 7.09329L10.7436 7.09434L11.5262 7.71684ZM13.4738 7.71684L14.2564 7.09434L14.2556 7.09329L13.4738 7.71684ZM14.0413 8.61014L13.1767 9.11253L13.1795 9.11737L14.0413 8.61014ZM14.064 8.64865L14.9306 8.14948L14.9258 8.14142L14.064 8.64865ZM14.1773 8.8454L13.3108 9.34455L13.3157 9.35294L13.3207 9.36125L14.1773 8.8454ZM14.2933 9.03795L13.4366 9.5538L13.6495 9.90731L14.0497 10.0078L14.2933 9.03795ZM14.3499 9.05219L14.1063 10.0221L14.1197 10.0254L14.1332 10.0284L14.3499 9.05219ZM14.5008 9.08567L14.284 10.0619L14.2909 10.0634L14.5008 9.08567ZM14.7231 9.1334L14.9394 8.15706L14.933 8.15567L14.7231 9.1334ZM14.7684 9.14344L14.552 10.1198L14.5564 10.1207L14.7684 9.14344ZM15.7963 9.41135L15.4402 10.3458L15.4423 10.3466L15.7963 9.41135ZM16.5913 10.154L15.64 10.4622L15.6403 10.4631L16.5913 10.154ZM16.3908 11.1971L17.2265 11.7463L17.2278 11.7443L16.3908 11.1971ZM15.7187 12.0159L14.9717 11.3511L14.9699 11.3531L15.7187 12.0159ZM15.689 12.0494L16.4335 12.7171L16.4378 12.7122L15.689 12.0494ZM15.5373 12.2185L14.7929 11.5508L14.7858 11.5589L15.5373 12.2185ZM15.4345 12.3357L14.6829 11.6761L14.675 11.6851L14.6672 11.6943L15.4345 12.3357ZM15.3848 12.3952L14.6175 11.7538L14.3638 12.0574L14.3864 12.4524L15.3848 12.3952ZM15.4057 12.6346L16.401 12.5377L16.4 12.5278L16.3989 12.5178L15.4057 12.6346ZM15.4318 12.9033L14.4365 13.0002L14.437 13.0048L15.4318 12.9033ZM15.4964 13.9591L14.4975 13.9107L14.4974 13.9126L15.4964 13.9591ZM15.0378 14.9302L14.4504 14.121L14.4472 14.1232L15.0378 14.9302ZM13.928 15.0709L14.1947 14.1071L14.193 14.1066L13.928 15.0709ZM12.9403 14.6816L13.3456 13.7674L13.3362 13.7633L12.9403 14.6816ZM12.8975 14.6632L12.4918 15.5772L12.5016 15.5814L12.8975 14.6632ZM12.6901 14.5711L13.0958 13.657L13.0864 13.653L12.6901 14.5711ZM12.5 14.489L12.8964 13.5709L12.5058 13.4023L12.1135 13.5667L12.5 14.489ZM12.4521 14.5091L12.0656 13.5868L12.059 13.5896L12.0524 13.5924L12.4521 14.5091ZM12.3099 14.5711L11.9103 13.6544L11.9043 13.6571L12.3099 14.5711ZM12.1025 14.6632L12.4984 15.5815L12.5081 15.5772L12.1025 14.6632ZM12.0597 14.6816L11.6638 13.7633L11.6544 13.7674L12.0597 14.6816ZM11.072 15.0709L10.807 14.1066L10.8053 14.1071L11.072 15.0709ZM9.9622 14.9302L10.5528 14.1232L10.5496 14.121L9.9622 14.9302ZM9.50364 13.9591L10.5026 13.9126L10.5025 13.9107L9.50364 13.9591ZM9.56728 12.9042L8.57226 12.8046L8.57224 12.8047L9.56728 12.9042ZM9.57164 12.8607L8.57663 12.7609L8.57662 12.761L9.57164 12.8607ZM9.59431 12.6346L8.59954 12.5324L8.5993 12.5348L9.59431 12.6346ZM9.61523 12.3952L10.6145 12.4323L10.6288 12.0485L10.3825 11.7538L9.61523 12.3952ZM9.56554 12.3357L10.3328 11.6943L10.325 11.6851L10.3171 11.6761L9.56554 12.3357ZM9.46267 12.2185L10.2143 11.5588L10.2087 11.5526L9.46267 12.2185ZM9.31097 12.0486L10.0571 11.3826L10.0514 11.3764L9.31097 12.0486ZM9.28133 12.0159L8.53432 12.6808L8.54093 12.6881L9.28133 12.0159ZM8.61005 11.1971L9.44715 10.6501L9.44576 10.6479L8.61005 11.1971ZM8.40867 10.154L9.35969 10.4631L9.3598 10.4627L8.40867 10.154ZM9.20374 9.41135L9.55681 10.347L9.55984 10.3458L9.20374 9.41135ZM10.2325 9.14344L10.4441 10.1208L10.4529 10.1189L10.2325 9.14344ZM10.2769 9.1334L10.067 8.15561L10.0565 8.15799L10.2769 9.1334ZM10.4992 9.08567L10.7091 10.0635L10.7225 10.0604L10.4992 9.08567ZM10.7076 9.03795L10.9308 10.0127L11.3444 9.91799L11.5637 9.55475L10.7076 9.03795ZM10.7425 8.98019L11.5986 9.497L11.6029 9.48977L10.7425 8.98019ZM10.8218 8.84623L11.6823 9.35584L11.6876 9.34667L10.8218 8.84623ZM10.936 8.64865L10.0742 8.1414L10.0702 8.14822L10.936 8.64865ZM10.9587 8.61014L11.8205 9.11739L11.8243 9.11089L10.9587 8.61014ZM12.5 4.25581V3.25581C11.7286 3.25581 10.9863 3.50423 9.64249 3.94532L9.95436 4.89544L10.2662 5.84557C11.7383 5.36238 12.1241 5.25581 12.5 5.25581V4.25581ZM9.95436 4.89544L9.64178 3.94555L9.14312 4.10964L9.45569 5.05953L9.76827 6.00943L10.2669 5.84533L9.95436 4.89544ZM9.45569 5.05953L9.14336 4.10956C7.83636 4.53928 6.84341 4.86568 6.13729 5.14077L6.50031 6.07256L6.86332 7.00434C7.50674 6.75367 8.43697 6.44714 9.76803 6.00951L9.45569 5.05953ZM6.50031 6.07256L6.15198 5.13519C5.85184 5.24672 5.55973 5.37787 5.27769 5.5278L5.74708 6.41079L6.21647 7.29378C6.41998 7.1856 6.63119 7.09074 6.84864 7.00993L6.50031 6.07256ZM5.74708 6.41079L5.25967 5.53762C5.16106 5.59266 5.06589 5.65371 4.97476 5.72048L5.56574 6.52716L6.15673 7.33384C6.18131 7.31584 6.20726 7.29916 6.23449 7.28396L5.74708 6.41079ZM5.56574 6.52716L4.98029 5.71646C4.91327 5.76485 4.85053 5.81955 4.79304 5.88001L5.51779 6.56902L6.24255 7.25803C6.21425 7.2878 6.18361 7.31446 6.1512 7.33787L5.56574 6.52716ZM5.51779 6.56902L4.65323 6.06651C4.60721 6.14568 4.56931 6.22968 4.54037 6.3173L5.4899 6.63098L6.43943 6.94465C6.42469 6.98927 6.40548 7.03176 6.38236 7.07154L5.51779 6.56902ZM5.4899 6.63098L4.55541 6.27497C4.5088 6.39732 4.47773 6.52967 4.45574 6.63589L5.43497 6.8386L6.41421 7.04131C6.42121 7.0075 6.42653 6.98546 6.42984 6.97294C6.43142 6.96694 6.43205 6.96505 6.43158 6.96656C6.43119 6.9678 6.4289 6.97512 6.42438 6.98698L5.4899 6.63098ZM5.43497 6.8386L4.4511 6.65972C4.39437 6.97177 4.36006 7.28731 4.34846 7.60406L5.34779 7.64065L6.34713 7.67725C6.35522 7.45609 6.37918 7.23566 6.41884 7.01749L5.43497 6.8386ZM5.34779 7.64065L4.34941 7.58379C4.30729 8.32343 4.30769 9.34128 4.30769 10.6747H5.30769H6.30769C6.30769 9.31398 6.3081 8.36606 6.34618 7.69752L5.34779 7.64065ZM5.30769 10.6747H4.30769V11.9925H5.30769H6.30769V10.6747H5.30769ZM5.30769 11.9925H4.30769C4.30769 16.9639 8.20357 19.3422 10.5432 20.3231L10.9299 19.4009L11.3166 18.4787C9.15951 17.5743 6.30769 15.6878 6.30769 11.9925H5.30769ZM10.9299 19.4009L10.5432 20.3231C10.8515 20.4524 11.1128 20.5628 11.4111 20.6359L11.6491 19.6647L11.8872 18.6934C11.7688 18.6644 11.6552 18.6207 11.3166 18.4787L10.9299 19.4009ZM11.6491 19.6647L11.408 20.6351C11.7115 20.7106 12.0409 20.7442 12.5 20.7442V19.7442V18.7442C12.1397 18.7442 11.9843 18.7175 11.8903 18.6942L11.6491 19.6647ZM12.5 19.7442V20.7442C12.9591 20.7442 13.2885 20.7106 13.592 20.6351L13.3509 19.6647L13.1097 18.6942C13.0157 18.7175 12.8603 18.7442 12.5 18.7442V19.7442ZM13.3509 19.6647L13.5843 20.637C13.8877 20.5642 14.1533 20.4504 14.4568 20.3231L14.0701 19.4009L13.6834 18.4787C13.3401 18.6227 13.2325 18.6647 13.1174 18.6923L13.3509 19.6647ZM14.0701 19.4009L14.4566 20.3232C16.7975 19.3421 20.6923 16.963 20.6923 11.9925H19.6923H18.6923C18.6923 15.6871 15.8411 17.5744 13.6836 18.4787L14.0701 19.4009ZM19.6923 11.9925H20.6923V10.6747H19.6923H18.6923V11.9925H19.6923ZM19.6923 10.6747H20.6923C20.6923 9.34128 20.6927 8.32343 20.6506 7.58379L19.6522 7.64065L18.6538 7.69752C18.6919 8.36606 18.6923 9.31397 18.6923 10.6747H19.6923ZM19.6522 7.64065L20.6515 7.60406C20.6399 7.28731 20.6056 6.97177 20.5489 6.65972L19.565 6.8386L18.5812 7.01749C18.6208 7.23566 18.6448 7.45609 18.6529 7.67725L19.6522 7.64065ZM19.565 6.8386L20.5466 6.64758C20.5245 6.5338 20.4948 6.42165 20.4578 6.31183L19.5101 6.63098L18.5624 6.95012C18.5712 6.97633 18.5782 7.00288 18.5834 7.02963L19.565 6.8386ZM19.5101 6.63098L20.4596 6.3173C20.4307 6.22969 20.3928 6.14568 20.3468 6.06651L19.4822 6.56902L18.6176 7.07154C18.5945 7.03176 18.5753 6.98926 18.5606 6.94465L19.5101 6.63098ZM19.4822 6.56902L20.207 5.88001C20.1495 5.81954 20.0867 5.76485 20.0197 5.71646L19.4343 6.52716L18.8488 7.33787C18.8164 7.31446 18.7858 7.2878 18.7575 7.25803L19.4822 6.56902ZM19.4343 6.52716L20.028 5.72251C19.9369 5.65527 19.8417 5.59377 19.743 5.5383L19.2529 6.40995L18.7628 7.28161C18.79 7.29691 18.816 7.3137 18.8405 7.33182L19.4343 6.52716ZM19.2529 6.40995L19.7206 5.52606C19.4385 5.3768 19.1464 5.2463 18.8463 5.1354L18.4997 6.0734L18.153 7.01139C18.3705 7.09174 18.5817 7.18613 18.7852 7.29384L19.2529 6.40995ZM18.4997 6.0734L18.8637 5.142C18.1568 4.86571 17.1633 4.53918 15.8561 4.11022L15.5443 5.06037L15.2325 6.01052C16.5634 6.44724 17.4931 6.75364 18.1357 7.00479L18.4997 6.0734ZM15.5443 5.06037L15.8578 4.11079L15.3583 3.94586L15.0448 4.89544L14.7312 5.84502L15.2308 6.00995L15.5443 5.06037ZM15.0448 4.89544L15.3568 3.94537C14.0137 3.50426 13.2715 3.25581 12.5 3.25581V4.25581V5.25581C12.8758 5.25581 13.2616 5.36235 14.7327 5.84551L15.0448 4.89544ZM9.64313 3.6706L9.95525 4.62065C11.263 4.191 11.8769 4 12.5 4V3V2C11.4893 2 10.541 2.32305 9.33101 2.72056L9.64313 3.6706ZM12.5 3V4C13.1231 4 13.737 4.191 15.0448 4.62065L15.3569 3.6706L15.669 2.72056C14.459 2.32305 13.5107 2 12.5 2V3ZM15.3569 3.6706L15.0434 4.6202L15.155 4.65704L15.4685 3.70744L15.7819 2.75785L15.6703 2.72101L15.3569 3.6706ZM15.4685 3.70744L15.1562 4.65745L15.6784 4.82908L15.9907 3.87907L16.3029 2.92906L15.7807 2.75744L15.4685 3.70744ZM15.9907 3.87907L15.6784 4.82905C16.9809 5.25726 17.9473 5.57565 18.6291 5.8414L18.9923 4.90967L19.3554 3.97795C18.611 3.68779 17.5827 3.34981 16.303 2.92909L15.9907 3.87907ZM18.9923 4.90967L18.6295 5.84156C18.9705 5.97429 19.2323 6.09179 19.4235 6.19809L19.9094 5.32409L20.3953 4.45009C20.0896 4.28012 19.7324 4.12468 19.355 3.97779L18.9923 4.90967ZM19.9094 5.32409L19.4216 6.19707C19.618 6.30679 19.7081 6.38824 19.7439 6.43743L20.5519 5.84819L21.3599 5.25894C21.0697 4.86107 20.6803 4.6093 20.3971 4.45112L19.9094 5.32409ZM20.5519 5.84819L19.7452 6.4391C19.7794 6.48578 19.827 6.58925 19.8685 6.79742L20.8492 6.60167L21.8298 6.40592C21.7668 6.09 21.647 5.65096 21.3586 5.25727L20.5519 5.84819ZM20.8492 6.60167L19.8691 6.80012C19.91 7.00213 19.939 7.27258 19.9598 7.63098L20.9582 7.57284L21.9565 7.5147C21.9337 7.12463 21.8982 6.74373 21.8293 6.40322L20.8492 6.60167ZM20.9582 7.57284L19.9597 7.62916C19.9996 8.33587 20 9.31984 20 10.6521H21H22C22 9.34546 22.0004 8.29333 21.9566 7.51651L20.9582 7.57284ZM21 10.6521H20V11.9925H21H22V10.6521H21ZM21 11.9925H20C20 16.4597 16.5088 18.6636 14.2069 19.6301L14.5941 20.5521L14.9812 21.4741C17.4568 20.4347 22 17.7408 22 11.9925H21ZM14.5941 20.5521L14.2297 19.6208L14.2062 19.63L14.5705 20.5613L14.9348 21.4926L14.9584 21.4834L14.5941 20.5521ZM14.5705 20.5613L14.1826 19.6396C13.8802 19.7669 13.6694 19.8527 13.4363 19.9101L13.6752 20.8811L13.914 21.8522C14.3209 21.7521 14.668 21.6052 14.9584 21.483L14.5705 20.5613ZM13.6752 20.8811L13.4343 19.9106C13.2014 19.9684 12.9289 20 12.5 20V21V22C13.0283 22 13.4742 21.9613 13.916 21.8517L13.6752 20.8811ZM12.5 21V20C12.0706 20 11.7996 19.9684 11.5651 19.9104L11.3248 20.8811L11.0846 21.8518C11.5266 21.9612 11.9704 22 12.5 22V21ZM11.3248 20.8811L11.5637 19.9101C11.3306 19.8527 11.1198 19.7669 10.8174 19.6396L10.4295 20.5613L10.0416 21.483C10.332 21.6052 10.6791 21.7521 11.086 21.8522L11.3248 20.8811ZM10.4295 20.5613L10.7938 19.63L10.7703 19.6208L10.4059 20.5521L10.0416 21.4834L10.0652 21.4926L10.4295 20.5613ZM10.4059 20.5521L10.7931 19.6301C8.49131 18.6636 5 16.4598 5 11.9916H4H3C3 17.7408 7.54315 20.4346 10.0188 21.4741L10.4059 20.5521ZM4 11.9916H5V10.6521H4H3V11.9916H4ZM4 10.6521H5C5 9.31988 5.00039 8.33586 5.04026 7.62826L4.04185 7.572L3.04343 7.51574C2.99961 8.29335 3 9.34543 3 10.6521H4ZM4.04185 7.572L5.04015 7.63027C5.06101 7.27285 5.09001 7.00201 5.13105 6.7987L4.15082 6.60084L3.17059 6.40297C3.10178 6.74385 3.06627 7.12436 3.04355 7.51373L4.04185 7.572ZM4.15082 6.60084L5.13135 6.79719C5.17283 6.59005 5.22071 6.4841 5.25655 6.43472L4.44723 5.84735L3.63791 5.25998C3.35293 5.65264 3.23342 6.08921 3.17029 6.40448L4.15082 6.60084ZM4.44723 5.84735L5.25262 6.44009C5.29022 6.38901 5.38232 6.30661 5.57838 6.19707L5.09062 5.32409L4.60285 4.45112C4.31942 4.60948 3.93204 4.86029 3.64184 5.25461L4.44723 5.84735ZM5.09062 5.32409L5.57654 6.19809C5.76774 6.09179 6.02951 5.97429 6.37049 5.84156L6.00774 4.90967L5.645 3.97779C5.26762 4.12468 4.91041 4.28012 4.60469 4.45009L5.09062 5.32409ZM6.00774 4.90967L6.3709 5.8414C7.05252 5.57573 8.01904 5.25728 9.32109 4.83007L9.00933 3.87991L8.69758 2.92974C7.41737 3.34979 6.38922 3.68771 5.64459 3.97795L6.00774 4.90967ZM9.00933 3.87991L9.32294 4.82946L9.84514 4.657L9.53154 3.70744L9.21794 2.75789L8.69573 2.93035L9.00933 3.87991ZM9.53154 3.70744L9.84501 4.65704L9.9566 4.6202L9.64313 3.6706L9.32965 2.72101L9.21806 2.75785L9.53154 3.70744ZM12.5 8.56828L11.6659 8.01662C11.5026 8.26349 11.3489 8.51615 11.2049 8.77408L12.0781 9.26149L12.9512 9.7489C13.0707 9.53488 13.1984 9.32508 13.3341 9.11993L12.5 8.56828ZM12.0781 9.26149L11.2115 8.76234L11.0982 8.95908L11.9647 9.45823L12.8312 9.95738L12.9446 9.76064L12.0781 9.26149ZM11.9647 9.45823L11.0991 8.95748L11.073 9.00269L11.9386 9.50344L12.8042 10.0042L12.8303 9.95898L11.9647 9.45823ZM11.9386 9.50344L11.073 9.00269C11.0211 9.09236 10.9911 9.14299 10.9579 9.18827C10.9273 9.23001 10.9123 9.24049 10.9146 9.23885L11.5027 10.0476L12.0908 10.8564C12.4998 10.559 12.7227 10.145 12.8042 10.0042L11.9386 9.50344ZM11.5027 10.0476L10.9136 9.23953C10.9139 9.23933 10.9093 9.24269 10.8975 9.24844C10.8854 9.25428 10.8678 9.26162 10.8431 9.26987C10.7884 9.28807 10.7289 9.30155 10.632 9.32199L10.8384 10.3005L11.0447 11.2789C11.2103 11.244 11.6778 11.1574 12.0917 10.8557L11.5027 10.0476ZM10.8384 10.3005L10.6279 9.32285L10.5774 9.33374L10.7878 10.3113L10.9982 11.289L11.0488 11.2781L10.8384 10.3005ZM10.7878 10.3113L10.5779 9.33362L10.3556 9.38134L10.5655 10.3591L10.7754 11.3368L10.9977 11.2891L10.7878 10.3113ZM10.5655 10.3591L10.3516 9.3822C9.97204 9.4653 9.65375 9.53423 9.41973 9.6126L9.73728 10.5608L10.0548 11.5091C10.1608 11.4736 10.3482 11.4303 10.7793 11.3359L10.5655 10.3591ZM9.73728 10.5608L8.91435 11.129C9.06309 11.3444 9.29238 11.6003 9.55848 11.8987L10.3048 11.2331L11.0512 10.5675C10.7454 10.2246 10.6207 10.0803 10.5602 9.9927L9.73728 10.5608ZM10.3048 11.2331L9.55877 11.899L9.71046 12.069L10.4565 11.4031L11.2026 10.7372L11.0509 10.5672L10.3048 11.2331ZM10.4565 11.4031L9.70811 12.0663L9.74299 12.1057L10.4914 11.4424L11.2398 10.7792L11.2049 10.7398L10.4565 11.4031ZM10.4914 11.4424L9.74825 12.1116C9.81556 12.1863 9.85434 12.2307 9.88603 12.275C9.91569 12.3164 9.91958 12.3319 9.91758 12.3257L10.8697 12.0201L11.8219 11.7145C11.6685 11.2365 11.3457 10.8967 11.2345 10.7733L10.4914 11.4424ZM10.8697 12.0201L9.9182 12.3276C9.91684 12.3234 9.92251 12.3387 9.92284 12.3881C9.92318 12.4415 9.91801 12.4993 9.90747 12.5996L10.902 12.7041L11.8965 12.8086C11.9141 12.6411 11.9741 12.1853 11.8213 11.7126L10.8697 12.0201ZM10.902 12.7041L9.90704 12.6038L9.90181 12.6557L10.8968 12.756L11.8917 12.8563L11.897 12.8043L10.902 12.7041ZM10.8968 12.756L9.90211 12.6528L9.87857 12.8797L10.8732 12.9829L11.8679 13.0861L11.8914 12.8592L10.8968 12.756ZM10.8732 12.9829L9.8783 12.8823C9.83918 13.2692 9.80785 13.5884 9.80785 13.8352H10.8078H11.8078C11.8078 13.7119 11.8253 13.507 11.8682 13.0835L10.8732 12.9829ZM10.8078 13.8352L11.1284 14.7824C11.3496 14.7076 11.6279 14.5844 11.9601 14.4375L11.5558 13.5229L11.1516 12.6082C10.7829 12.7712 10.6026 12.8489 10.4873 12.8879L10.8078 13.8352ZM11.5558 13.5229L11.9615 14.4369L12.169 14.3448L11.7633 13.4308L11.3576 12.5168L11.1502 12.6089L11.5558 13.5229ZM11.7633 13.4308L12.1634 14.3473L12.2113 14.3264L11.8113 13.4099L11.4112 12.4934L11.3633 12.5143L11.7633 13.4308ZM11.8113 13.4099L12.2225 14.3214C12.3117 14.2812 12.3673 14.2571 12.4219 14.2397C12.4736 14.2232 12.4969 14.2223 12.5 14.2223V13.2223V12.2223C11.9843 12.2223 11.5552 12.4284 11.4001 12.4983L11.8113 13.4099ZM12.5 13.2223V14.2223C12.5031 14.2223 12.5264 14.2232 12.5781 14.2397C12.6327 14.2571 12.6883 14.2812 12.7775 14.3214L13.1887 13.4099L13.5999 12.4983C13.4448 12.4284 13.0157 12.2223 12.5 12.2223V13.2223ZM13.1887 13.4099L12.7753 14.3204L12.8233 14.3422L13.2367 13.4316L13.65 12.5211L13.6021 12.4993L13.1887 13.4099ZM13.2367 13.4316L12.831 14.3456L13.0385 14.4377L13.4442 13.5237L13.8498 12.6097L13.6424 12.5176L13.2367 13.4316ZM13.4442 13.5237L13.0418 14.4392C13.3726 14.5846 13.6512 14.7078 13.8716 14.7824L14.1922 13.8352L14.5127 12.8879C14.3966 12.8486 14.2167 12.7709 13.8465 12.6083L13.4442 13.5237ZM14.1922 13.8352H15.1922C15.1922 13.5884 15.1608 13.2692 15.1217 12.8823L14.1268 12.9829L13.1318 13.0835C13.1747 13.507 13.1922 13.7119 13.1922 13.8352H14.1922ZM14.1268 12.9829L15.1214 12.8793L15.0979 12.6533L14.1032 12.7568L13.1086 12.8604L13.1321 13.0865L14.1268 12.9829ZM14.1032 12.7568L15.0983 12.6582L15.0931 12.6054L14.098 12.7041L13.1029 12.8028L13.1081 12.8555L14.1032 12.7568ZM14.098 12.7041L15.0925 12.5996C15.082 12.4993 15.0768 12.4415 15.0772 12.3881C15.0775 12.3387 15.0832 12.3234 15.0818 12.3276L14.1303 12.0201L13.1787 11.7126C13.0259 12.1853 13.0859 12.6411 13.1035 12.8086L14.098 12.7041ZM14.1303 12.0201L15.0824 12.3257C15.0804 12.332 15.0842 12.3166 15.1136 12.2756C15.1449 12.2319 15.1838 12.1875 15.2504 12.1141L14.5095 11.4424L13.7686 10.7708C13.6545 10.8967 13.3317 11.2358 13.1781 11.7145L14.1303 12.0201ZM14.5095 11.4424L15.2579 12.1057L15.2928 12.0663L14.5444 11.4031L13.796 10.7398L13.7611 10.7792L14.5095 11.4424ZM14.5444 11.4031L15.2923 12.0668L15.4431 11.8969L14.6952 11.2331L13.9472 10.5694L13.7964 10.7393L14.5444 11.4031ZM14.6952 11.2331L15.4415 11.8987C15.7093 11.5984 15.9364 11.344 16.0848 11.129L15.2618 10.5608L14.4389 9.9927C14.3781 10.0808 14.2529 10.2265 13.9488 10.5675L14.6952 11.2331ZM15.2618 10.5608L15.5809 9.61309C15.3458 9.53398 15.0268 9.46511 14.6451 9.38253L14.4336 10.3599L14.2222 11.3373C14.653 11.4305 14.8396 11.4738 14.9428 11.5086L15.2618 10.5608ZM14.4336 10.3599L14.6478 9.38312L14.4264 9.33456L14.2122 10.3113L13.998 11.2881L14.2194 11.3367L14.4336 10.3599ZM14.2122 10.3113L14.4226 9.33374L14.3721 9.32285L14.1616 10.3005L13.9512 11.2781L14.0018 11.289L14.2122 10.3113ZM14.1616 10.3005L14.368 9.32199C14.271 9.30154 14.2117 9.28808 14.1573 9.26996C14.1059 9.2528 14.0885 9.24047 14.0888 9.24066L13.4982 10.0476L12.9076 10.8546C13.3214 11.1575 13.7903 11.2441 13.9553 11.2789L14.1616 10.3005ZM13.4982 10.0476L14.0847 9.2377C14.087 9.23934 14.0723 9.22912 14.0423 9.18827C14.0099 9.14414 13.9802 9.09391 13.9299 9.00611L13.0623 9.50344L12.1947 10.0008C12.2776 10.1453 12.5001 10.5595 12.9117 10.8576L13.4982 10.0476ZM13.0623 9.50344L13.9279 9.00268L13.9017 8.95747L13.0362 9.45823L12.1706 9.95899L12.1967 10.0042L13.0623 9.50344ZM13.0362 9.45823L13.901 8.95621L13.7868 8.75946L12.9219 9.26149L12.0571 9.76351L12.1713 9.96026L13.0362 9.45823ZM12.9219 9.26149L13.7954 8.77458C13.6509 8.51541 13.497 8.26331 13.3343 8.01704L12.5 8.56828L11.6657 9.11952C11.8019 9.32582 11.9296 9.53505 12.0485 9.7484L12.9219 9.26149ZM11.5262 7.71684L12.308 8.34039C12.3675 8.26584 12.4133 8.22417 12.4468 8.20251C12.4612 8.19321 12.4701 8.18974 12.4747 8.18831C12.4782 8.18718 12.4853 8.18521 12.5 8.18521V7.18521V6.18521C11.5569 6.18521 10.9928 6.78187 10.7444 7.09329L11.5262 7.71684ZM12.5 7.18521V8.18521C12.5147 8.18521 12.5218 8.18718 12.5253 8.18831C12.5299 8.18974 12.5388 8.19321 12.5532 8.20251C12.5867 8.22417 12.6325 8.26584 12.692 8.34039L13.4738 7.71684L14.2556 7.09329C14.0072 6.78187 13.4431 6.18521 12.5 6.18521V7.18521ZM13.4738 7.71684L12.6912 8.33933C12.816 8.4963 12.9618 8.74265 13.1767 9.11252L14.0413 8.61014L14.906 8.10776C14.7181 7.78442 14.4925 7.39114 14.2564 7.09434L13.4738 7.71684ZM14.0413 8.61014L13.1795 9.11737L13.2022 9.15588L14.064 8.64865L14.9258 8.14142L14.9031 8.10291L14.0413 8.61014ZM14.064 8.64865L13.1975 9.1478L13.3108 9.34455L14.1773 8.8454L15.0438 8.34624L14.9305 8.1495L14.064 8.64865ZM14.1773 8.8454L13.3207 9.36125L13.4366 9.5538L14.2933 9.03795L15.15 8.5221L15.034 8.32955L14.1773 8.8454ZM14.2933 9.03795L14.0497 10.0078L14.1063 10.0221L14.3499 9.05219L14.5935 8.08231L14.5369 8.06808L14.2933 9.03795ZM14.3499 9.05219L14.1332 10.0284L14.284 10.0619L14.5008 9.08567L14.7175 8.10945L14.5667 8.07596L14.3499 9.05219ZM14.5008 9.08567L14.2909 10.0634L14.5132 10.1111L14.7231 9.1334L14.933 8.15567L14.7107 8.10795L14.5008 9.08567ZM14.7231 9.1334L14.5067 10.1097L14.552 10.1198L14.7684 9.14344L14.9848 8.16713L14.9394 8.15708L14.7231 9.1334ZM14.7684 9.14344L14.5564 10.1207C14.9728 10.2111 15.2517 10.274 15.4402 10.3458L15.7963 9.41135L16.1524 8.4769C15.7916 8.33941 15.3434 8.24493 14.9805 8.16618L14.7684 9.14344ZM15.7963 9.41135L15.4423 10.3466C15.5354 10.3819 15.5902 10.4141 15.6197 10.4382C15.6322 10.4485 15.6364 10.4543 15.637 10.455C15.6374 10.4555 15.6375 10.4558 15.6377 10.4562C15.6379 10.4566 15.6388 10.4583 15.64 10.4622L16.5913 10.154L17.5426 9.84572C17.2614 8.97765 16.5377 8.62273 16.1502 8.47609L15.7963 9.41135ZM16.5913 10.154L15.6403 10.4631C15.6422 10.4689 15.6416 10.4691 15.6416 10.4668C15.6416 10.4655 15.6419 10.47 15.6385 10.4828C15.6303 10.5141 15.6076 10.5676 15.5538 10.6499L16.3908 11.1971L17.2278 11.7443C17.4496 11.4051 17.822 10.7053 17.5424 9.84485L16.5913 10.154ZM16.3908 11.1971L15.5551 10.648C15.4447 10.816 15.256 11.0316 14.9717 11.3511L15.7187 12.0159L16.4656 12.6808C16.7148 12.4008 17.0179 12.0638 17.2265 11.7463L16.3908 11.1971ZM15.7187 12.0159L14.9699 11.3531L14.9402 11.3866L15.689 12.0494L16.4378 12.7122L16.4675 12.6787L15.7187 12.0159ZM15.689 12.0494L14.9446 11.3817L14.7929 11.5508L15.5373 12.2185L16.2817 12.8862L16.4334 12.7171L15.689 12.0494ZM15.5373 12.2185L14.7858 11.5589L14.6829 11.6761L15.4345 12.3357L16.186 12.9954L16.2889 12.8782L15.5373 12.2185ZM15.4345 12.3357L14.6672 11.6943L14.6175 11.7538L15.3848 12.3952L16.152 13.0365L16.2017 12.9771L15.4345 12.3357ZM15.3848 12.3952L14.3864 12.4524C14.3921 12.5523 14.4008 12.652 14.4125 12.7514L15.4057 12.6346L16.3989 12.5178C16.3918 12.458 16.3866 12.398 16.3831 12.3379L15.3848 12.3952ZM15.4057 12.6346L14.4104 12.7315L14.4365 13.0002L15.4318 12.9033L16.4271 12.8065L16.401 12.5377L15.4057 12.6346ZM15.4318 12.9033L14.437 13.0048C14.4808 13.4347 14.507 13.7148 14.4975 13.9107L15.4964 13.9591L16.4952 14.0074C16.5136 13.6274 16.4648 13.1757 16.4267 12.8019L15.4318 12.9033ZM15.4964 13.9591L14.4974 13.9126C14.493 14.008 14.4806 14.0638 14.4686 14.0948C14.4637 14.1076 14.4602 14.1122 14.4599 14.1126C14.4596 14.1131 14.4592 14.1136 14.4583 14.1144C14.4575 14.1153 14.4551 14.1175 14.4504 14.121L15.0378 14.9302L15.6252 15.7395C16.3726 15.197 16.4769 14.4003 16.4953 14.0056L15.4964 13.9591ZM15.0378 14.9302L14.4472 14.1232C14.4379 14.1301 14.4327 14.132 14.4296 14.133C14.4255 14.1344 14.4159 14.137 14.3974 14.1381C14.3549 14.1405 14.2893 14.1333 14.1947 14.1071L13.928 15.0709L13.6613 16.0347C14.0578 16.1444 14.871 16.2914 15.6283 15.7372L15.0378 14.9302ZM13.928 15.0709L14.193 14.1066C13.9971 14.0528 13.7321 13.9388 13.3456 13.7674L12.9403 14.6816L12.5349 15.5957C12.8772 15.7475 13.2923 15.9333 13.663 16.0351L13.928 15.0709ZM12.9403 14.6816L13.3362 13.7633L13.2935 13.7449L12.8975 14.6632L12.5016 15.5814L12.5443 15.5999L12.9403 14.6816ZM12.8975 14.6632L13.3032 13.7491L13.0957 13.6571L12.6901 14.5711L12.2844 15.4851L12.4919 15.5772L12.8975 14.6632ZM12.6901 14.5711L13.0864 13.653L12.8964 13.5709L12.5 14.489L12.1036 15.4071L12.2937 15.4892L12.6901 14.5711ZM12.5 14.489L12.1135 13.5667L12.0656 13.5868L12.4521 14.5091L12.8385 15.4314L12.8865 15.4113L12.5 14.489ZM12.4521 14.5091L12.0524 13.5924L11.9103 13.6544L12.3099 14.5711L12.7096 15.4877L12.8517 15.4258L12.4521 14.5091ZM12.3099 14.5711L11.9043 13.6571L11.6968 13.7491L12.1025 14.6632L12.5081 15.5772L12.7156 15.4851L12.3099 14.5711ZM12.1025 14.6632L11.7065 13.7449L11.6638 13.7633L12.0597 14.6816L12.4557 15.5999L12.4984 15.5814L12.1025 14.6632ZM12.0597 14.6816L11.6544 13.7674C11.2679 13.9388 11.0029 14.0528 10.807 14.1066L11.072 15.0709L11.337 16.0351C11.7077 15.9333 12.1228 15.7475 12.4651 15.5957L12.0597 14.6816ZM11.072 15.0709L10.8053 14.1071C10.7107 14.1333 10.6451 14.1405 10.6026 14.1381C10.5841 14.137 10.5745 14.1344 10.5704 14.133C10.5673 14.132 10.5621 14.1301 10.5528 14.1232L9.9622 14.9302L9.37165 15.7372C10.129 16.2914 10.9422 16.1444 11.3387 16.0347L11.072 15.0709ZM9.9622 14.9302L10.5496 14.121C10.5449 14.1175 10.5425 14.1153 10.5417 14.1144C10.5408 14.1136 10.5404 14.1131 10.5401 14.1126C10.5398 14.1122 10.5363 14.1076 10.5314 14.0948C10.5194 14.0638 10.507 14.008 10.5026 13.9126L9.50364 13.9591L8.50472 14.0056C8.52309 14.4003 8.62744 15.197 9.37477 15.7395L9.9622 14.9302ZM9.50364 13.9591L10.5025 13.9107C10.4929 13.7141 10.5192 13.4345 10.5623 13.0037L9.56728 12.9042L8.57224 12.8047C8.53512 13.1759 8.48644 13.6281 8.50481 14.0074L9.50364 13.9591ZM9.56728 12.9042L10.5623 13.0038L10.5667 12.9603L9.57164 12.8607L8.57662 12.761L8.57226 12.8046L9.56728 12.9042ZM9.57164 12.8607L10.5667 12.9604L10.5893 12.7344L9.59431 12.6346L8.5993 12.5348L8.57663 12.7609L9.57164 12.8607ZM9.59431 12.6346L10.5891 12.7368C10.6011 12.6198 10.6113 12.5187 10.6145 12.4323L9.61523 12.3952L8.61592 12.358C8.61597 12.3567 8.61567 12.3655 8.61293 12.3964C8.61022 12.4269 8.60606 12.469 8.59955 12.5324L9.59431 12.6346ZM9.61523 12.3952L10.3825 11.7538L10.3328 11.6943L9.56554 12.3357L8.79832 12.9771L8.84801 13.0365L9.61523 12.3952ZM9.56554 12.3357L10.3171 11.6761L10.2142 11.5589L9.46267 12.2185L8.71109 12.8782L8.81396 12.9954L9.56554 12.3357ZM9.46267 12.2185L10.2087 11.5526L10.057 11.3827L9.31097 12.0486L8.56492 12.7144L8.71662 12.8844L9.46267 12.2185ZM9.31097 12.0486L10.0514 11.3764L10.0217 11.3437L9.28133 12.0159L8.54093 12.6881L8.57057 12.7207L9.31097 12.0486ZM9.28133 12.0159L10.0283 11.3511C9.7436 11.0312 9.55604 10.8167 9.44715 10.6501L8.61005 11.1971L7.77295 11.7442C7.98139 12.0631 8.28552 12.4012 8.53436 12.6808L9.28133 12.0159ZM8.61005 11.1971L9.44576 10.6479C9.39213 10.5663 9.36955 10.5131 9.36144 10.4823C9.35812 10.4696 9.35846 10.4652 9.35845 10.4666C9.35843 10.4691 9.35778 10.4689 9.35969 10.4631L8.40867 10.154L7.45764 9.84485C7.17786 10.7056 7.55048 11.4056 7.77434 11.7463L8.61005 11.1971ZM8.40867 10.154L9.3598 10.4627C9.36188 10.4563 9.36304 10.4552 9.36308 10.4551C9.36374 10.4542 9.36807 10.4483 9.38061 10.438C9.40999 10.4139 9.4646 10.3817 9.55681 10.3469L9.20374 9.41135L8.85067 8.47575C8.4595 8.62337 7.73857 8.9795 7.45753 9.84517L8.40867 10.154ZM9.20374 9.41135L9.55984 10.3458C9.74814 10.274 10.0271 10.2111 10.4441 10.1208L10.2325 9.14344L10.0209 8.16609C9.65671 8.24493 9.20858 8.33936 8.84764 8.4769L9.20374 9.41135ZM10.2325 9.14344L10.4529 10.1189L10.4973 10.1088L10.2769 9.1334L10.0565 8.15799L10.0121 8.16803L10.2325 9.14344ZM10.2769 9.1334L10.4868 10.1111L10.7091 10.0634L10.4992 9.08567L10.2894 8.10795L10.067 8.15567L10.2769 9.1334ZM10.4992 9.08567L10.7225 10.0604L10.9308 10.0127L10.7076 9.03795L10.4843 8.06319L10.276 8.11091L10.4992 9.08567ZM10.7076 9.03795L11.5637 9.55475L11.5986 9.49698L10.7425 8.98019L9.88635 8.46339L9.85148 8.52116L10.7076 9.03795ZM10.7425 8.98019L11.6029 9.48977L11.6822 9.35581L10.8218 8.84623L9.96137 8.33665L9.88204 8.47061L10.7425 8.98019ZM10.8218 8.84623L11.6876 9.34667L11.8018 9.14909L10.936 8.64865L10.0702 8.14822L9.95602 8.3458L10.8218 8.84623ZM10.936 8.64865L11.7978 9.15588L11.8205 9.11737L10.9587 8.61014L10.0969 8.10291L10.0742 8.14142L10.936 8.64865ZM10.9587 8.61014L11.8243 9.11089C12.0363 8.74439 12.184 8.49627 12.3088 8.33933L11.5262 7.71684L10.7436 7.09434C10.5075 7.39117 10.2821 7.78268 10.0931 8.10939L10.9587 8.61014Z" fill="#0F0E40" mask="url(#path-1-inside-1_40001126_7424)"/>
</svg>
