<svg width="20" height="20" viewBox="0 0 20 20" fill="none" xmlns="http://www.w3.org/2000/svg">
<path d="M16.4814 5.50195C16.5388 5.49853 16.5961 5.50661 16.6504 5.52539C16.6932 5.54021 16.7324 5.56276 16.7686 5.58984L16.7939 5.6123C16.9732 5.77074 16.9927 6.04709 16.832 6.23145L9.64453 14.3564C9.60582 14.4002 9.55854 14.4357 9.50586 14.4609C9.45313 14.4862 9.39532 14.5011 9.33691 14.5039C9.27881 14.5066 9.22063 14.4975 9.16602 14.4775C9.11114 14.4574 9.06029 14.4257 9.01758 14.3857L4.33008 10.0107C4.24699 9.93157 4.19804 9.82278 4.19434 9.70801C4.19065 9.59253 4.23275 9.48003 4.31152 9.39551C4.39034 9.31099 4.49975 9.26122 4.61523 9.25684C4.72981 9.25254 4.84203 9.29298 4.92676 9.37012V9.37109L8.91406 13.084L9.29004 13.4326L9.62988 13.0488L16.1797 5.64941V5.64844C16.2177 5.60544 16.2638 5.5701 16.3154 5.54492C16.3672 5.51971 16.424 5.50542 16.4814 5.50195Z" fill="white" stroke="#28A745"/>
</svg>
