<svg width="24" height="24" viewBox="0 0 24 24" fill="none" xmlns="http://www.w3.org/2000/svg">
<path d="M7.05002 6.4621C7.32218 6.5579 7.61184 6.59368 7.89913 6.56698C8.18641 6.54029 8.46452 6.45175 8.71437 6.30745C8.96421 6.16315 9.17988 5.9665 9.34656 5.73099C9.51325 5.49549 9.627 5.22671 9.68002 4.9431L10 3.2231C11.3158 2.92336 12.6822 2.92336 13.998 3.2231L14.32 4.9431C14.373 5.22671 14.4868 5.49549 14.6535 5.73099C14.8202 5.9665 15.0358 6.16315 15.2857 6.30745C15.5355 6.45175 15.8136 6.54029 16.1009 6.56698C16.3882 6.59368 16.6779 6.5579 16.95 6.4621L18.599 5.8821C19.5169 6.87087 20.2008 8.05336 20.6 9.3421L19.27 10.4821C19.051 10.6699 18.8751 10.9028 18.7546 11.1649C18.634 11.427 18.5716 11.7121 18.5716 12.0006C18.5716 12.2891 18.634 12.5742 18.7546 12.8363C18.8751 13.0984 19.051 13.3313 19.27 13.5191L20.6 14.6581C20.2008 15.9468 19.5169 17.1293 18.599 18.1181L16.949 17.5381C16.6769 17.4423 16.3872 17.4065 16.0999 17.4332C15.8126 17.4599 15.5345 17.5484 15.2847 17.6927C15.0348 17.837 14.8192 18.0337 14.6525 18.2692C14.4858 18.5047 14.372 18.7735 14.319 19.0571L14 20.7771C12.6842 21.0768 11.3178 21.0768 10.002 20.7771L9.68002 19.0571C9.627 18.7735 9.51325 18.5047 9.34656 18.2692C9.17988 18.0337 8.96421 17.837 8.71437 17.6927C8.46452 17.5484 8.18641 17.4599 7.89913 17.4332C7.61184 17.4065 7.32218 17.4423 7.05002 17.5381L5.40102 18.1181C4.48312 17.1293 3.79926 15.9468 3.40002 14.6581L4.73002 13.5181C4.9489 13.3303 5.12459 13.0975 5.24503 12.8355C5.36548 12.5734 5.42784 12.2885 5.42784 12.0001C5.42784 11.7117 5.36548 11.4268 5.24503 11.1647C5.12459 10.9027 4.9489 10.6699 4.73002 10.4821L3.40002 9.3421C3.79896 8.05345 4.48248 6.87097 5.40002 5.8821L7.05002 6.4621ZM12 9.0001C12.7957 9.0001 13.5587 9.31617 14.1213 9.87878C14.684 10.4414 15 11.2044 15 12.0001C15 12.7957 14.684 13.5588 14.1213 14.1214C13.5587 14.684 12.7957 15.0001 12 15.0001C11.2044 15.0001 10.4413 14.684 9.8787 14.1214C9.31609 13.5588 9.00002 12.7957 9.00002 12.0001C9.00002 11.2044 9.31609 10.4414 9.8787 9.87878C10.4413 9.31617 11.2044 9.0001 12 9.0001Z" stroke="#0F0E40" stroke-width="1.5" stroke-linecap="round" stroke-linejoin="round"/>
</svg>
