<svg width="18" height="18" viewBox="0 0 18 18" fill="none" xmlns="http://www.w3.org/2000/svg">
<path d="M9.00001 0C13.9707 0 18 4.0293 18 8.99999C18 13.9707 13.9707 18 9.00001 18C7.40949 18.0027 5.84693 17.5818 4.47301 16.7805L0.00361391 18L1.22041 13.5288C0.418476 12.1544 -0.00277346 10.5912 1.37418e-05 8.99999C1.37418e-05 4.0293 4.02931 0 9.00001 0ZM5.93281 4.77L5.75281 4.7772C5.63643 4.78522 5.52272 4.81578 5.41801 4.8672C5.32043 4.92256 5.23132 4.99166 5.15341 5.0724C5.04541 5.1741 4.98421 5.2623 4.91851 5.3478C4.58562 5.78061 4.40639 6.31198 4.40911 6.85799C4.41091 7.29899 4.52611 7.72829 4.70611 8.12969C5.07421 8.94149 5.67991 9.80099 6.47911 10.5975C6.67171 10.7892 6.86071 10.9818 7.06411 11.1609C8.0572 12.0352 9.24056 12.6657 10.5201 13.0023L11.0313 13.0806C11.1978 13.0896 11.3643 13.077 11.5317 13.0689C11.7938 13.0551 12.0496 12.9841 12.2814 12.861C12.3992 12.8001 12.5142 12.734 12.6261 12.663C12.6261 12.663 12.6642 12.6372 12.7386 12.582C12.8601 12.492 12.9348 12.4281 13.0356 12.3228C13.1112 12.2448 13.1742 12.1542 13.2246 12.051C13.2948 11.9043 13.365 11.6244 13.3938 11.3913C13.4154 11.2131 13.4091 11.1159 13.4064 11.0556C13.4028 10.9593 13.3227 10.8594 13.2354 10.8171L12.7116 10.5822C12.7116 10.5822 11.9286 10.2411 11.4498 10.0233C11.3997 10.0015 11.346 9.98897 11.2914 9.98639C11.2298 9.97995 11.1676 9.98682 11.1089 10.0065C11.0502 10.0263 10.9964 10.0584 10.9512 10.1007C10.9467 10.0989 10.8864 10.1502 10.2357 10.9386C10.1984 10.9888 10.1469 11.0267 10.0879 11.0475C10.0289 11.0684 9.96509 11.0712 9.90451 11.0556C9.84585 11.04 9.7884 11.0201 9.73261 10.9962C9.62101 10.9494 9.58231 10.9314 9.50581 10.899C8.98909 10.6739 8.5108 10.3693 8.08831 9.99629C7.97491 9.89729 7.86961 9.78929 7.76161 9.68489C7.40756 9.34578 7.09898 8.96218 6.84361 8.54369L6.79051 8.45819C6.75294 8.40041 6.72214 8.33851 6.69871 8.27369C6.66451 8.14139 6.75361 8.03519 6.75361 8.03519C6.75361 8.03519 6.97231 7.79579 7.07401 7.66619C7.17301 7.54019 7.25671 7.41779 7.31071 7.33049C7.41691 7.15949 7.45021 6.98399 7.39441 6.84809C7.14241 6.2325 6.88201 5.6202 6.61321 5.0112C6.56011 4.8906 6.40261 4.8042 6.25951 4.7871C6.21091 4.7811 6.16231 4.7763 6.11371 4.7727C5.99287 4.76577 5.87169 4.76697 5.75101 4.7763L5.93281 4.77Z" fill="#5C5C5C"/>
</svg>
